<?xml version="1.0" encoding="UTF-8" standalone="no"?>
<!-- Created with Inkscape (http://www.inkscape.org/) -->

<svg
   xmlns:dc="http://purl.org/dc/elements/1.1/"
   xmlns:cc="http://creativecommons.org/ns#"
   xmlns:rdf="http://www.w3.org/1999/02/22-rdf-syntax-ns#"
   xmlns:svg="http://www.w3.org/2000/svg"
   xmlns="http://www.w3.org/2000/svg"
   xmlns:sodipodi="http://sodipodi.sourceforge.net/DTD/sodipodi-0.dtd"
   xmlns:inkscape="http://www.inkscape.org/namespaces/inkscape"
   version="1.0"
   width="1045.403"
   height="450.85941"
   id="svg2"
   sodipodi:version="0.32"
   inkscape:version="0.92.3 (2405546, 2018-03-11)"
   sodipodi:docname="dsri_logo.svg"
   inkscape:output_extension="org.inkscape.output.svg.inkscape">
  <metadata
     id="metadata9">
    <rdf:RDF>
      <cc:Work
         rdf:about="">
        <dc:format>image/svg+xml</dc:format>
        <dc:type
           rdf:resource="http://purl.org/dc/dcmitype/StillImage" />
        <dc:title></dc:title>
      </cc:Work>
    </rdf:RDF>
  </metadata>
  <sodipodi:namedview
     inkscape:window-height="1384"
     inkscape:window-width="2560"
     inkscape:pageshadow="2"
     inkscape:pageopacity="0.0"
     guidetolerance="10.0"
     gridtolerance="10.0"
     objecttolerance="10.0"
     borderopacity="1.0"
     bordercolor="#666666"
     pagecolor="#ffffff"
     id="base"
     showgrid="false"
     inkscape:zoom="0.498"
     inkscape:cx="827.95895"
     inkscape:cy="-219.7041"
     inkscape:window-x="0"
     inkscape:window-y="0"
     inkscape:current-layer="layer1"
     inkscape:window-maximized="1" />
  <defs
     id="defs4">
    <inkscape:perspective
       sodipodi:type="inkscape:persp3d"
       inkscape:vp_x="0 : 500 : 1"
       inkscape:vp_y="0 : 1000 : 0"
       inkscape:vp_z="800 : 500 : 1"
       inkscape:persp3d-origin="400 : 333.33333 : 1"
       id="perspective11" />
  </defs>
  <g
     id="layer1"
     transform="translate(-35.525365,-28.709142)">
    <path
       d="M 35.525365,28.709142 V 297.47476 L 315.96287,170.88103 Z M 372.44724,210.80292 92.009735,352.97476 372.44724,479.56855 Z"
       id="path3385"
       style="fill:#001c3d;fill-opacity:1;fill-rule:evenodd;stroke:none;stroke-width:1px;stroke-linecap:butt;stroke-linejoin:miter;stroke-opacity:1"
       inkscape:connector-curvature="0" />
    <path
       d="M 354.83074,392.89888 H 327.8755 l -6.21489,-40.30513 c -0.4337,-2.84407 -0.83116,-6.00656 -1.19241,-9.48738 -0.36143,-3.4807 -0.68662,-7.27996 -0.97558,-11.39744 -0.67459,3.94775 -1.99947,8.87182 -3.97463,14.77214 -0.4337,1.23108 -0.74686,2.14372 -0.93948,2.73795 l -14.38096,43.67986 h -19.22278 l -14.38095,-43.67986 c -0.19275,-0.59423 -0.48182,-1.50687 -0.86719,-2.73795 -2.02348,-5.90032 -3.34837,-10.80317 -3.97464,-14.70852 -0.2891,3.52336 -0.62635,7.01466 -1.01172,10.47423 -0.38546,3.4596 -0.84316,6.9086 -1.37307,10.34697 l -6.21488,40.30513 h -26.81073 l 16.33213,-93.21764 h 28.54514 l 15.9708,48.07331 c 0.0963,0.33964 0.28901,0.89149 0.57814,1.65548 1.49343,4.28735 2.43289,7.95921 2.81838,11.01551 0.19262,-1.65548 0.55396,-3.49138 1.08399,-5.50779 0.52988,-2.01624 1.25253,-4.44645 2.16799,-7.29059 l 16.11533,-47.94592 h 28.61738 z"
       id="text3377"
       style="font-style:normal;font-variant:normal;font-weight:bold;font-stretch:normal;font-size:50.44079971px;line-height:100%;font-family:'Futura Md BT';-inkscape-font-specification:'Futura Md BT Bold';text-align:start;writing-mode:lr-tb;text-anchor:start;fill:#ffffff;fill-opacity:1;stroke:none;stroke-width:1px;stroke-linecap:butt;stroke-linejoin:miter;stroke-opacity:1"
       inkscape:connector-curvature="0" />
    <path
       d="m 77.110605,120.37903 h 25.192725 v 45.33534 c -4e-5,6.66453 0.16876,11.45059 0.50638,14.35834 0.33756,2.90775 0.90724,5.33795 1.70906,7.29056 0.97054,2.37714 2.65849,4.19183 5.06386,5.44406 2.4053,1.25227 5.33812,1.87838 8.79847,1.87838 3.46026,0 6.38253,-0.62611 8.76682,-1.87838 2.38417,-1.25223 4.08268,-3.06692 5.09551,-5.44406 0.80172,-1.95261 1.3714,-4.38281 1.70906,-7.29056 0.33752,-2.90775 0.50632,-7.69381 0.50638,-14.35834 v -6.36732 -38.96802 h 25.12945 v 49.28307 c -1e-4,10.23021 -0.61198,17.77549 -1.83567,22.63582 -1.22385,4.86043 -3.29159,9.0098 -6.20323,12.44814 -3.165,3.77794 -7.51148,6.61142 -13.03945,8.50039 -5.52812,1.88896 -12.23774,2.83345 -20.12887,2.83345 -7.93343,0 -14.65359,-0.94449 -20.160505,-2.83345 -5.50698,-1.88897 -9.86401,-4.72245 -13.07111,-8.50039 -2.86953,-3.43834 -4.92673,-7.58771 -6.17158,-12.44814 -1.24488,-4.86033 -1.86731,-12.40561 -1.8673,-22.63582 v -9.67832 z"
       id="text3381"
       style="font-style:normal;font-variant:normal;font-weight:bold;font-stretch:normal;font-size:47.20746613px;line-height:100%;font-family:'Futura Md BT';-inkscape-font-specification:'Futura Md BT Bold';text-align:start;writing-mode:lr-tb;text-anchor:start;fill:#ffffff;fill-opacity:1;stroke:none;stroke-width:1px;stroke-linecap:butt;stroke-linejoin:miter;stroke-opacity:1"
       inkscape:connector-curvature="0" />
    <flowRoot
       xml:space="preserve"
       id="flowRoot819"
       style="font-style:normal;font-weight:normal;font-size:40px;line-height:1.25;font-family:sans-serif;letter-spacing:0px;word-spacing:0px;fill:#c62828;fill-opacity:1;stroke:none"
       transform="translate(72.578512,-15.042358)"><flowRegion
         id="flowRegion821"
         style="fill:#c62828;fill-opacity:1"><rect
           id="rect823"
           width="928.61017"
           height="500.51233"
           x="389.76068"
           y="75.208961"
           style="fill:#c62828;fill-opacity:1" /></flowRegion><flowPara
         id="flowPara825"
         style="font-style:normal;font-variant:normal;font-weight:normal;font-stretch:normal;font-size:320px;font-family:'TheSans B6 SemiBold';-inkscape-font-specification:'TheSans B6 SemiBold, ';fill:#c62828;fill-opacity:1">DSRI</flowPara></flowRoot>    <flowRoot
       xml:space="preserve"
       id="flowRoot820"
       style="font-style:normal;font-weight:normal;font-size:40px;line-height:1.25;font-family:sans-serif;letter-spacing:0px;word-spacing:0px;fill:#000000;fill-opacity:1;stroke:none"
       transform="translate(34.425901,25.118285)"><flowRegion
         id="flowRegion822"><rect
           id="rect824"
           width="460.75531"
           height="367.04239"
           x="350.00366"
           y="19.833126" /></flowRegion><flowPara
         id="flowPara826"></flowPara></flowRoot>  </g>
</svg>
