<?xml version="1.0" encoding="UTF-8" standalone="no"?>
<svg
   xmlns:dc="http://purl.org/dc/elements/1.1/"
   xmlns:cc="http://creativecommons.org/ns#"
   xmlns:rdf="http://www.w3.org/1999/02/22-rdf-syntax-ns#"
   xmlns:svg="http://www.w3.org/2000/svg"
   xmlns="http://www.w3.org/2000/svg"
   xmlns:xlink="http://www.w3.org/1999/xlink"
   xmlns:sodipodi="http://sodipodi.sourceforge.net/DTD/sodipodi-0.dtd"
   xmlns:inkscape="http://www.inkscape.org/namespaces/inkscape"
   id="b5d1da7b-a9c6-4711-8d73-fa7937ec989e"
   data-name="Layer 1"
   width="888"
   height="679.39355"
   viewBox="0 0 888 679.39353"
   version="1.1"
   sodipodi:docname="undraw_server_cluster.svg"
   inkscape:version="0.92.3 (2405546, 2018-03-11)">
  <metadata
     id="metadata133">
    <rdf:RDF>
      <cc:Work
         rdf:about="">
        <dc:format>image/svg+xml</dc:format>
        <dc:type
           rdf:resource="http://purl.org/dc/dcmitype/StillImage" />
      </cc:Work>
    </rdf:RDF>
  </metadata>
  <defs
     id="defs131">
    <linearGradient
       gradientTransform="matrix(0.46216171,0,0,0.46216171,54.684398,-108.59666)"
       id="09992bb0-0588-4d4c-95c8-1ad271d94435"
       x1="749.12"
       y1="475.14999"
       x2="749.12"
       y2="351.14999"
       xlink:href="#9b3bd20d-94b1-4b89-8689-3658f931a37a" />
    <linearGradient
       id="9b3bd20d-94b1-4b89-8689-3658f931a37a"
       x1="213.62"
       y1="486"
       x2="213.62"
       gradientUnits="userSpaceOnUse">
      <stop
         offset="0"
         stop-color="gray"
         stop-opacity="0.25"
         id="stop2" />
      <stop
         offset="0.54"
         stop-color="gray"
         stop-opacity="0.12"
         id="stop4" />
      <stop
         offset="1"
         stop-color="gray"
         stop-opacity="0.1"
         id="stop6" />
    </linearGradient>
    <linearGradient
       gradientTransform="matrix(0.46216171,0,0,0.46216171,126.08837,-64.931609)"
       id="89aca64f-6823-4107-b0e5-363f57c50e19"
       x1="595.12"
       y1="395.67999"
       x2="595.12"
       y2="241.67999"
       xlink:href="#9b3bd20d-94b1-4b89-8689-3658f931a37a" />
    <linearGradient
       id="linearGradient1455"
       x1="213.62"
       y1="486"
       x2="213.62"
       gradientUnits="userSpaceOnUse">
      <stop
         offset="0"
         stop-color="gray"
         stop-opacity="0.25"
         id="stop1449" />
      <stop
         offset="0.54"
         stop-color="gray"
         stop-opacity="0.12"
         id="stop1451" />
      <stop
         offset="1"
         stop-color="gray"
         stop-opacity="0.1"
         id="stop1453" />
    </linearGradient>
    <linearGradient
       gradientTransform="matrix(0.45238284,0,0,0.45238284,130.919,-96.492814)"
       id="e976fbab-c7be-4f98-b33a-a56658b85843"
       x1="790.62"
       y1="362.67999"
       x2="790.62"
       y2="344.67999"
       xlink:href="#9b3bd20d-94b1-4b89-8689-3658f931a37a-3" />
    <linearGradient
       id="9b3bd20d-94b1-4b89-8689-3658f931a37a-3"
       x1="213.62"
       y1="486"
       x2="213.62"
       gradientUnits="userSpaceOnUse">
      <stop
         offset="0"
         stop-color="gray"
         stop-opacity="0.25"
         id="stop2-5" />
      <stop
         offset="0.54"
         stop-color="gray"
         stop-opacity="0.12"
         id="stop4-6" />
      <stop
         offset="1"
         stop-color="gray"
         stop-opacity="0.1"
         id="stop6-2" />
    </linearGradient>
    <linearGradient
       gradientTransform="matrix(0.45238284,0,0,0.45238284,130.919,-96.492814)"
       id="244838b0-6b94-4a4f-974c-f4ebcd2d6e43"
       x1="788.12"
       y1="472.67999"
       x2="788.12"
       y2="318.67999"
       xlink:href="#9b3bd20d-94b1-4b89-8689-3658f931a37a-3" />
    <linearGradient
       id="linearGradient1513"
       x1="213.62"
       y1="486"
       x2="213.62"
       gradientUnits="userSpaceOnUse">
      <stop
         offset="0"
         stop-color="gray"
         stop-opacity="0.25"
         id="stop1507" />
      <stop
         offset="0.54"
         stop-color="gray"
         stop-opacity="0.12"
         id="stop1509" />
      <stop
         offset="1"
         stop-color="gray"
         stop-opacity="0.1"
         id="stop1511" />
    </linearGradient>
  </defs>
  <sodipodi:namedview
     pagecolor="#ffffff"
     bordercolor="#666666"
     borderopacity="1"
     objecttolerance="10"
     gridtolerance="10"
     guidetolerance="10"
     inkscape:pageopacity="0"
     inkscape:pageshadow="2"
     inkscape:window-width="2560"
     inkscape:window-height="1384"
     id="namedview129"
     showgrid="false"
     inkscape:zoom="7.512686"
     inkscape:cx="435.96318"
     inkscape:cy="606.36003"
     inkscape:window-x="0"
     inkscape:window-y="0"
     inkscape:window-maximized="1"
     inkscape:current-layer="b5d1da7b-a9c6-4711-8d73-fa7937ec989e" />
  <title
     id="title2">server_cluster</title>
  <path
     d="m 445.46798,604.80704 a 260.06372,260.06372 0 1 1 183.89355,-76.1709 258.36518,258.36518 0 0 1 -183.89355,76.1709 z m 0,-518.12891 c -142.29688,0 -258.06446,115.76758 -258.06446,258.06494 0,142.29736 115.76758,258.064 258.06446,258.064 142.29688,0 258.06445,-115.76663 258.06445,-258.064 0,-142.29737 -115.76758,-258.06494 -258.06445,-258.06494 z"
     id="path4"
     inkscape:connector-curvature="0"
     style="fill:#cccccc" />
  <rect
     x="411.72507"
     y="-523.80133"
     width="213.00984"
     height="158.53787"
     transform="rotate(90)"
     id="rect6"
     style="fill:#2f2e41;stroke-width:0.81301469" />
  <rect
     x="338.02753"
     y="405.22098"
     width="213.00984"
     height="84.553528"
     id="rect8"
     style="fill:#3f3d56;stroke-width:0.81301469" />
  <rect
     x="338.02753"
     y="499.53067"
     width="213.00984"
     height="84.553528"
     id="rect10"
     style="fill:#3f3d56;stroke-width:0.81301469" />
  <rect
     x="338.02753"
     y="593.84039"
     width="213.00984"
     height="84.553528"
     id="rect12"
     style="fill:#3f3d56;stroke-width:0.81301469" />
  <rect
     x="338.02753"
     y="441.0719"
     width="213.00984"
     height="13.008235"
     id="rect14"
     style="fill:#6c63ff;stroke-width:0.81301469" />
  <rect
     x="338.02753"
     y="535.38159"
     width="213.00984"
     height="13.008235"
     id="rect16"
     style="fill:#6c63ff;stroke-width:0.81301469" />
  <rect
     x="338.02753"
     y="629.69135"
     width="213.00984"
     height="13.008235"
     id="rect18"
     style="fill:#6c63ff;stroke-width:0.81301469" />
  <circle
     cx="509.57361"
     cy="417.4162"
     r="4.878088"
     id="circle20"
     style="fill:#6c63ff;stroke-width:0.81301469" />
  <circle
     cx="526.64691"
     cy="417.4162"
     r="4.878088"
     id="circle22"
     style="fill:#6c63ff;stroke-width:0.81301469" />
  <circle
     cx="543.72021"
     cy="417.4162"
     r="4.878088"
     id="circle24"
     style="fill:#6c63ff;stroke-width:0.81301469" />
  <circle
     cx="509.57361"
     cy="510.09985"
     r="4.878088"
     id="circle26"
     style="fill:#6c63ff;stroke-width:0.81301469" />
  <circle
     cx="526.64691"
     cy="510.09985"
     r="4.878088"
     id="circle28"
     style="fill:#6c63ff;stroke-width:0.81301469" />
  <circle
     cx="543.72021"
     cy="510.09985"
     r="4.878088"
     id="circle30"
     style="fill:#6c63ff;stroke-width:0.81301469" />
  <circle
     cx="509.57361"
     cy="602.78351"
     r="4.878088"
     id="circle32"
     style="fill:#6c63ff;stroke-width:0.81301469" />
  <circle
     cx="526.64691"
     cy="602.78351"
     r="4.878088"
     id="circle34"
     style="fill:#6c63ff;stroke-width:0.81301469" />
  <circle
     cx="543.72021"
     cy="602.78351"
     r="4.878088"
     id="circle36"
     style="fill:#6c63ff;stroke-width:0.81301469" />
  <rect
     y="677.39355"
     width="888"
     height="2"
     id="rect38"
     x="0"
     style="fill:#3f3d56" />
  <rect
     x="321.64301"
     y="0.13939001"
     width="245.88383"
     height="157.47495"
     id="rect66"
     style="fill:#e6e6e6" />
  <rect
     x="340.17914"
     y="41.799393"
     width="203.86136"
     height="81.560852"
     id="rect68"
     style="fill:#ffffff;stroke-width:1.02895486" />
  <rect
     x="321.53802"
     width="245.88383"
     height="10.44604"
     id="rect92"
     y="0"
     style="fill:#6c63ff" />
  <circle
     cx="329.30069"
     cy="5.34057"
     r="2.0968599"
     id="circle94"
     style="fill:#ffffff" />
  <circle
     cx="336.64963"
     cy="5.34057"
     r="2.0968599"
     id="circle96"
     style="fill:#ffffff" />
  <circle
     cx="343.99854"
     cy="5.34057"
     r="2.0968599"
     id="circle98"
     style="fill:#ffffff" />
  <rect
     style="fill:#2f2e41;stroke-width:0.43292332"
     x="285.65387"
     y="-236.23643"
     width="113.42592"
     height="84.420052"
     transform="rotate(90)"
     id="rect6-3" />
  <rect
     style="fill:#3f3d56;stroke-width:0.43292332"
     x="137.31345"
     y="282.19049"
     width="113.42592"
     height="45.024029"
     id="rect8-6" />
  <rect
     style="fill:#3f3d56;stroke-width:0.43292332"
     x="137.31345"
     y="332.40958"
     width="113.42592"
     height="45.024029"
     id="rect10-7" />
  <rect
     style="fill:#3f3d56;stroke-width:0.43292332"
     x="137.31345"
     y="382.62866"
     width="113.42592"
     height="45.024029"
     id="rect12-5" />
  <rect
     style="fill:#6c63ff;stroke-width:0.43292332"
     x="137.31345"
     y="301.28079"
     width="113.42592"
     height="6.9267731"
     id="rect14-3" />
  <rect
     style="fill:#6c63ff;stroke-width:0.43292332"
     x="137.31345"
     y="351.49988"
     width="113.42592"
     height="6.9267731"
     id="rect16-5" />
  <rect
     style="fill:#6c63ff;stroke-width:0.43292332"
     x="137.31345"
     y="401.71902"
     width="113.42592"
     height="6.9267731"
     id="rect18-6" />
  <circle
     style="fill:#6c63ff;stroke-width:0.43292332"
     cx="228.66028"
     cy="288.68433"
     id="circle20-2"
     r="2.5975399" />
  <circle
     style="fill:#6c63ff;stroke-width:0.43292332"
     cx="237.75166"
     cy="288.68433"
     id="circle22-9"
     r="2.5975399" />
  <circle
     style="fill:#6c63ff;stroke-width:0.43292332"
     cx="246.84305"
     cy="288.68433"
     id="circle24-1"
     r="2.5975399" />
  <circle
     style="fill:#6c63ff;stroke-width:0.43292332"
     cx="228.66028"
     cy="338.0376"
     id="circle26-2"
     r="2.5975399" />
  <circle
     style="fill:#6c63ff;stroke-width:0.43292332"
     cx="237.75166"
     cy="338.0376"
     id="circle28-7"
     r="2.5975399" />
  <circle
     style="fill:#6c63ff;stroke-width:0.43292332"
     cx="246.84305"
     cy="338.0376"
     id="circle30-0"
     r="2.5975399" />
  <circle
     style="fill:#6c63ff;stroke-width:0.43292332"
     cx="228.66028"
     cy="387.39084"
     id="circle32-9"
     r="2.5975399" />
  <circle
     style="fill:#6c63ff;stroke-width:0.43292332"
     cx="237.75166"
     cy="387.39084"
     id="circle34-3"
     r="2.5975399" />
  <circle
     style="fill:#6c63ff;stroke-width:0.43292332"
     cx="246.84305"
     cy="387.39084"
     id="circle36-6"
     r="2.5975399" />
  <rect
     style="fill:#2f2e41;stroke-width:0.43292332"
     x="283.21213"
     y="-740.76172"
     width="113.42592"
     height="84.420052"
     transform="rotate(90)"
     id="rect6-3-5" />
  <rect
     style="fill:#3f3d56;stroke-width:0.43292332"
     x="641.83875"
     y="279.74875"
     width="113.42592"
     height="45.024029"
     id="rect8-6-0" />
  <rect
     style="fill:#3f3d56;stroke-width:0.43292332"
     x="641.83875"
     y="329.96783"
     width="113.42592"
     height="45.024029"
     id="rect10-7-3" />
  <rect
     style="fill:#3f3d56;stroke-width:0.43292332"
     x="641.83875"
     y="380.18692"
     width="113.42592"
     height="45.024029"
     id="rect12-5-6" />
  <rect
     style="fill:#6c63ff;stroke-width:0.43292332"
     x="641.83875"
     y="298.83905"
     width="113.42592"
     height="6.9267731"
     id="rect14-3-1" />
  <rect
     style="fill:#6c63ff;stroke-width:0.43292332"
     x="641.83875"
     y="349.05814"
     width="113.42592"
     height="6.9267731"
     id="rect16-5-0" />
  <rect
     style="fill:#6c63ff;stroke-width:0.43292332"
     x="641.83875"
     y="399.27728"
     width="113.42592"
     height="6.9267731"
     id="rect18-6-6" />
  <circle
     style="fill:#6c63ff;stroke-width:0.43292332"
     cx="733.18561"
     cy="286.24258"
     id="circle20-2-3"
     r="2.5975399" />
  <circle
     style="fill:#6c63ff;stroke-width:0.43292332"
     cx="742.27698"
     cy="286.24258"
     id="circle22-9-2"
     r="2.5975399" />
  <circle
     style="fill:#6c63ff;stroke-width:0.43292332"
     cx="751.36835"
     cy="286.24258"
     id="circle24-1-0"
     r="2.5975399" />
  <circle
     style="fill:#6c63ff;stroke-width:0.43292332"
     cx="733.18561"
     cy="335.59586"
     id="circle26-2-6"
     r="2.5975399" />
  <circle
     style="fill:#6c63ff;stroke-width:0.43292332"
     cx="742.27698"
     cy="335.59586"
     id="circle28-7-1"
     r="2.5975399" />
  <circle
     style="fill:#6c63ff;stroke-width:0.43292332"
     cx="751.36835"
     cy="335.59586"
     id="circle30-0-5"
     r="2.5975399" />
  <circle
     style="fill:#6c63ff;stroke-width:0.43292332"
     cx="733.18561"
     cy="384.9491"
     id="circle32-9-5"
     r="2.5975399" />
  <circle
     style="fill:#6c63ff;stroke-width:0.43292332"
     cx="742.27698"
     cy="384.9491"
     id="circle34-3-4"
     r="2.5975399" />
  <circle
     style="fill:#6c63ff;stroke-width:0.43292332"
     cx="751.36835"
     cy="384.9491"
     id="circle36-6-7"
     r="2.5975399" />
  <rect
     style="fill:url(#89aca64f-6823-4107-b0e5-363f57c50e19);stroke-width:0.46216172"
     x="367.62335"
     y="46.76363"
     width="67.013451"
     height="71.172905"
     id="rect308" />
  <rect
     style="fill:#ffffff;stroke-width:0.46216172"
     x="369.00986"
     y="49.07444"
     width="64.240479"
     height="66.551285"
     id="rect310" />
  <path
     inkscape:connector-curvature="0"
     style="fill:url(#09992bb0-0588-4d4c-95c8-1ad271d94435);stroke-width:0.46216172"
     d="m 422.6067,63.655644 a 28.654026,28.654026 0 1 0 6.93243,18.694441 28.58008,28.58008 0 0 0 -6.93243,-18.694441 z m -11.55404,35.803671 a 19.872954,19.872954 0 1 1 9.74237,-17.099987 19.785143,19.785143 0 0 1 -9.72851,17.099987 z"
     id="path322" />
  <path
     inkscape:connector-curvature="0"
     style="fill:#ff5252;stroke-width:0.46216172"
     d="m 415.24909,69.991881 6.3085,-5.4304 a 27.198217,27.198217 0 0 0 -20.65862,-9.478937 v 8.318911 a 18.907036,18.907036 0 0 1 14.35012,6.590426 z"
     id="path324" />
  <path
     inkscape:connector-curvature="0"
     style="fill:#69f0ae;stroke-width:0.46216172"
     d="m 400.89897,101.29409 a 18.828468,18.828468 0 0 1 -7.81978,-1.696125 l -3.43386,7.584065 a 27.267541,27.267541 0 0 0 25.18319,-1.38649 l -4.25189,-7.158876 a 18.828468,18.828468 0 0 1 -9.67766,2.657426 z"
     id="path326" />
  <path
     inkscape:connector-curvature="0"
     style="fill:#ff9800;stroke-width:0.46216172"
     d="m 428.16651,82.345464 a 27.152001,27.152001 0 0 0 -6.60892,-17.788605 l -6.3085,5.4304 a 18.916279,18.916279 0 0 1 -4.67246,28.654027 l 4.25189,7.158884 a 27.267541,27.267541 0 0 0 13.33799,-23.454706 z"
     id="path328" />
  <path
     inkscape:connector-curvature="0"
     style="fill:#6c63ff;stroke-width:0.46216172"
     d="m 381.95033,82.345464 a 18.94863,18.94863 0 0 1 18.94864,-18.948631 v -8.31891 a 27.267541,27.267541 0 0 0 -11.25364,52.104107 l 3.43386,-7.584065 A 18.94863,18.94863 0 0 1 381.95033,82.345464 Z"
     id="path330" />
  <rect
     style="fill:url(#244838b0-6b94-4a4f-974c-f4ebcd2d6e43);stroke-width:0.4523828"
     x="454.6532"
     y="47.672546"
     width="65.595505"
     height="69.666954"
     id="rect312" />
  <rect
     style="fill:#ffffff;stroke-width:0.4523828"
     x="456.01038"
     y="49.934456"
     width="62.881207"
     height="65.143135"
     id="rect314" />
  <rect
     style="fill:url(#e976fbab-c7be-4f98-b33a-a56658b85843);stroke-width:0.4523828"
     x="464.60565"
     y="59.434509"
     width="47.952579"
     height="8.1428919"
     id="rect332" />
  <rect
     style="fill:#6c63ff;stroke-width:0.4523828"
     x="465.05801"
     y="59.88689"
     width="47.047817"
     height="7.2381248"
     id="rect334" />
  <rect
     style="fill:#ff5252;stroke-width:0.4523828"
     x="465.05801"
     y="72.101227"
     width="34.381096"
     height="7.2381248"
     id="rect336" />
  <rect
     style="fill:#69f0ae;stroke-width:0.4523828"
     x="465.05801"
     y="84.315552"
     width="23.523909"
     height="7.2381248"
     id="rect338" />
  <rect
     style="fill:#ff9800;stroke-width:0.4523828"
     x="465.05801"
     y="96.529892"
     width="42.523987"
     height="7.2381248"
     id="rect340" />
</svg>
