<?xml version="1.0" encoding="utf-8"?>
<!-- Generator: Adobe Illustrator 22.0.1, SVG Export Plug-In . SVG Version: 6.00 Build 0)  -->
<svg version="1.1" id="Layer_1" xmlns="http://www.w3.org/2000/svg" xmlns:xlink="http://www.w3.org/1999/xlink" x="0px" y="0px"
	 viewBox="0 0 60 60" style="enable-background:new 0 0 60 60;" xml:space="preserve">
<style type="text/css">
	.st0{fill:#2F81C1;}
	.st1{fill:#FFFFFF;}
</style>
<g>
	<g>
		<circle class="st0" cx="29.7" cy="30.3" r="26.7"/>
	</g>
	<g>
		<g>
			<path class="st1" d="M49,21.6C40.7,11,34.4,15.5,31.4,19c-0.9,1.1-2.6,1.1-3.5,0c-2.9-3.4-9.2-7.9-17.6,2.6
				c-11.6,14.7,4.8,34.3,19.2,33.1c0.1,0,0.2,0,0.3,0C44.2,55.8,60.6,36.3,49,21.6z"/>
			<path class="st0" d="M37.1,32.7L37.1,32.7l-0.2,0c0,0-0.9,4.9-2.3,9.8c-0.8,2.8-1.7,5-2.5,6.7c-1.2,2.4-2.1,2.7-2.6,2.8
				c0,0,0,0,0,0c-0.6,0-2.5-0.7-4.9-9.2c-0.2-0.8-0.4-1.5-0.6-2.2l-1.6-7.7c0,0,0,0,0,0c0,0,0,0,0,0l0,0c-0.8-0.3-15.8-4.8-0.3,6.3
				c0.3,1.3,0.6,2.7,1,4c2,7.1,4,10.4,6.4,10.4c0,0,0.1,0,0.1,0c1.4-0.1,2.7-1.3,3.9-3.6c0.9-1.7,1.8-4,2.6-7c0.4-1.2,0.7-2.5,1-3.7
				C51.9,27.5,37.1,32.7,37.1,32.7z"/>
		</g>
	</g>
</g>
</svg>
