<?xml version="1.0" encoding="UTF-8"?>
<!-- Generator: Adobe Illustrator 22.0.1, SVG Export Plug-In . SVG Version: 6.00 Build 0)  -->
<svg version="1.1" id="Layer_1" xmlns="http://www.w3.org/2000/svg" xmlns:xlink="http://www.w3.org/1999/xlink" x="0px" y="0px" viewBox="0 0 567 214.7" style="enable-background:new 0 0 567 214.7;" xml:space="preserve">
<style type="text/css">
	.st0{fill:#FFFFFF;}
</style>
<g>
	<rect x="259.2" y="175" width="308.2" height="30.8"/>
	<g>
		<path class="st0" d="M559.7,193.8c0-2-1.1-2.9-3.3-3.3c-2.2-0.4-3.1-0.7-3.1-1.8c0-0.9,0.9-1.1,2-1.1c1.5,0,2,0.7,2,1.3l0.2,0.2    h1.8l0.2-0.2c0-2.2-1.8-3.3-4.2-3.3c-3.1,0-4.2,1.5-4.2,3.1c0,2,1.3,2.9,3.5,3.3s2.9,0.7,2.9,1.8c0,0.9-0.7,1.3-2.2,1.3    c-1.5,0-2.2-0.7-2.2-1.8l-0.2-0.2h-1.8l-0.2,0.2c0,2.4,1.5,3.7,4.4,3.7C558.4,197.1,559.7,195.6,559.7,193.8 M548.8,187.7v-1.5    l-0.2-0.2h-0.9c-1.5,0-2.2,0.4-2.9,1.1h-0.2l-0.2-0.9l-0.2-0.2h-1.5l-0.2,0.2v10.5l0.2,0.2h1.8l0.2-0.2v-5.5    c0-2.6,1.1-3.3,2.9-3.3h1.1L548.8,187.7z M534.7,197.1c2.6,0,4.2-1.5,4.4-3.3l-0.2-0.2h-1.8l-0.2,0.2c-0.4,1.1-1.3,1.3-2.2,1.3    c-2.6,0-2.9-2.2-2.9-2.6l0.2-0.2h7.3l0.2-0.2v-0.7c0-3.1-1.5-5.7-5.1-5.7c-3.5,0-5.1,2.6-5.1,5.7    C529.4,194.7,531.2,197.1,534.7,197.1 M536.9,190.5h-4.8l-0.2-0.2c0-0.7,0.2-2.6,2.6-2.6c2.4,0,2.6,2,2.6,2.6L536.9,190.5z     M524.3,191.4c0,2.6-1.1,3.7-2.9,3.7c-1.8,0-2.9-1.3-2.9-3.7c0-2.4,1.1-3.7,2.9-3.7C523.2,187.7,524.3,188.8,524.3,191.4     M526.5,196.7v-14.9l-0.2-0.2h-1.8l-0.2,0.2v5.3h-0.2c0,0-0.9-1.3-2.9-1.3c-3.1,0-4.8,2.4-4.8,5.7c0,3.3,1.8,5.7,4.8,5.7    c2,0,2.9-1.3,2.9-1.3h0.2l0.2,0.9l0.2,0.2h1.5L526.5,196.7z M514.5,187.7v-1.5l-0.2-0.2h-0.9c-1.5,0-2.2,0.4-2.9,1.1h-0.2    l-0.2-0.9l-0.2-0.2h-1.5l-0.2,0.2v10.5l0.2,0.2h1.8l0.2-0.2v-5.5c0-2.6,1.1-3.3,2.9-3.3h1.1L514.5,187.7z M496.9,191.4    c0-2.4,1.1-3.7,3.1-3.7c2,0,3.1,1.3,3.1,3.7c0,2.4-1.1,3.7-3.1,3.7C498,195.2,496.9,193.8,496.9,191.4 M494.7,191.4    c0,3.5,2,5.7,5.3,5.7c3.3,0,5.3-2.2,5.3-5.7c0-3.5-2-5.7-5.3-5.7C496.7,185.7,494.7,187.9,494.7,191.4 M490.1,191.4    c0,2.4-1.1,3.7-2.9,3.7c-1.8,0-2.9-1.1-2.9-3.7c0-2.6,1.1-3.7,2.9-3.7C489,187.7,490.1,189,490.1,191.4 M492.3,191.4    c0-3.5-2-5.7-4.8-5.7c-2,0-2.9,1.3-2.9,1.3h-0.2v-5.3l-0.2-0.2h-1.8l-0.2,0.2v14.9l0.2,0.2h1.5l0.2-0.2l0.2-0.9h0.2    c0,0,0.9,1.3,2.9,1.3C490.3,197.1,492.3,194.7,492.3,191.4 M469.5,191.4c0,2.6-1.1,3.7-2.9,3.7c-1.8,0-2.9-1.3-2.9-3.7    c0-2.4,1.1-3.7,2.9-3.7C468.4,187.7,469.5,188.8,469.5,191.4 M466.6,199.5c-1.1,0-1.8-0.2-2.2-1.1l-0.2-0.2h-1.8l-0.2,0.2    c0.2,1.8,1.8,3.1,4.4,3.1c2.6,0,5.1-1.5,5.1-5.9v-9.5l-0.2-0.2h-1.5l-0.2,0.2l-0.2,0.9h-0.2c0,0-0.9-1.3-2.9-1.3    c-3.1,0-4.8,2.4-4.8,5.7c0,3.3,1.8,5.7,4.8,5.7c2,0,2.9-1.3,2.9-1.3h0.2C469.5,198.2,468.6,199.5,466.6,199.5 M458.8,196.7v-6.4    c0-2.6-1.1-4.6-4.2-4.6c-2,0-2.9,1.3-2.9,1.3h-0.2l-0.2-0.9l-0.2-0.2h-1.5l-0.2,0.2v10.5l0.2,0.2h1.8l0.2-0.2v-5.3    c0-2.6,0.9-3.7,2.9-3.7c2,0,2.2,1.5,2.2,2.6v6.4l0.2,0.2h1.8L458.8,196.7z M445.8,196.7v-10.5l-0.2-0.2h-1.8l-0.2,0.2v10.5    l0.2,0.2h1.8L445.8,196.7z M445.8,183.9v-1.8l-0.2-0.2h-1.8l-0.2,0.2v1.8l0.2,0.2h1.8L445.8,183.9z M440.7,193.8    c0-2-1.1-2.9-3.3-3.3c-2.2-0.4-3.1-0.7-3.1-1.8c0-0.9,0.9-1.1,2-1.1c1.5,0,2,0.7,2,1.3l0.2,0.2h1.8l0.2-0.2c0-2.2-1.8-3.3-4.2-3.3    c-3.1,0-4.2,1.5-4.2,3.1c0,2,1.3,2.9,3.5,3.3c2.2,0.4,2.9,0.7,2.9,1.8c0,0.9-0.7,1.3-2.2,1.3c-1.5,0-2.2-0.7-2.2-1.8l-0.2-0.2    h-1.8l-0.2,0.2c0,2.4,1.5,3.7,4.4,3.7C439.4,197.1,440.7,195.6,440.7,193.8 M429.5,193.8c0-2-1.1-2.9-3.3-3.3    c-2.2-0.4-3.1-0.7-3.1-1.8c0-0.9,0.9-1.1,2-1.1c1.5,0,2,0.7,2,1.3l0.2,0.2h1.8l0.2-0.2c0-2.2-1.8-3.3-4.2-3.3    c-3.1,0-4.2,1.5-4.2,3.1c0,2,1.3,2.9,3.5,3.3c2.2,0.4,2.9,0.7,2.9,1.8c0,0.9-0.7,1.3-2.2,1.3c-1.5,0-2.2-0.7-2.2-1.8l-0.2-0.2H421    l-0.2,0.2c0,2.4,1.5,3.7,4.4,3.7C428.2,197.1,429.5,195.6,429.5,193.8 M410.1,191.4c0-2.4,1.1-3.7,3.1-3.7c2,0,3.1,1.3,3.1,3.7    c0,2.4-1.1,3.7-3.1,3.7C411.2,195.2,410.1,193.8,410.1,191.4 M407.9,191.4c0,3.5,2,5.7,5.3,5.7c3.3,0,5.3-2.2,5.3-5.7    c0-3.5-2-5.7-5.3-5.7C409.9,185.7,407.9,187.9,407.9,191.4 M406,187.7v-1.5l-0.2-0.2H405c-1.5,0-2.2,0.4-2.9,1.1h-0.2l-0.2-0.9    l-0.2-0.2h-1.5l-0.2,0.2v10.5l0.2,0.2h1.8l0.2-0.2v-5.5c0-2.6,1.1-3.3,2.9-3.3h1.1L406,187.7z M388.9,191.4c0-2.4,1.1-3.7,3.1-3.7    c1.8,0,2.4,0.9,2.6,1.8l0.2,0.2h1.8l0.2-0.2c-0.2-2-1.8-3.7-4.8-3.7c-3.3,0-5.3,2.2-5.3,5.7c0,3.5,2,5.7,5.3,5.7    c3.1,0,4.6-1.8,4.8-3.7l-0.2-0.2h-1.8l-0.2,0.2c-0.2,0.9-0.9,1.8-2.6,1.8C390,195.2,388.9,193.8,388.9,191.4 M372.6,197.1    c2.6,0,4.2-1.5,4.4-3.3l-0.2-0.2H375l-0.2,0.2c-0.4,1.1-1.3,1.3-2.2,1.3c-2.6,0-2.9-2.2-2.9-2.6l0.2-0.2h7.3l0.2-0.2v-0.7    c0-3.1-1.5-5.7-5.1-5.7c-3.5,0-5.1,2.6-5.1,5.7C367.3,194.7,369.1,197.1,372.6,197.1 M374.8,190.5H370l-0.2-0.2    c0-0.7,0.2-2.6,2.6-2.6c2.4,0,2.6,2,2.6,2.6L374.8,190.5z M362.2,191.4c0,2.6-1.1,3.7-2.9,3.7c-1.8,0-2.9-1.3-2.9-3.7    c0-2.4,1.1-3.7,2.9-3.7C361.1,187.7,362.2,188.8,362.2,191.4 M359.3,199.5c-1.1,0-1.8-0.2-2.2-1.1l-0.2-0.2h-1.8l-0.2,0.2    c0.2,1.8,1.8,3.1,4.4,3.1c2.6,0,5.1-1.5,5.1-5.9v-9.5l-0.2-0.2h-1.5l-0.2,0.2l-0.2,0.9H362c0,0-0.9-1.3-2.9-1.3    c-3.1,0-4.8,2.4-4.8,5.7c0,3.3,1.8,5.7,4.8,5.7c2,0,2.9-1.3,2.9-1.3h0.2C362.2,198.2,361.3,199.5,359.3,199.5 M349.2,191.4    c0,2.6-1.1,3.7-2.9,3.7c-1.8,0-2.9-1.3-2.9-3.7c0-2.4,1.1-3.7,2.9-3.7C348.1,187.7,349.2,188.8,349.2,191.4 M351.3,196.7v-14.9    l-0.2-0.2h-1.8l-0.2,0.2v5.3h-0.2c0,0-0.9-1.3-2.9-1.3c-3.1,0-4.8,2.4-4.8,5.7c0,3.3,1.8,5.7,4.8,5.7c2,0,2.9-1.3,2.9-1.3h0.2    l0.2,0.9l0.2,0.2h1.5L351.3,196.7z M334,197.1c2.6,0,4.2-1.5,4.4-3.3l-0.2-0.2h-1.8l-0.2,0.2c-0.4,1.1-1.3,1.3-2.2,1.3    c-2.6,0-2.9-2.2-2.9-2.6l0.2-0.2h7.3l0.2-0.2v-0.7c0-3.1-1.5-5.7-5.1-5.7c-3.5,0-5.1,2.6-5.1,5.7    C328.8,194.7,330.5,197.1,334,197.1 M336.2,190.5h-4.8l-0.2-0.2c0-0.7,0.2-2.6,2.6-2.6c2.4,0,2.6,2,2.6,2.6L336.2,190.5z     M325.9,196.7v-14.9l-0.2-0.2h-1.8l-0.2,0.2v14.9l0.2,0.2h1.8L325.9,196.7z M320.7,187.7v-1.5l-0.2-0.2h-1.3l-0.2,0.2l-2,7.5h-0.2    l-2.2-7.5l-0.2-0.2h-2l-0.2,0.2l-2.2,7.5h-0.2l-2-7.5l-0.2-0.2h-1.3l-0.2,0.2v1.5l2.6,9l0.2,0.2h2l0.2-0.2l2.2-7.7h0.2l2.2,7.7    l0.2,0.2h2l0.2-0.2L320.7,187.7z M295.5,191.4c0-2.4,1.1-3.7,3.1-3.7c2,0,3.1,1.3,3.1,3.7c0,2.4-1.1,3.7-3.1,3.7    C296.6,195.2,295.5,193.8,295.5,191.4 M293.3,191.4c0,3.5,2,5.7,5.3,5.7c3.3,0,5.3-2.2,5.3-5.7c0-3.5-2-5.7-5.3-5.7    C295.3,185.7,293.3,187.9,293.3,191.4 M290.5,196.7v-6.4c0-2.6-1.1-4.6-4.2-4.6c-2,0-2.9,1.3-2.9,1.3h-0.2l-0.2-0.9l-0.2-0.2h-1.5    l-0.2,0.2v10.5l0.2,0.2h1.8l0.2-0.2v-5.3c0-2.6,0.9-3.7,2.9-3.7c2,0,2.2,1.5,2.2,2.6v6.4l0.2,0.2h1.8L290.5,196.7z M278.4,196.7    v-1.5l-5.3-6.8v-0.2l4.8-4.8v-1.5l-0.2-0.2H277l-0.4,0.2l-7.3,7.3h-0.2v-7.3l-0.2-0.2h-1.8l-0.2,0.2v14.9l0.2,0.2h1.8l0.2-0.2    v-4.4l0.2-0.4l2-2h0.2l5.3,6.8l0.4,0.2h0.9L278.4,196.7z"/>
	</g>
</g>
<g>
	<g>
		<path d="M5.7,16.4c0,1.5-1.2,2.6-2.6,2.6c-1.5,0-2.6-1.2-2.6-2.6c0-1.5,1.2-2.6,2.6-2.6C4.6,13.7,5.7,14.9,5.7,16.4z M9.4,13.7    c-1.5,0-2.6,1.2-2.6,2.6C6.8,17.8,8,19,9.4,19c1.4,0,2.6-1.2,2.6-2.6C12,14.9,10.9,13.7,9.4,13.7z M15.7,13.7    c-1.5,0-2.6,1.2-2.6,2.6c0,1.5,1.2,2.6,2.6,2.6c1.4,0,2.6-1.2,2.6-2.6C18.4,14.9,17.2,13.7,15.7,13.7z M28.3,13.7    c-1.4,0-2.6,1.2-2.6,2.6c0,1.5,1.2,2.6,2.6,2.6c1.5,0,2.6-1.2,2.6-2.6C31,14.9,29.8,13.7,28.3,13.7z M34.7,13.7    c-1.5,0-2.6,1.2-2.6,2.6c0,1.5,1.2,2.6,2.6,2.6c1.5,0,2.6-1.2,2.6-2.6C37.3,14.9,36.1,13.7,34.7,13.7z M41,13.7    c-1.4,0-2.6,1.2-2.6,2.6c0,1.5,1.2,2.6,2.6,2.6c1.5,0,2.6-1.2,2.6-2.6C43.6,14.9,42.4,13.7,41,13.7z M110.4,7.4    c-1.4,0-2.6,1.2-2.6,2.6c0,1.5,1.2,2.6,2.6,2.6c1.5,0,2.6-1.2,2.6-2.6C113,8.6,111.8,7.4,110.4,7.4z M116.7,7.4    c-1.4,0-2.6,1.2-2.6,2.6c0,1.5,1.2,2.6,2.6,2.6c1.4,0,2.6-1.2,2.6-2.6C119.3,8.6,118.1,7.4,116.7,7.4z M198.7,7.4    c-1.5,0-2.6,1.2-2.6,2.6c0,1.5,1.2,2.6,2.6,2.6c1.4,0,2.6-1.2,2.6-2.6C201.4,8.6,200.2,7.4,198.7,7.4z M205.1,7.4    c-1.5,0-2.6,1.2-2.6,2.6c0,1.5,1.2,2.6,2.6,2.6c1.4,0,2.6-1.2,2.6-2.6C207.7,8.6,206.5,7.4,205.1,7.4z M22,13.7    c-1.4,0-2.6,1.2-2.6,2.6c0,1.5,1.2,2.6,2.6,2.6c1.5,0,2.6-1.2,2.6-2.6C24.7,14.9,23.5,13.7,22,13.7z M299.7,7.4    c-1.4,0-2.6,1.2-2.6,2.6c0,1.5,1.2,2.6,2.6,2.6c1.5,0,2.6-1.2,2.6-2.6C302.3,8.6,301.2,7.4,299.7,7.4z M306,7.4    c-1.5,0-2.6,1.2-2.6,2.6c0,1.5,1.2,2.6,2.6,2.6c1.5,0,2.6-1.2,2.6-2.6C308.7,8.6,307.5,7.4,306,7.4z M400.7,26.4    c-1.4,0-2.6,1.2-2.6,2.6c0,1.4,1.2,2.6,2.6,2.6c1.4,0,2.6-1.2,2.6-2.6C403.3,27.5,402.1,26.4,400.7,26.4z M407,26.4    c-1.5,0-2.6,1.2-2.6,2.6c0,1.4,1.2,2.6,2.6,2.6c1.4,0,2.6-1.2,2.6-2.6C409.6,27.5,408.5,26.4,407,26.4z M413.3,26.4    c-1.5,0-2.6,1.2-2.6,2.6c0,1.4,1.2,2.6,2.6,2.6c1.4,0,2.6-1.2,2.6-2.6C415.9,27.5,414.8,26.4,413.3,26.4z M425.9,26.4    c-1.5,0-2.6,1.2-2.6,2.6c0,1.4,1.2,2.6,2.6,2.6c1.4,0,2.6-1.2,2.6-2.6C428.6,27.5,427.4,26.4,425.9,26.4z M432.2,26.4    c-1.5,0-2.6,1.2-2.6,2.6c0,1.4,1.2,2.6,2.6,2.6c1.4,0,2.6-1.2,2.6-2.6C434.9,27.5,433.7,26.4,432.2,26.4z M438.6,26.4    c-1.5,0-2.6,1.2-2.6,2.6c0,1.4,1.2,2.6,2.6,2.6c1.4,0,2.6-1.2,2.6-2.6C441.2,27.5,440,26.4,438.6,26.4z M533.2,26.4    c-1.4,0-2.6,1.2-2.6,2.6c0,1.4,1.2,2.6,2.6,2.6c1.5,0,2.6-1.2,2.6-2.6C535.9,27.5,534.7,26.4,533.2,26.4z M539.5,26.4    c-1.4,0-2.6,1.2-2.6,2.6c0,1.4,1.2,2.6,2.6,2.6c1.5,0,2.6-1.2,2.6-2.6C542.2,27.5,541,26.4,539.5,26.4z M552.2,26.4    c-1.4,0-2.6,1.2-2.6,2.6c0,1.4,1.2,2.6,2.6,2.6c1.5,0,2.6-1.2,2.6-2.6C554.8,27.5,553.6,26.4,552.2,26.4z M558.5,26.4    c-1.4,0-2.6,1.2-2.6,2.6c0,1.4,1.2,2.6,2.6,2.6c1.5,0,2.6-1.2,2.6-2.6C561.1,27.5,559.9,26.4,558.5,26.4z M564.8,31.6    c1.5,0,2.6-1.2,2.6-2.6c0-1.4-1.2-2.6-2.6-2.6c-1.4,0-2.6,1.2-2.6,2.6C562.1,30.4,563.3,31.6,564.8,31.6z M419.6,26.4    c-1.5,0-2.6,1.2-2.6,2.6c0,1.4,1.2,2.6,2.6,2.6c1.5,0,2.6-1.2,2.6-2.6C422.3,27.5,421.1,26.4,419.6,26.4z M545.8,26.4    c-1.5,0-2.6,1.2-2.6,2.6c0,1.4,1.2,2.6,2.6,2.6c1.5,0,2.6-1.2,2.6-2.6C548.5,27.5,547.3,26.4,545.8,26.4z M72.5,133.6    c-1.4,0-2.6,1.2-2.6,2.6c0,1.4,1.2,2.6,2.6,2.6c1.5,0,2.6-1.2,2.6-2.6C75.2,134.8,74,133.6,72.5,133.6z M78.8,133.6    c-1.5,0-2.6,1.2-2.6,2.6c0,1.4,1.2,2.6,2.6,2.6c1.4,0,2.6-1.2,2.6-2.6C81.5,134.8,80.3,133.6,78.8,133.6z M268.2,133.6    c-1.4,0-2.6,1.2-2.6,2.6c0,1.4,1.2,2.6,2.6,2.6c1.4,0,2.6-1.2,2.6-2.6C270.8,134.8,269.6,133.6,268.2,133.6z M274.5,133.6    c-1.5,0-2.6,1.2-2.6,2.6c0,1.4,1.2,2.6,2.6,2.6c1.4,0,2.6-1.2,2.6-2.6C277.1,134.8,275.9,133.6,274.5,133.6z M280.8,133.6    c-1.5,0-2.6,1.2-2.6,2.6c0,1.4,1.2,2.6,2.6,2.6c1.4,0,2.6-1.2,2.6-2.6C283.4,134.8,282.2,133.6,280.8,133.6z M287.1,133.6    c-1.4,0-2.6,1.2-2.6,2.6c0,1.4,1.2,2.6,2.6,2.6c1.5,0,2.6-1.2,2.6-2.6C289.7,134.8,288.6,133.6,287.1,133.6z M343.9,133.6    c-1.5,0-2.6,1.2-2.6,2.6c0,1.4,1.2,2.6,2.6,2.6c1.5,0,2.6-1.2,2.6-2.6C346.5,134.8,345.3,133.6,343.9,133.6z M350.2,133.6    c-1.5,0-2.6,1.2-2.6,2.6c0,1.4,1.2,2.6,2.6,2.6c1.5,0,2.6-1.2,2.6-2.6C352.8,134.8,351.7,133.6,350.2,133.6z M356.5,133.6    c-1.4,0-2.6,1.2-2.6,2.6c0,1.4,1.2,2.6,2.6,2.6c1.5,0,2.6-1.2,2.6-2.6C359.2,134.8,358,133.6,356.5,133.6z M362.8,133.6    c-1.4,0-2.6,1.2-2.6,2.6c0,1.4,1.2,2.6,2.6,2.6c1.5,0,2.6-1.2,2.6-2.6C365.5,134.8,364.3,133.6,362.8,133.6z M369.1,133.6    c-1.5,0-2.6,1.2-2.6,2.6c0,1.4,1.2,2.6,2.6,2.6c1.4,0,2.6-1.2,2.6-2.6C371.8,134.8,370.6,133.6,369.1,133.6z M375.5,133.6    c-1.4,0-2.6,1.2-2.6,2.6c0,1.4,1.2,2.6,2.6,2.6c1.4,0,2.6-1.2,2.6-2.6C378.1,134.8,376.9,133.6,375.5,133.6z M381.8,133.6    c-1.5,0-2.6,1.2-2.6,2.6c0,1.4,1.2,2.6,2.6,2.6c1.4,0,2.6-1.2,2.6-2.6C384.4,134.8,383.2,133.6,381.8,133.6z M470.1,133.6    c-1.4,0-2.6,1.2-2.6,2.6c0,1.4,1.2,2.6,2.6,2.6c1.5,0,2.6-1.2,2.6-2.6C472.7,134.8,471.6,133.6,470.1,133.6z M476.4,133.6    c-1.4,0-2.6,1.2-2.6,2.6c0,1.4,1.2,2.6,2.6,2.6c1.4,0,2.6-1.2,2.6-2.6C479.1,134.8,477.9,133.6,476.4,133.6z M482.7,133.6    c-1.4,0-2.6,1.2-2.6,2.6c0,1.4,1.2,2.6,2.6,2.6c1.5,0,2.6-1.2,2.6-2.6C485.4,134.8,484.2,133.6,482.7,133.6z M489,133.6    c-1.4,0-2.6,1.2-2.6,2.6c0,1.4,1.2,2.6,2.6,2.6c1.5,0,2.6-1.2,2.6-2.6C491.7,134.8,490.5,133.6,489,133.6z M495.4,133.6    c-1.5,0-2.6,1.2-2.6,2.6c0,1.4,1.2,2.6,2.6,2.6c1.4,0,2.6-1.2,2.6-2.6C498,134.8,496.8,133.6,495.4,133.6z M501.7,133.6    c-1.5,0-2.6,1.2-2.6,2.6c0,1.4,1.2,2.6,2.6,2.6c1.4,0,2.6-1.2,2.6-2.6C504.3,134.8,503.1,133.6,501.7,133.6z M508,133.6    c-1.5,0-2.6,1.2-2.6,2.6c0,1.4,1.2,2.6,2.6,2.6s2.6-1.2,2.6-2.6C510.6,134.8,509.4,133.6,508,133.6z M141.9,152.6    c-1.4,0-2.6,1.2-2.6,2.6c0,1.4,1.2,2.6,2.6,2.6c1.4,0,2.6-1.2,2.6-2.6C144.6,153.8,143.4,152.6,141.9,152.6z M148.3,152.6    c-1.4,0-2.6,1.2-2.6,2.6c0,1.4,1.2,2.6,2.6,2.6c1.4,0,2.6-1.2,2.6-2.6C150.9,153.8,149.7,152.6,148.3,152.6z M154.6,152.6    c-1.4,0-2.6,1.2-2.6,2.6c0,1.4,1.2,2.6,2.6,2.6c1.4,0,2.6-1.2,2.6-2.6C157.2,153.8,156,152.6,154.6,152.6z M160.9,152.6    c-1.5,0-2.6,1.2-2.6,2.6c0,1.4,1.2,2.6,2.6,2.6c1.4,0,2.6-1.2,2.6-2.6C163.5,153.8,162.3,152.6,160.9,152.6z M167.2,152.6    c-1.4,0-2.6,1.2-2.6,2.6c0,1.4,1.2,2.6,2.6,2.6c1.4,0,2.6-1.2,2.6-2.6C169.8,153.8,168.6,152.6,167.2,152.6z M173.5,152.6    c-1.5,0-2.6,1.2-2.6,2.6c0,1.4,1.2,2.6,2.6,2.6c1.4,0,2.6-1.2,2.6-2.6C176.1,153.8,174.9,152.6,173.5,152.6z M3.1,39    c-1.5,0-2.6,1.2-2.6,2.6c0,1.4,1.2,2.6,2.6,2.6c1.4,0,2.6-1.2,2.6-2.6C5.7,40.2,4.6,39,3.1,39z M9.4,39c-1.5,0-2.6,1.2-2.6,2.6    c0,1.4,1.2,2.6,2.6,2.6c1.4,0,2.6-1.2,2.6-2.6C12,40.2,10.9,39,9.4,39z M15.7,39c-1.5,0-2.6,1.2-2.6,2.6c0,1.4,1.2,2.6,2.6,2.6    c1.4,0,2.6-1.2,2.6-2.6C18.4,40.2,17.2,39,15.7,39z M28.3,39c-1.4,0-2.6,1.2-2.6,2.6c0,1.4,1.2,2.6,2.6,2.6c1.5,0,2.6-1.2,2.6-2.6    C31,40.2,29.8,39,28.3,39z M34.7,39c-1.5,0-2.6,1.2-2.6,2.6c0,1.4,1.2,2.6,2.6,2.6c1.5,0,2.6-1.2,2.6-2.6    C37.3,40.2,36.1,39,34.7,39z M41,39c-1.4,0-2.6,1.2-2.6,2.6c0,1.4,1.2,2.6,2.6,2.6c1.5,0,2.6-1.2,2.6-2.6C43.6,40.2,42.4,39,41,39    z M110.4,39c-1.4,0-2.6,1.2-2.6,2.6c0,1.4,1.2,2.6,2.6,2.6c1.5,0,2.6-1.2,2.6-2.6C113,40.2,111.8,39,110.4,39z M116.7,39    c-1.4,0-2.6,1.2-2.6,2.6c0,1.4,1.2,2.6,2.6,2.6c1.4,0,2.6-1.2,2.6-2.6C119.3,40.2,118.1,39,116.7,39z M198.7,39    c-1.5,0-2.6,1.2-2.6,2.6c0,1.4,1.2,2.6,2.6,2.6c1.4,0,2.6-1.2,2.6-2.6C201.4,40.2,200.2,39,198.7,39z M205.1,39    c-1.5,0-2.6,1.2-2.6,2.6c0,1.4,1.2,2.6,2.6,2.6c1.4,0,2.6-1.2,2.6-2.6C207.7,40.2,206.5,39,205.1,39z M110.4,32.7    c-1.4,0-2.6,1.2-2.6,2.6c0,1.4,1.2,2.6,2.6,2.6c1.5,0,2.6-1.2,2.6-2.6C113,33.9,111.8,32.7,110.4,32.7z M116.7,32.7    c-1.4,0-2.6,1.2-2.6,2.6c0,1.4,1.2,2.6,2.6,2.6c1.4,0,2.6-1.2,2.6-2.6C119.3,33.9,118.1,32.7,116.7,32.7z M198.7,32.7    c-1.5,0-2.6,1.2-2.6,2.6c0,1.4,1.2,2.6,2.6,2.6c1.4,0,2.6-1.2,2.6-2.6C201.4,33.9,200.2,32.7,198.7,32.7z M205.1,32.7    c-1.5,0-2.6,1.2-2.6,2.6c0,1.4,1.2,2.6,2.6,2.6c1.4,0,2.6-1.2,2.6-2.6C207.7,33.9,206.5,32.7,205.1,32.7z M261.9,39    c-1.5,0-2.6,1.2-2.6,2.6c0,1.4,1.2,2.6,2.6,2.6c1.4,0,2.6-1.2,2.6-2.6C264.5,40.2,263.3,39,261.9,39z M268.2,39    c-1.4,0-2.6,1.2-2.6,2.6c0,1.4,1.2,2.6,2.6,2.6c1.4,0,2.6-1.2,2.6-2.6C270.8,40.2,269.6,39,268.2,39z M3.1,45.3    c-1.5,0-2.6,1.2-2.6,2.6c0,1.4,1.2,2.6,2.6,2.6c1.4,0,2.6-1.2,2.6-2.6C5.7,46.5,4.6,45.3,3.1,45.3z M9.4,45.3    c-1.5,0-2.6,1.2-2.6,2.6c0,1.4,1.2,2.6,2.6,2.6c1.4,0,2.6-1.2,2.6-2.6C12,46.5,10.9,45.3,9.4,45.3z M15.7,45.3    c-1.5,0-2.6,1.2-2.6,2.6c0,1.4,1.2,2.6,2.6,2.6c1.4,0,2.6-1.2,2.6-2.6C18.4,46.5,17.2,45.3,15.7,45.3z M28.3,45.3    c-1.4,0-2.6,1.2-2.6,2.6c0,1.4,1.2,2.6,2.6,2.6c1.5,0,2.6-1.2,2.6-2.6C31,46.5,29.8,45.3,28.3,45.3z M34.7,45.3    c-1.5,0-2.6,1.2-2.6,2.6c0,1.4,1.2,2.6,2.6,2.6c1.5,0,2.6-1.2,2.6-2.6C37.3,46.5,36.1,45.3,34.7,45.3z M41,45.3    c-1.4,0-2.6,1.2-2.6,2.6c0,1.4,1.2,2.6,2.6,2.6c1.5,0,2.6-1.2,2.6-2.6C43.6,46.5,42.4,45.3,41,45.3z M198.7,45.3    c-1.5,0-2.6,1.2-2.6,2.6c0,1.4,1.2,2.6,2.6,2.6c1.4,0,2.6-1.2,2.6-2.6C201.4,46.5,200.2,45.3,198.7,45.3z M205.1,45.3    c-1.5,0-2.6,1.2-2.6,2.6c0,1.4,1.2,2.6,2.6,2.6c1.4,0,2.6-1.2,2.6-2.6C207.7,46.5,206.5,45.3,205.1,45.3z M261.9,45.3    c-1.5,0-2.6,1.2-2.6,2.6c0,1.4,1.2,2.6,2.6,2.6c1.4,0,2.6-1.2,2.6-2.6C264.5,46.5,263.3,45.3,261.9,45.3z M268.2,45.3    c-1.4,0-2.6,1.2-2.6,2.6c0,1.4,1.2,2.6,2.6,2.6c1.4,0,2.6-1.2,2.6-2.6C270.8,46.5,269.6,45.3,268.2,45.3z M3.1,51.6    c-1.5,0-2.6,1.2-2.6,2.6c0,1.4,1.2,2.6,2.6,2.6c1.4,0,2.6-1.2,2.6-2.6C5.7,52.8,4.6,51.6,3.1,51.6z M9.4,51.6    c-1.5,0-2.6,1.2-2.6,2.6c0,1.4,1.2,2.6,2.6,2.6c1.4,0,2.6-1.2,2.6-2.6C12,52.8,10.9,51.6,9.4,51.6z M41,51.6    c-1.4,0-2.6,1.2-2.6,2.6c0,1.4,1.2,2.6,2.6,2.6c1.5,0,2.6-1.2,2.6-2.6C43.6,52.8,42.4,51.6,41,51.6z M47.3,51.6    c-1.5,0-2.6,1.2-2.6,2.6c0,1.4,1.2,2.6,2.6,2.6c1.4,0,2.6-1.2,2.6-2.6C49.9,52.8,48.7,51.6,47.3,51.6z M78.8,51.6    c-1.5,0-2.6,1.2-2.6,2.6c0,1.4,1.2,2.6,2.6,2.6c1.4,0,2.6-1.2,2.6-2.6C81.5,52.8,80.3,51.6,78.8,51.6z M85.1,51.6    c-1.4,0-2.6,1.2-2.6,2.6c0,1.4,1.2,2.6,2.6,2.6c1.5,0,2.6-1.2,2.6-2.6C87.8,52.8,86.6,51.6,85.1,51.6z M91.5,51.6    c-1.4,0-2.6,1.2-2.6,2.6c0,1.4,1.2,2.6,2.6,2.6c1.5,0,2.6-1.2,2.6-2.6C94.1,52.8,92.9,51.6,91.5,51.6z M110.4,51.6    c-1.4,0-2.6,1.2-2.6,2.6c0,1.4,1.2,2.6,2.6,2.6c1.5,0,2.6-1.2,2.6-2.6C113,52.8,111.8,51.6,110.4,51.6z M116.7,51.6    c-1.4,0-2.6,1.2-2.6,2.6c0,1.4,1.2,2.6,2.6,2.6c1.4,0,2.6-1.2,2.6-2.6C119.3,52.8,118.1,51.6,116.7,51.6z M141.9,51.6    c-1.4,0-2.6,1.2-2.6,2.6c0,1.4,1.2,2.6,2.6,2.6c1.4,0,2.6-1.2,2.6-2.6C144.6,52.8,143.4,51.6,141.9,51.6z M148.3,51.6    c-1.4,0-2.6,1.2-2.6,2.6c0,1.4,1.2,2.6,2.6,2.6c1.4,0,2.6-1.2,2.6-2.6C150.9,52.8,149.7,51.6,148.3,51.6z M154.6,51.6    c-1.4,0-2.6,1.2-2.6,2.6c0,1.4,1.2,2.6,2.6,2.6c1.4,0,2.6-1.2,2.6-2.6C157.2,52.8,156,51.6,154.6,51.6z M160.9,51.6    c-1.5,0-2.6,1.2-2.6,2.6c0,1.4,1.2,2.6,2.6,2.6c1.4,0,2.6-1.2,2.6-2.6C163.5,52.8,162.3,51.6,160.9,51.6z M173.5,51.6    c-1.5,0-2.6,1.2-2.6,2.6c0,1.4,1.2,2.6,2.6,2.6c1.4,0,2.6-1.2,2.6-2.6C176.1,52.8,174.9,51.6,173.5,51.6z M179.8,51.6    c-1.5,0-2.6,1.2-2.6,2.6c0,1.4,1.2,2.6,2.6,2.6c1.4,0,2.6-1.2,2.6-2.6C182.4,52.8,181.3,51.6,179.8,51.6z M198.7,51.6    c-1.5,0-2.6,1.2-2.6,2.6c0,1.4,1.2,2.6,2.6,2.6c1.4,0,2.6-1.2,2.6-2.6C201.4,52.8,200.2,51.6,198.7,51.6z M205.1,51.6    c-1.5,0-2.6,1.2-2.6,2.6c0,1.4,1.2,2.6,2.6,2.6c1.4,0,2.6-1.2,2.6-2.6C207.7,52.8,206.5,51.6,205.1,51.6z M211.4,51.6    c-1.5,0-2.6,1.2-2.6,2.6c0,1.4,1.2,2.6,2.6,2.6c1.5,0,2.6-1.2,2.6-2.6C214,52.8,212.8,51.6,211.4,51.6z M217.7,51.6    c-1.5,0-2.6,1.2-2.6,2.6c0,1.4,1.2,2.6,2.6,2.6c1.4,0,2.6-1.2,2.6-2.6C220.3,52.8,219.1,51.6,217.7,51.6z M230.3,51.6    c-1.5,0-2.6,1.2-2.6,2.6c0,1.4,1.2,2.6,2.6,2.6c1.4,0,2.6-1.2,2.6-2.6C232.9,52.8,231.7,51.6,230.3,51.6z M236.6,51.6    c-1.5,0-2.6,1.2-2.6,2.6c0,1.4,1.2,2.6,2.6,2.6c1.5,0,2.6-1.2,2.6-2.6C239.2,52.8,238.1,51.6,236.6,51.6z M261.9,51.6    c-1.5,0-2.6,1.2-2.6,2.6c0,1.4,1.2,2.6,2.6,2.6c1.4,0,2.6-1.2,2.6-2.6C264.5,52.8,263.3,51.6,261.9,51.6z M268.2,51.6    c-1.4,0-2.6,1.2-2.6,2.6c0,1.4,1.2,2.6,2.6,2.6c1.4,0,2.6-1.2,2.6-2.6C270.8,52.8,269.6,51.6,268.2,51.6z M274.5,51.6    c-1.5,0-2.6,1.2-2.6,2.6c0,1.4,1.2,2.6,2.6,2.6c1.4,0,2.6-1.2,2.6-2.6C277.1,52.8,275.9,51.6,274.5,51.6z M280.8,51.6    c-1.5,0-2.6,1.2-2.6,2.6c0,1.4,1.2,2.6,2.6,2.6c1.4,0,2.6-1.2,2.6-2.6C283.4,52.8,282.2,51.6,280.8,51.6z M3.1,57.9    c-1.5,0-2.6,1.2-2.6,2.6c0,1.5,1.2,2.6,2.6,2.6c1.4,0,2.6-1.2,2.6-2.6C5.7,59.1,4.6,57.9,3.1,57.9z M9.4,57.9    c-1.5,0-2.6,1.2-2.6,2.6c0,1.5,1.2,2.6,2.6,2.6c1.4,0,2.6-1.2,2.6-2.6C12,59.1,10.9,57.9,9.4,57.9z M41,57.9    c-1.4,0-2.6,1.2-2.6,2.6c0,1.5,1.2,2.6,2.6,2.6c1.5,0,2.6-1.2,2.6-2.6C43.6,59.1,42.4,57.9,41,57.9z M47.3,57.9    c-1.5,0-2.6,1.2-2.6,2.6c0,1.5,1.2,2.6,2.6,2.6c1.4,0,2.6-1.2,2.6-2.6C49.9,59.1,48.7,57.9,47.3,57.9z M72.5,57.9    c-1.4,0-2.6,1.2-2.6,2.6c0,1.5,1.2,2.6,2.6,2.6c1.5,0,2.6-1.2,2.6-2.6C75.2,59.1,74,57.9,72.5,57.9z M78.8,57.9    c-1.5,0-2.6,1.2-2.6,2.6c0,1.5,1.2,2.6,2.6,2.6c1.4,0,2.6-1.2,2.6-2.6C81.5,59.1,80.3,57.9,78.8,57.9z M85.1,57.9    c-1.4,0-2.6,1.2-2.6,2.6c0,1.5,1.2,2.6,2.6,2.6c1.5,0,2.6-1.2,2.6-2.6C87.8,59.1,86.6,57.9,85.1,57.9z M91.5,57.9    c-1.4,0-2.6,1.2-2.6,2.6c0,1.5,1.2,2.6,2.6,2.6c1.5,0,2.6-1.2,2.6-2.6C94.1,59.1,92.9,57.9,91.5,57.9z M97.8,51.6    c-1.5,0-2.6,1.2-2.6,2.6c0,1.4,1.2,2.6,2.6,2.6c1.5,0,2.6-1.2,2.6-2.6C100.4,52.8,99.2,51.6,97.8,51.6z M97.8,57.9    c-1.5,0-2.6,1.2-2.6,2.6c0,1.5,1.2,2.6,2.6,2.6c1.5,0,2.6-1.2,2.6-2.6C100.4,59.1,99.2,57.9,97.8,57.9z M110.4,57.9    c-1.4,0-2.6,1.2-2.6,2.6c0,1.5,1.2,2.6,2.6,2.6c1.5,0,2.6-1.2,2.6-2.6C113,59.1,111.8,57.9,110.4,57.9z M116.7,57.9    c-1.4,0-2.6,1.2-2.6,2.6c0,1.5,1.2,2.6,2.6,2.6c1.4,0,2.6-1.2,2.6-2.6C119.3,59.1,118.1,57.9,116.7,57.9z M135.6,57.9    c-1.5,0-2.6,1.2-2.6,2.6c0,1.5,1.2,2.6,2.6,2.6c1.4,0,2.6-1.2,2.6-2.6C138.3,59.1,137.1,57.9,135.6,57.9z M141.9,57.9    c-1.4,0-2.6,1.2-2.6,2.6c0,1.5,1.2,2.6,2.6,2.6c1.4,0,2.6-1.2,2.6-2.6C144.6,59.1,143.4,57.9,141.9,57.9z M148.3,57.9    c-1.4,0-2.6,1.2-2.6,2.6c0,1.5,1.2,2.6,2.6,2.6c1.4,0,2.6-1.2,2.6-2.6C150.9,59.1,149.7,57.9,148.3,57.9z M154.6,57.9    c-1.4,0-2.6,1.2-2.6,2.6c0,1.5,1.2,2.6,2.6,2.6c1.4,0,2.6-1.2,2.6-2.6C157.2,59.1,156,57.9,154.6,57.9z M160.9,57.9    c-1.5,0-2.6,1.2-2.6,2.6c0,1.5,1.2,2.6,2.6,2.6c1.4,0,2.6-1.2,2.6-2.6C163.5,59.1,162.3,57.9,160.9,57.9z M173.5,57.9    c-1.5,0-2.6,1.2-2.6,2.6c0,1.5,1.2,2.6,2.6,2.6c1.4,0,2.6-1.2,2.6-2.6C176.1,59.1,174.9,57.9,173.5,57.9z M179.8,57.9    c-1.5,0-2.6,1.2-2.6,2.6c0,1.5,1.2,2.6,2.6,2.6c1.4,0,2.6-1.2,2.6-2.6C182.4,59.1,181.3,57.9,179.8,57.9z M198.7,57.9    c-1.5,0-2.6,1.2-2.6,2.6c0,1.5,1.2,2.6,2.6,2.6c1.4,0,2.6-1.2,2.6-2.6C201.4,59.1,200.2,57.9,198.7,57.9z M205.1,57.9    c-1.5,0-2.6,1.2-2.6,2.6c0,1.5,1.2,2.6,2.6,2.6c1.4,0,2.6-1.2,2.6-2.6C207.7,59.1,206.5,57.9,205.1,57.9z M211.4,57.9    c-1.5,0-2.6,1.2-2.6,2.6c0,1.5,1.2,2.6,2.6,2.6c1.5,0,2.6-1.2,2.6-2.6C214,59.1,212.8,57.9,211.4,57.9z M217.7,57.9    c-1.5,0-2.6,1.2-2.6,2.6c0,1.5,1.2,2.6,2.6,2.6c1.4,0,2.6-1.2,2.6-2.6C220.3,59.1,219.1,57.9,217.7,57.9z M224,51.6    c-1.5,0-2.6,1.2-2.6,2.6c0,1.4,1.2,2.6,2.6,2.6c1.4,0,2.6-1.2,2.6-2.6C226.6,52.8,225.4,51.6,224,51.6z M224,57.9    c-1.5,0-2.6,1.2-2.6,2.6c0,1.5,1.2,2.6,2.6,2.6c1.4,0,2.6-1.2,2.6-2.6C226.6,59.1,225.4,57.9,224,57.9z M230.3,57.9    c-1.5,0-2.6,1.2-2.6,2.6c0,1.5,1.2,2.6,2.6,2.6c1.4,0,2.6-1.2,2.6-2.6C232.9,59.1,231.7,57.9,230.3,57.9z M236.6,57.9    c-1.5,0-2.6,1.2-2.6,2.6c0,1.5,1.2,2.6,2.6,2.6c1.5,0,2.6-1.2,2.6-2.6C239.2,59.1,238.1,57.9,236.6,57.9z M242.9,57.9    c-1.4,0-2.6,1.2-2.6,2.6c0,1.5,1.2,2.6,2.6,2.6c1.4,0,2.6-1.2,2.6-2.6C245.6,59.1,244.4,57.9,242.9,57.9z M261.9,57.9    c-1.5,0-2.6,1.2-2.6,2.6c0,1.5,1.2,2.6,2.6,2.6c1.4,0,2.6-1.2,2.6-2.6C264.5,59.1,263.3,57.9,261.9,57.9z M268.2,57.9    c-1.4,0-2.6,1.2-2.6,2.6c0,1.5,1.2,2.6,2.6,2.6c1.4,0,2.6-1.2,2.6-2.6C270.8,59.1,269.6,57.9,268.2,57.9z M274.5,57.9    c-1.5,0-2.6,1.2-2.6,2.6c0,1.5,1.2,2.6,2.6,2.6c1.4,0,2.6-1.2,2.6-2.6C277.1,59.1,275.9,57.9,274.5,57.9z M280.8,57.9    c-1.5,0-2.6,1.2-2.6,2.6c0,1.5,1.2,2.6,2.6,2.6c1.4,0,2.6-1.2,2.6-2.6C283.4,59.1,282.2,57.9,280.8,57.9z M3.1,64.2    c-1.5,0-2.6,1.2-2.6,2.6c0,1.4,1.2,2.6,2.6,2.6c1.4,0,2.6-1.2,2.6-2.6C5.7,65.4,4.6,64.2,3.1,64.2z M9.4,64.2    c-1.5,0-2.6,1.2-2.6,2.6c0,1.4,1.2,2.6,2.6,2.6c1.4,0,2.6-1.2,2.6-2.6C12,65.4,10.9,64.2,9.4,64.2z M41,64.2    c-1.4,0-2.6,1.2-2.6,2.6c0,1.4,1.2,2.6,2.6,2.6c1.5,0,2.6-1.2,2.6-2.6C43.6,65.4,42.4,64.2,41,64.2z M47.3,64.2    c-1.5,0-2.6,1.2-2.6,2.6c0,1.4,1.2,2.6,2.6,2.6c1.4,0,2.6-1.2,2.6-2.6C49.9,65.4,48.7,64.2,47.3,64.2z M72.5,64.2    c-1.4,0-2.6,1.2-2.6,2.6c0,1.4,1.2,2.6,2.6,2.6c1.5,0,2.6-1.2,2.6-2.6C75.2,65.4,74,64.2,72.5,64.2z M78.8,64.2    c-1.5,0-2.6,1.2-2.6,2.6c0,1.4,1.2,2.6,2.6,2.6c1.4,0,2.6-1.2,2.6-2.6C81.5,65.4,80.3,64.2,78.8,64.2z M110.4,64.2    c-1.4,0-2.6,1.2-2.6,2.6c0,1.4,1.2,2.6,2.6,2.6c1.5,0,2.6-1.2,2.6-2.6C113,65.4,111.8,64.2,110.4,64.2z M116.7,64.2    c-1.4,0-2.6,1.2-2.6,2.6c0,1.4,1.2,2.6,2.6,2.6c1.4,0,2.6-1.2,2.6-2.6C119.3,65.4,118.1,64.2,116.7,64.2z M135.6,64.2    c-1.5,0-2.6,1.2-2.6,2.6c0,1.4,1.2,2.6,2.6,2.6c1.4,0,2.6-1.2,2.6-2.6C138.3,65.4,137.1,64.2,135.6,64.2z M141.9,64.2    c-1.4,0-2.6,1.2-2.6,2.6c0,1.4,1.2,2.6,2.6,2.6c1.4,0,2.6-1.2,2.6-2.6C144.6,65.4,143.4,64.2,141.9,64.2z M173.5,64.2    c-1.5,0-2.6,1.2-2.6,2.6c0,1.4,1.2,2.6,2.6,2.6c1.4,0,2.6-1.2,2.6-2.6C176.1,65.4,174.9,64.2,173.5,64.2z M179.8,64.2    c-1.5,0-2.6,1.2-2.6,2.6c0,1.4,1.2,2.6,2.6,2.6c1.4,0,2.6-1.2,2.6-2.6C182.4,65.4,181.3,64.2,179.8,64.2z M198.7,64.2    c-1.5,0-2.6,1.2-2.6,2.6c0,1.4,1.2,2.6,2.6,2.6c1.4,0,2.6-1.2,2.6-2.6C201.4,65.4,200.2,64.2,198.7,64.2z M205.1,64.2    c-1.5,0-2.6,1.2-2.6,2.6c0,1.4,1.2,2.6,2.6,2.6c1.4,0,2.6-1.2,2.6-2.6C207.7,65.4,206.5,64.2,205.1,64.2z M236.6,64.2    c-1.5,0-2.6,1.2-2.6,2.6c0,1.4,1.2,2.6,2.6,2.6c1.5,0,2.6-1.2,2.6-2.6C239.2,65.4,238.1,64.2,236.6,64.2z M242.9,64.2    c-1.4,0-2.6,1.2-2.6,2.6c0,1.4,1.2,2.6,2.6,2.6c1.4,0,2.6-1.2,2.6-2.6C245.6,65.4,244.4,64.2,242.9,64.2z M261.9,64.2    c-1.5,0-2.6,1.2-2.6,2.6c0,1.4,1.2,2.6,2.6,2.6c1.4,0,2.6-1.2,2.6-2.6C264.5,65.4,263.3,64.2,261.9,64.2z M268.2,64.2    c-1.4,0-2.6,1.2-2.6,2.6c0,1.4,1.2,2.6,2.6,2.6c1.4,0,2.6-1.2,2.6-2.6C270.8,65.4,269.6,64.2,268.2,64.2z M3.1,70.5    c-1.5,0-2.6,1.2-2.6,2.6c0,1.4,1.2,2.6,2.6,2.6c1.4,0,2.6-1.2,2.6-2.6C5.7,71.7,4.6,70.5,3.1,70.5z M9.4,70.5    c-1.5,0-2.6,1.2-2.6,2.6c0,1.4,1.2,2.6,2.6,2.6c1.4,0,2.6-1.2,2.6-2.6C12,71.7,10.9,70.5,9.4,70.5z M15.7,70.5    c-1.5,0-2.6,1.2-2.6,2.6c0,1.4,1.2,2.6,2.6,2.6c1.4,0,2.6-1.2,2.6-2.6C18.4,71.7,17.2,70.5,15.7,70.5z M28.3,70.5    c-1.4,0-2.6,1.2-2.6,2.6c0,1.4,1.2,2.6,2.6,2.6c1.5,0,2.6-1.2,2.6-2.6C31,71.7,29.8,70.5,28.3,70.5z M34.7,70.5    c-1.5,0-2.6,1.2-2.6,2.6c0,1.4,1.2,2.6,2.6,2.6c1.5,0,2.6-1.2,2.6-2.6C37.3,71.7,36.1,70.5,34.7,70.5z M41,70.5    c-1.4,0-2.6,1.2-2.6,2.6c0,1.4,1.2,2.6,2.6,2.6c1.5,0,2.6-1.2,2.6-2.6C43.6,71.7,42.4,70.5,41,70.5z M47.3,70.5    c-1.5,0-2.6,1.2-2.6,2.6c0,1.4,1.2,2.6,2.6,2.6c1.4,0,2.6-1.2,2.6-2.6C49.9,71.7,48.7,70.5,47.3,70.5z M72.5,70.5    c-1.4,0-2.6,1.2-2.6,2.6c0,1.4,1.2,2.6,2.6,2.6c1.5,0,2.6-1.2,2.6-2.6C75.2,71.7,74,70.5,72.5,70.5z M78.8,70.5    c-1.5,0-2.6,1.2-2.6,2.6c0,1.4,1.2,2.6,2.6,2.6c1.4,0,2.6-1.2,2.6-2.6C81.5,71.7,80.3,70.5,78.8,70.5z M110.4,70.5    c-1.4,0-2.6,1.2-2.6,2.6c0,1.4,1.2,2.6,2.6,2.6c1.5,0,2.6-1.2,2.6-2.6C113,71.7,111.8,70.5,110.4,70.5z M116.7,70.5    c-1.4,0-2.6,1.2-2.6,2.6c0,1.4,1.2,2.6,2.6,2.6c1.4,0,2.6-1.2,2.6-2.6C119.3,71.7,118.1,70.5,116.7,70.5z M135.6,70.5    c-1.5,0-2.6,1.2-2.6,2.6c0,1.4,1.2,2.6,2.6,2.6c1.4,0,2.6-1.2,2.6-2.6C138.3,71.7,137.1,70.5,135.6,70.5z M141.9,70.5    c-1.4,0-2.6,1.2-2.6,2.6c0,1.4,1.2,2.6,2.6,2.6c1.4,0,2.6-1.2,2.6-2.6C144.6,71.7,143.4,70.5,141.9,70.5z M173.5,70.5    c-1.5,0-2.6,1.2-2.6,2.6c0,1.4,1.2,2.6,2.6,2.6c1.4,0,2.6-1.2,2.6-2.6C176.1,71.7,174.9,70.5,173.5,70.5z M179.8,70.5    c-1.5,0-2.6,1.2-2.6,2.6c0,1.4,1.2,2.6,2.6,2.6c1.4,0,2.6-1.2,2.6-2.6C182.4,71.7,181.3,70.5,179.8,70.5z M198.7,70.5    c-1.5,0-2.6,1.2-2.6,2.6c0,1.4,1.2,2.6,2.6,2.6c1.4,0,2.6-1.2,2.6-2.6C201.4,71.7,200.2,70.5,198.7,70.5z M205.1,70.5    c-1.5,0-2.6,1.2-2.6,2.6c0,1.4,1.2,2.6,2.6,2.6c1.4,0,2.6-1.2,2.6-2.6C207.7,71.7,206.5,70.5,205.1,70.5z M236.6,70.5    c-1.5,0-2.6,1.2-2.6,2.6c0,1.4,1.2,2.6,2.6,2.6c1.5,0,2.6-1.2,2.6-2.6C239.2,71.7,238.1,70.5,236.6,70.5z M242.9,70.5    c-1.4,0-2.6,1.2-2.6,2.6c0,1.4,1.2,2.6,2.6,2.6c1.4,0,2.6-1.2,2.6-2.6C245.6,71.7,244.4,70.5,242.9,70.5z M261.9,70.5    c-1.5,0-2.6,1.2-2.6,2.6c0,1.4,1.2,2.6,2.6,2.6c1.4,0,2.6-1.2,2.6-2.6C264.5,71.7,263.3,70.5,261.9,70.5z M268.2,70.5    c-1.4,0-2.6,1.2-2.6,2.6c0,1.4,1.2,2.6,2.6,2.6c1.4,0,2.6-1.2,2.6-2.6C270.8,71.7,269.6,70.5,268.2,70.5z M3.1,76.8    c-1.5,0-2.6,1.2-2.6,2.6c0,1.4,1.2,2.6,2.6,2.6c1.4,0,2.6-1.2,2.6-2.6C5.7,78,4.6,76.8,3.1,76.8z M9.4,76.8    c-1.5,0-2.6,1.2-2.6,2.6c0,1.4,1.2,2.6,2.6,2.6c1.4,0,2.6-1.2,2.6-2.6C12,78,10.9,76.8,9.4,76.8z M15.7,76.8    c-1.5,0-2.6,1.2-2.6,2.6c0,1.4,1.2,2.6,2.6,2.6c1.4,0,2.6-1.2,2.6-2.6C18.4,78,17.2,76.8,15.7,76.8z M28.3,76.8    c-1.4,0-2.6,1.2-2.6,2.6c0,1.4,1.2,2.6,2.6,2.6c1.5,0,2.6-1.2,2.6-2.6C31,78,29.8,76.8,28.3,76.8z M34.7,76.8    c-1.5,0-2.6,1.2-2.6,2.6c0,1.4,1.2,2.6,2.6,2.6c1.5,0,2.6-1.2,2.6-2.6C37.3,78,36.1,76.8,34.7,76.8z M41,76.8    c-1.4,0-2.6,1.2-2.6,2.6c0,1.4,1.2,2.6,2.6,2.6c1.5,0,2.6-1.2,2.6-2.6C43.6,78,42.4,76.8,41,76.8z M47.3,76.8    c-1.5,0-2.6,1.2-2.6,2.6c0,1.4,1.2,2.6,2.6,2.6c1.4,0,2.6-1.2,2.6-2.6C49.9,78,48.7,76.8,47.3,76.8z M53.6,76.8    c-1.4,0-2.6,1.2-2.6,2.6c0,1.4,1.2,2.6,2.6,2.6c1.4,0,2.6-1.2,2.6-2.6C56.2,78,55,76.8,53.6,76.8z M72.5,76.8    c-1.4,0-2.6,1.2-2.6,2.6c0,1.4,1.2,2.6,2.6,2.6c1.5,0,2.6-1.2,2.6-2.6C75.2,78,74,76.8,72.5,76.8z M78.8,76.8    c-1.5,0-2.6,1.2-2.6,2.6c0,1.4,1.2,2.6,2.6,2.6c1.4,0,2.6-1.2,2.6-2.6C81.5,78,80.3,76.8,78.8,76.8z M110.4,76.8    c-1.4,0-2.6,1.2-2.6,2.6c0,1.4,1.2,2.6,2.6,2.6c1.5,0,2.6-1.2,2.6-2.6C113,78,111.8,76.8,110.4,76.8z M116.7,76.8    c-1.4,0-2.6,1.2-2.6,2.6c0,1.4,1.2,2.6,2.6,2.6c1.4,0,2.6-1.2,2.6-2.6C119.3,78,118.1,76.8,116.7,76.8z M135.6,76.8    c-1.5,0-2.6,1.2-2.6,2.6c0,1.4,1.2,2.6,2.6,2.6c1.4,0,2.6-1.2,2.6-2.6C138.3,78,137.1,76.8,135.6,76.8z M141.9,76.8    c-1.4,0-2.6,1.2-2.6,2.6c0,1.4,1.2,2.6,2.6,2.6c1.4,0,2.6-1.2,2.6-2.6C144.6,78,143.4,76.8,141.9,76.8z M173.5,76.8    c-1.5,0-2.6,1.2-2.6,2.6c0,1.4,1.2,2.6,2.6,2.6c1.4,0,2.6-1.2,2.6-2.6C176.1,78,174.9,76.8,173.5,76.8z M179.8,76.8    c-1.5,0-2.6,1.2-2.6,2.6c0,1.4,1.2,2.6,2.6,2.6c1.4,0,2.6-1.2,2.6-2.6C182.4,78,181.3,76.8,179.8,76.8z M198.7,76.8    c-1.5,0-2.6,1.2-2.6,2.6c0,1.4,1.2,2.6,2.6,2.6c1.4,0,2.6-1.2,2.6-2.6C201.4,78,200.2,76.8,198.7,76.8z M205.1,76.8    c-1.5,0-2.6,1.2-2.6,2.6c0,1.4,1.2,2.6,2.6,2.6c1.4,0,2.6-1.2,2.6-2.6C207.7,78,206.5,76.8,205.1,76.8z M236.6,76.8    c-1.5,0-2.6,1.2-2.6,2.6c0,1.4,1.2,2.6,2.6,2.6c1.5,0,2.6-1.2,2.6-2.6C239.2,78,238.1,76.8,236.6,76.8z M242.9,76.8    c-1.4,0-2.6,1.2-2.6,2.6c0,1.4,1.2,2.6,2.6,2.6c1.4,0,2.6-1.2,2.6-2.6C245.6,78,244.4,76.8,242.9,76.8z M261.9,76.8    c-1.5,0-2.6,1.2-2.6,2.6c0,1.4,1.2,2.6,2.6,2.6c1.4,0,2.6-1.2,2.6-2.6C264.5,78,263.3,76.8,261.9,76.8z M268.2,76.8    c-1.4,0-2.6,1.2-2.6,2.6c0,1.4,1.2,2.6,2.6,2.6c1.4,0,2.6-1.2,2.6-2.6C270.8,78,269.6,76.8,268.2,76.8z M3.1,83.2    c-1.5,0-2.6,1.2-2.6,2.6c0,1.5,1.2,2.6,2.6,2.6c1.4,0,2.6-1.2,2.6-2.6C5.7,84.3,4.6,83.2,3.1,83.2z M9.4,83.2    c-1.5,0-2.6,1.2-2.6,2.6c0,1.5,1.2,2.6,2.6,2.6c1.4,0,2.6-1.2,2.6-2.6C12,84.3,10.9,83.2,9.4,83.2z M47.3,83.2    c-1.5,0-2.6,1.2-2.6,2.6c0,1.5,1.2,2.6,2.6,2.6c1.4,0,2.6-1.2,2.6-2.6C49.9,84.3,48.7,83.2,47.3,83.2z M53.6,83.2    c-1.4,0-2.6,1.2-2.6,2.6c0,1.5,1.2,2.6,2.6,2.6c1.4,0,2.6-1.2,2.6-2.6C56.2,84.3,55,83.2,53.6,83.2z M72.5,83.2    c-1.4,0-2.6,1.2-2.6,2.6c0,1.5,1.2,2.6,2.6,2.6c1.5,0,2.6-1.2,2.6-2.6C75.2,84.3,74,83.2,72.5,83.2z M78.8,83.2    c-1.5,0-2.6,1.2-2.6,2.6c0,1.5,1.2,2.6,2.6,2.6c1.4,0,2.6-1.2,2.6-2.6C81.5,84.3,80.3,83.2,78.8,83.2z M110.4,83.2    c-1.4,0-2.6,1.2-2.6,2.6c0,1.5,1.2,2.6,2.6,2.6c1.5,0,2.6-1.2,2.6-2.6C113,84.3,111.8,83.2,110.4,83.2z M116.7,83.2    c-1.4,0-2.6,1.2-2.6,2.6c0,1.5,1.2,2.6,2.6,2.6c1.4,0,2.6-1.2,2.6-2.6C119.3,84.3,118.1,83.2,116.7,83.2z M135.6,83.2    c-1.5,0-2.6,1.2-2.6,2.6c0,1.5,1.2,2.6,2.6,2.6c1.4,0,2.6-1.2,2.6-2.6C138.3,84.3,137.1,83.2,135.6,83.2z M141.9,83.2    c-1.4,0-2.6,1.2-2.6,2.6c0,1.5,1.2,2.6,2.6,2.6c1.4,0,2.6-1.2,2.6-2.6C144.6,84.3,143.4,83.2,141.9,83.2z M173.5,83.2    c-1.5,0-2.6,1.2-2.6,2.6c0,1.5,1.2,2.6,2.6,2.6c1.4,0,2.6-1.2,2.6-2.6C176.1,84.3,174.9,83.2,173.5,83.2z M179.8,83.2    c-1.5,0-2.6,1.2-2.6,2.6c0,1.5,1.2,2.6,2.6,2.6c1.4,0,2.6-1.2,2.6-2.6C182.4,84.3,181.3,83.2,179.8,83.2z M198.7,83.2    c-1.5,0-2.6,1.2-2.6,2.6c0,1.5,1.2,2.6,2.6,2.6c1.4,0,2.6-1.2,2.6-2.6C201.4,84.3,200.2,83.2,198.7,83.2z M205.1,83.2    c-1.5,0-2.6,1.2-2.6,2.6c0,1.5,1.2,2.6,2.6,2.6c1.4,0,2.6-1.2,2.6-2.6C207.7,84.3,206.5,83.2,205.1,83.2z M236.6,83.2    c-1.5,0-2.6,1.2-2.6,2.6c0,1.5,1.2,2.6,2.6,2.6c1.5,0,2.6-1.2,2.6-2.6C239.2,84.3,238.1,83.2,236.6,83.2z M242.9,83.2    c-1.4,0-2.6,1.2-2.6,2.6c0,1.5,1.2,2.6,2.6,2.6c1.4,0,2.6-1.2,2.6-2.6C245.6,84.3,244.4,83.2,242.9,83.2z M261.9,83.2    c-1.5,0-2.6,1.2-2.6,2.6c0,1.5,1.2,2.6,2.6,2.6c1.4,0,2.6-1.2,2.6-2.6C264.5,84.3,263.3,83.2,261.9,83.2z M268.2,83.2    c-1.4,0-2.6,1.2-2.6,2.6c0,1.5,1.2,2.6,2.6,2.6c1.4,0,2.6-1.2,2.6-2.6C270.8,84.3,269.6,83.2,268.2,83.2z M3.1,89.5    c-1.5,0-2.6,1.2-2.6,2.6c0,1.4,1.2,2.6,2.6,2.6c1.4,0,2.6-1.2,2.6-2.6C5.7,90.6,4.6,89.5,3.1,89.5z M9.4,89.5    c-1.5,0-2.6,1.2-2.6,2.6c0,1.4,1.2,2.6,2.6,2.6c1.4,0,2.6-1.2,2.6-2.6C12,90.6,10.9,89.5,9.4,89.5z M47.3,89.5    c-1.5,0-2.6,1.2-2.6,2.6c0,1.4,1.2,2.6,2.6,2.6c1.4,0,2.6-1.2,2.6-2.6C49.9,90.6,48.7,89.5,47.3,89.5z M53.6,89.5    c-1.4,0-2.6,1.2-2.6,2.6c0,1.4,1.2,2.6,2.6,2.6c1.4,0,2.6-1.2,2.6-2.6C56.2,90.6,55,89.5,53.6,89.5z M72.5,89.5    c-1.4,0-2.6,1.2-2.6,2.6c0,1.4,1.2,2.6,2.6,2.6c1.5,0,2.6-1.2,2.6-2.6C75.2,90.6,74,89.5,72.5,89.5z M78.8,89.5    c-1.5,0-2.6,1.2-2.6,2.6c0,1.4,1.2,2.6,2.6,2.6c1.4,0,2.6-1.2,2.6-2.6C81.5,90.6,80.3,89.5,78.8,89.5z M110.4,89.5    c-1.4,0-2.6,1.2-2.6,2.6c0,1.4,1.2,2.6,2.6,2.6c1.5,0,2.6-1.2,2.6-2.6C113,90.6,111.8,89.5,110.4,89.5z M116.7,89.5    c-1.4,0-2.6,1.2-2.6,2.6c0,1.4,1.2,2.6,2.6,2.6c1.4,0,2.6-1.2,2.6-2.6C119.3,90.6,118.1,89.5,116.7,89.5z M135.6,89.5    c-1.5,0-2.6,1.2-2.6,2.6c0,1.4,1.2,2.6,2.6,2.6c1.4,0,2.6-1.2,2.6-2.6C138.3,90.6,137.1,89.5,135.6,89.5z M141.9,89.5    c-1.4,0-2.6,1.2-2.6,2.6c0,1.4,1.2,2.6,2.6,2.6c1.4,0,2.6-1.2,2.6-2.6C144.6,90.6,143.4,89.5,141.9,89.5z M173.5,89.5    c-1.5,0-2.6,1.2-2.6,2.6c0,1.4,1.2,2.6,2.6,2.6c1.4,0,2.6-1.2,2.6-2.6C176.1,90.6,174.9,89.5,173.5,89.5z M179.8,89.5    c-1.5,0-2.6,1.2-2.6,2.6c0,1.4,1.2,2.6,2.6,2.6c1.4,0,2.6-1.2,2.6-2.6C182.4,90.6,181.3,89.5,179.8,89.5z M198.7,89.5    c-1.5,0-2.6,1.2-2.6,2.6c0,1.4,1.2,2.6,2.6,2.6c1.4,0,2.6-1.2,2.6-2.6C201.4,90.6,200.2,89.5,198.7,89.5z M205.1,89.5    c-1.5,0-2.6,1.2-2.6,2.6c0,1.4,1.2,2.6,2.6,2.6c1.4,0,2.6-1.2,2.6-2.6C207.7,90.6,206.5,89.5,205.1,89.5z M236.6,89.5    c-1.5,0-2.6,1.2-2.6,2.6c0,1.4,1.2,2.6,2.6,2.6c1.5,0,2.6-1.2,2.6-2.6C239.2,90.6,238.1,89.5,236.6,89.5z M242.9,89.5    c-1.4,0-2.6,1.2-2.6,2.6c0,1.4,1.2,2.6,2.6,2.6c1.4,0,2.6-1.2,2.6-2.6C245.6,90.6,244.4,89.5,242.9,89.5z M261.9,89.5    c-1.5,0-2.6,1.2-2.6,2.6c0,1.4,1.2,2.6,2.6,2.6c1.4,0,2.6-1.2,2.6-2.6C264.5,90.6,263.3,89.5,261.9,89.5z M268.2,89.5    c-1.4,0-2.6,1.2-2.6,2.6c0,1.4,1.2,2.6,2.6,2.6c1.4,0,2.6-1.2,2.6-2.6C270.8,90.6,269.6,89.5,268.2,89.5z M3.1,95.8    c-1.5,0-2.6,1.2-2.6,2.6c0,1.5,1.2,2.6,2.6,2.6c1.4,0,2.6-1.2,2.6-2.6C5.7,97,4.6,95.8,3.1,95.8z M9.4,95.8    c-1.5,0-2.6,1.2-2.6,2.6c0,1.5,1.2,2.6,2.6,2.6c1.4,0,2.6-1.2,2.6-2.6C12,97,10.9,95.8,9.4,95.8z M47.3,95.8    c-1.5,0-2.6,1.2-2.6,2.6c0,1.5,1.2,2.6,2.6,2.6c1.4,0,2.6-1.2,2.6-2.6C49.9,97,48.7,95.8,47.3,95.8z M53.6,95.8    c-1.4,0-2.6,1.2-2.6,2.6c0,1.5,1.2,2.6,2.6,2.6c1.4,0,2.6-1.2,2.6-2.6C56.2,97,55,95.8,53.6,95.8z M72.5,95.8    c-1.4,0-2.6,1.2-2.6,2.6c0,1.5,1.2,2.6,2.6,2.6c1.5,0,2.6-1.2,2.6-2.6C75.2,97,74,95.8,72.5,95.8z M78.8,95.8    c-1.5,0-2.6,1.2-2.6,2.6c0,1.5,1.2,2.6,2.6,2.6c1.4,0,2.6-1.2,2.6-2.6C81.5,97,80.3,95.8,78.8,95.8z M110.4,95.8    c-1.4,0-2.6,1.2-2.6,2.6c0,1.5,1.2,2.6,2.6,2.6c1.5,0,2.6-1.2,2.6-2.6C113,97,111.8,95.8,110.4,95.8z M116.7,95.8    c-1.4,0-2.6,1.2-2.6,2.6c0,1.5,1.2,2.6,2.6,2.6c1.4,0,2.6-1.2,2.6-2.6C119.3,97,118.1,95.8,116.7,95.8z M135.6,95.8    c-1.5,0-2.6,1.2-2.6,2.6c0,1.5,1.2,2.6,2.6,2.6c1.4,0,2.6-1.2,2.6-2.6C138.3,97,137.1,95.8,135.6,95.8z M141.9,95.8    c-1.4,0-2.6,1.2-2.6,2.6c0,1.5,1.2,2.6,2.6,2.6c1.4,0,2.6-1.2,2.6-2.6C144.6,97,143.4,95.8,141.9,95.8z M148.3,95.8    c-1.4,0-2.6,1.2-2.6,2.6c0,1.5,1.2,2.6,2.6,2.6c1.4,0,2.6-1.2,2.6-2.6C150.9,97,149.7,95.8,148.3,95.8z M154.6,95.8    c-1.4,0-2.6,1.2-2.6,2.6c0,1.5,1.2,2.6,2.6,2.6c1.4,0,2.6-1.2,2.6-2.6C157.2,97,156,95.8,154.6,95.8z M160.9,95.8    c-1.5,0-2.6,1.2-2.6,2.6c0,1.5,1.2,2.6,2.6,2.6c1.4,0,2.6-1.2,2.6-2.6C163.5,97,162.3,95.8,160.9,95.8z M173.5,95.8    c-1.5,0-2.6,1.2-2.6,2.6c0,1.5,1.2,2.6,2.6,2.6c1.4,0,2.6-1.2,2.6-2.6C176.1,97,174.9,95.8,173.5,95.8z M179.8,95.8    c-1.5,0-2.6,1.2-2.6,2.6c0,1.5,1.2,2.6,2.6,2.6c1.4,0,2.6-1.2,2.6-2.6C182.4,97,181.3,95.8,179.8,95.8z M198.7,95.8    c-1.5,0-2.6,1.2-2.6,2.6c0,1.5,1.2,2.6,2.6,2.6c1.4,0,2.6-1.2,2.6-2.6C201.4,97,200.2,95.8,198.7,95.8z M205.1,95.8    c-1.5,0-2.6,1.2-2.6,2.6c0,1.5,1.2,2.6,2.6,2.6c1.4,0,2.6-1.2,2.6-2.6C207.7,97,206.5,95.8,205.1,95.8z M236.6,95.8    c-1.5,0-2.6,1.2-2.6,2.6c0,1.5,1.2,2.6,2.6,2.6c1.5,0,2.6-1.2,2.6-2.6C239.2,97,238.1,95.8,236.6,95.8z M242.9,95.8    c-1.4,0-2.6,1.2-2.6,2.6c0,1.5,1.2,2.6,2.6,2.6c1.4,0,2.6-1.2,2.6-2.6C245.6,97,244.4,95.8,242.9,95.8z M261.9,95.8    c-1.5,0-2.6,1.2-2.6,2.6c0,1.5,1.2,2.6,2.6,2.6c1.4,0,2.6-1.2,2.6-2.6C264.5,97,263.3,95.8,261.9,95.8z M268.2,95.8    c-1.4,0-2.6,1.2-2.6,2.6c0,1.5,1.2,2.6,2.6,2.6c1.4,0,2.6-1.2,2.6-2.6C270.8,97,269.6,95.8,268.2,95.8z M3.1,102.1    c-1.5,0-2.6,1.2-2.6,2.6c0,1.4,1.2,2.6,2.6,2.6c1.4,0,2.6-1.2,2.6-2.6C5.7,103.3,4.6,102.1,3.1,102.1z M9.4,102.1    c-1.5,0-2.6,1.2-2.6,2.6c0,1.4,1.2,2.6,2.6,2.6c1.4,0,2.6-1.2,2.6-2.6C12,103.3,10.9,102.1,9.4,102.1z M15.7,102.1    c-1.5,0-2.6,1.2-2.6,2.6c0,1.4,1.2,2.6,2.6,2.6c1.4,0,2.6-1.2,2.6-2.6C18.4,103.3,17.2,102.1,15.7,102.1z M28.3,102.1    c-1.4,0-2.6,1.2-2.6,2.6c0,1.4,1.2,2.6,2.6,2.6c1.5,0,2.6-1.2,2.6-2.6C31,103.3,29.8,102.1,28.3,102.1z M34.7,102.1    c-1.5,0-2.6,1.2-2.6,2.6c0,1.4,1.2,2.6,2.6,2.6c1.5,0,2.6-1.2,2.6-2.6C37.3,103.3,36.1,102.1,34.7,102.1z M41,102.1    c-1.4,0-2.6,1.2-2.6,2.6c0,1.4,1.2,2.6,2.6,2.6c1.5,0,2.6-1.2,2.6-2.6C43.6,103.3,42.4,102.1,41,102.1z M47.3,102.1    c-1.5,0-2.6,1.2-2.6,2.6c0,1.4,1.2,2.6,2.6,2.6c1.4,0,2.6-1.2,2.6-2.6C49.9,103.3,48.7,102.1,47.3,102.1z M53.6,102.1    c-1.4,0-2.6,1.2-2.6,2.6c0,1.4,1.2,2.6,2.6,2.6c1.4,0,2.6-1.2,2.6-2.6C56.2,103.3,55,102.1,53.6,102.1z M72.5,102.1    c-1.4,0-2.6,1.2-2.6,2.6c0,1.4,1.2,2.6,2.6,2.6c1.5,0,2.6-1.2,2.6-2.6C75.2,103.3,74,102.1,72.5,102.1z M78.8,102.1    c-1.5,0-2.6,1.2-2.6,2.6c0,1.4,1.2,2.6,2.6,2.6c1.4,0,2.6-1.2,2.6-2.6C81.5,103.3,80.3,102.1,78.8,102.1z M110.4,102.1    c-1.4,0-2.6,1.2-2.6,2.6c0,1.4,1.2,2.6,2.6,2.6c1.5,0,2.6-1.2,2.6-2.6C113,103.3,111.8,102.1,110.4,102.1z M116.7,102.1    c-1.4,0-2.6,1.2-2.6,2.6c0,1.4,1.2,2.6,2.6,2.6c1.4,0,2.6-1.2,2.6-2.6C119.3,103.3,118.1,102.1,116.7,102.1z M141.9,102.1    c-1.4,0-2.6,1.2-2.6,2.6c0,1.4,1.2,2.6,2.6,2.6c1.4,0,2.6-1.2,2.6-2.6C144.6,103.3,143.4,102.1,141.9,102.1z M148.3,102.1    c-1.4,0-2.6,1.2-2.6,2.6c0,1.4,1.2,2.6,2.6,2.6c1.4,0,2.6-1.2,2.6-2.6C150.9,103.3,149.7,102.1,148.3,102.1z M154.6,102.1    c-1.4,0-2.6,1.2-2.6,2.6c0,1.4,1.2,2.6,2.6,2.6c1.4,0,2.6-1.2,2.6-2.6C157.2,103.3,156,102.1,154.6,102.1z M160.9,102.1    c-1.5,0-2.6,1.2-2.6,2.6c0,1.4,1.2,2.6,2.6,2.6c1.4,0,2.6-1.2,2.6-2.6C163.5,103.3,162.3,102.1,160.9,102.1z M173.5,102.1    c-1.5,0-2.6,1.2-2.6,2.6c0,1.4,1.2,2.6,2.6,2.6c1.4,0,2.6-1.2,2.6-2.6C176.1,103.3,174.9,102.1,173.5,102.1z M179.8,102.1    c-1.5,0-2.6,1.2-2.6,2.6c0,1.4,1.2,2.6,2.6,2.6c1.4,0,2.6-1.2,2.6-2.6C182.4,103.3,181.3,102.1,179.8,102.1z M198.7,102.1    c-1.5,0-2.6,1.2-2.6,2.6c0,1.4,1.2,2.6,2.6,2.6c1.4,0,2.6-1.2,2.6-2.6C201.4,103.3,200.2,102.1,198.7,102.1z M205.1,102.1    c-1.5,0-2.6,1.2-2.6,2.6c0,1.4,1.2,2.6,2.6,2.6c1.4,0,2.6-1.2,2.6-2.6C207.7,103.3,206.5,102.1,205.1,102.1z M236.6,102.1    c-1.5,0-2.6,1.2-2.6,2.6c0,1.4,1.2,2.6,2.6,2.6c1.5,0,2.6-1.2,2.6-2.6C239.2,103.3,238.1,102.1,236.6,102.1z M242.9,102.1    c-1.4,0-2.6,1.2-2.6,2.6c0,1.4,1.2,2.6,2.6,2.6c1.4,0,2.6-1.2,2.6-2.6C245.6,103.3,244.4,102.1,242.9,102.1z M261.9,102.1    c-1.5,0-2.6,1.2-2.6,2.6c0,1.4,1.2,2.6,2.6,2.6c1.4,0,2.6-1.2,2.6-2.6C264.5,103.3,263.3,102.1,261.9,102.1z M268.2,102.1    c-1.4,0-2.6,1.2-2.6,2.6c0,1.4,1.2,2.6,2.6,2.6c1.4,0,2.6-1.2,2.6-2.6C270.8,103.3,269.6,102.1,268.2,102.1z M274.5,102.1    c-1.5,0-2.6,1.2-2.6,2.6c0,1.4,1.2,2.6,2.6,2.6c1.4,0,2.6-1.2,2.6-2.6C277.1,103.3,275.9,102.1,274.5,102.1z M280.8,102.1    c-1.5,0-2.6,1.2-2.6,2.6c0,1.4,1.2,2.6,2.6,2.6c1.4,0,2.6-1.2,2.6-2.6C283.4,103.3,282.2,102.1,280.8,102.1z M3.1,108.4    c-1.5,0-2.6,1.2-2.6,2.6c0,1.4,1.2,2.6,2.6,2.6c1.4,0,2.6-1.2,2.6-2.6C5.7,109.6,4.6,108.4,3.1,108.4z M9.4,108.4    c-1.5,0-2.6,1.2-2.6,2.6c0,1.4,1.2,2.6,2.6,2.6c1.4,0,2.6-1.2,2.6-2.6C12,109.6,10.9,108.4,9.4,108.4z M15.7,108.4    c-1.5,0-2.6,1.2-2.6,2.6c0,1.4,1.2,2.6,2.6,2.6c1.4,0,2.6-1.2,2.6-2.6C18.4,109.6,17.2,108.4,15.7,108.4z M22,39    c-1.4,0-2.6,1.2-2.6,2.6c0,1.4,1.2,2.6,2.6,2.6c1.5,0,2.6-1.2,2.6-2.6C24.7,40.2,23.5,39,22,39z M22,45.3c-1.4,0-2.6,1.2-2.6,2.6    c0,1.4,1.2,2.6,2.6,2.6c1.5,0,2.6-1.2,2.6-2.6C24.7,46.5,23.5,45.3,22,45.3z M22,70.5c-1.4,0-2.6,1.2-2.6,2.6    c0,1.4,1.2,2.6,2.6,2.6c1.5,0,2.6-1.2,2.6-2.6C24.7,71.7,23.5,70.5,22,70.5z M22,76.8c-1.4,0-2.6,1.2-2.6,2.6    c0,1.4,1.2,2.6,2.6,2.6c1.5,0,2.6-1.2,2.6-2.6C24.7,78,23.5,76.8,22,76.8z M22,102.1c-1.4,0-2.6,1.2-2.6,2.6    c0,1.4,1.2,2.6,2.6,2.6c1.5,0,2.6-1.2,2.6-2.6C24.7,103.3,23.5,102.1,22,102.1z M22,108.4c-1.4,0-2.6,1.2-2.6,2.6    c0,1.4,1.2,2.6,2.6,2.6c1.5,0,2.6-1.2,2.6-2.6C24.7,109.6,23.5,108.4,22,108.4z M28.3,108.4c-1.4,0-2.6,1.2-2.6,2.6    c0,1.4,1.2,2.6,2.6,2.6c1.5,0,2.6-1.2,2.6-2.6C31,109.6,29.8,108.4,28.3,108.4z M34.7,108.4c-1.5,0-2.6,1.2-2.6,2.6    c0,1.4,1.2,2.6,2.6,2.6c1.5,0,2.6-1.2,2.6-2.6C37.3,109.6,36.1,108.4,34.7,108.4z M41,108.4c-1.4,0-2.6,1.2-2.6,2.6    c0,1.4,1.2,2.6,2.6,2.6c1.5,0,2.6-1.2,2.6-2.6C43.6,109.6,42.4,108.4,41,108.4z M47.3,108.4c-1.5,0-2.6,1.2-2.6,2.6    c0,1.4,1.2,2.6,2.6,2.6c1.4,0,2.6-1.2,2.6-2.6C49.9,109.6,48.7,108.4,47.3,108.4z M72.5,108.4c-1.4,0-2.6,1.2-2.6,2.6    c0,1.4,1.2,2.6,2.6,2.6c1.5,0,2.6-1.2,2.6-2.6C75.2,109.6,74,108.4,72.5,108.4z M78.8,108.4c-1.5,0-2.6,1.2-2.6,2.6    c0,1.4,1.2,2.6,2.6,2.6c1.4,0,2.6-1.2,2.6-2.6C81.5,109.6,80.3,108.4,78.8,108.4z M110.4,108.4c-1.4,0-2.6,1.2-2.6,2.6    c0,1.4,1.2,2.6,2.6,2.6c1.5,0,2.6-1.2,2.6-2.6C113,109.6,111.8,108.4,110.4,108.4z M116.7,108.4c-1.4,0-2.6,1.2-2.6,2.6    c0,1.4,1.2,2.6,2.6,2.6c1.4,0,2.6-1.2,2.6-2.6C119.3,109.6,118.1,108.4,116.7,108.4z M173.5,108.4c-1.5,0-2.6,1.2-2.6,2.6    c0,1.4,1.2,2.6,2.6,2.6c1.4,0,2.6-1.2,2.6-2.6C176.1,109.6,174.9,108.4,173.5,108.4z M179.8,108.4c-1.5,0-2.6,1.2-2.6,2.6    c0,1.4,1.2,2.6,2.6,2.6c1.4,0,2.6-1.2,2.6-2.6C182.4,109.6,181.3,108.4,179.8,108.4z M198.7,108.4c-1.5,0-2.6,1.2-2.6,2.6    c0,1.4,1.2,2.6,2.6,2.6c1.4,0,2.6-1.2,2.6-2.6C201.4,109.6,200.2,108.4,198.7,108.4z M205.1,108.4c-1.5,0-2.6,1.2-2.6,2.6    c0,1.4,1.2,2.6,2.6,2.6c1.4,0,2.6-1.2,2.6-2.6C207.7,109.6,206.5,108.4,205.1,108.4z M236.6,108.4c-1.5,0-2.6,1.2-2.6,2.6    c0,1.4,1.2,2.6,2.6,2.6c1.5,0,2.6-1.2,2.6-2.6C239.2,109.6,238.1,108.4,236.6,108.4z M242.9,108.4c-1.4,0-2.6,1.2-2.6,2.6    c0,1.4,1.2,2.6,2.6,2.6c1.4,0,2.6-1.2,2.6-2.6C245.6,109.6,244.4,108.4,242.9,108.4z M268.2,108.4c-1.4,0-2.6,1.2-2.6,2.6    c0,1.4,1.2,2.6,2.6,2.6c1.4,0,2.6-1.2,2.6-2.6C270.8,109.6,269.6,108.4,268.2,108.4z M274.5,108.4c-1.5,0-2.6,1.2-2.6,2.6    c0,1.4,1.2,2.6,2.6,2.6c1.4,0,2.6-1.2,2.6-2.6C277.1,109.6,275.9,108.4,274.5,108.4z M280.8,108.4c-1.5,0-2.6,1.2-2.6,2.6    c0,1.4,1.2,2.6,2.6,2.6c1.4,0,2.6-1.2,2.6-2.6C283.4,109.6,282.2,108.4,280.8,108.4z M287.1,102.1c-1.4,0-2.6,1.2-2.6,2.6    c0,1.4,1.2,2.6,2.6,2.6c1.5,0,2.6-1.2,2.6-2.6C289.7,103.3,288.6,102.1,287.1,102.1z M287.1,108.4c-1.4,0-2.6,1.2-2.6,2.6    c0,1.4,1.2,2.6,2.6,2.6c1.5,0,2.6-1.2,2.6-2.6C289.7,109.6,288.6,108.4,287.1,108.4z M173.5,114.7c-1.5,0-2.6,1.2-2.6,2.6    c0,1.4,1.2,2.6,2.6,2.6c1.4,0,2.6-1.2,2.6-2.6C176.1,115.9,174.9,114.7,173.5,114.7z M179.8,114.7c-1.5,0-2.6,1.2-2.6,2.6    c0,1.4,1.2,2.6,2.6,2.6c1.4,0,2.6-1.2,2.6-2.6C182.4,115.9,181.3,114.7,179.8,114.7z M141.9,121c-1.4,0-2.6,1.2-2.6,2.6    c0,1.4,1.2,2.6,2.6,2.6c1.4,0,2.6-1.2,2.6-2.6C144.6,122.2,143.4,121,141.9,121z M148.3,121c-1.4,0-2.6,1.2-2.6,2.6    c0,1.4,1.2,2.6,2.6,2.6c1.4,0,2.6-1.2,2.6-2.6C150.9,122.2,149.7,121,148.3,121z M154.6,121c-1.4,0-2.6,1.2-2.6,2.6    c0,1.4,1.2,2.6,2.6,2.6c1.4,0,2.6-1.2,2.6-2.6C157.2,122.2,156,121,154.6,121z M160.9,121c-1.5,0-2.6,1.2-2.6,2.6    c0,1.4,1.2,2.6,2.6,2.6c1.4,0,2.6-1.2,2.6-2.6C163.5,122.2,162.3,121,160.9,121z M173.5,121c-1.5,0-2.6,1.2-2.6,2.6    c0,1.4,1.2,2.6,2.6,2.6c1.4,0,2.6-1.2,2.6-2.6C176.1,122.2,174.9,121,173.5,121z M179.8,121c-1.5,0-2.6,1.2-2.6,2.6    c0,1.4,1.2,2.6,2.6,2.6c1.4,0,2.6-1.2,2.6-2.6C182.4,122.2,181.3,121,179.8,121z M299.7,39c-1.4,0-2.6,1.2-2.6,2.6    c0,1.4,1.2,2.6,2.6,2.6c1.5,0,2.6-1.2,2.6-2.6C302.3,40.2,301.2,39,299.7,39z M306,39c-1.5,0-2.6,1.2-2.6,2.6    c0,1.4,1.2,2.6,2.6,2.6c1.5,0,2.6-1.2,2.6-2.6C308.7,40.2,307.5,39,306,39z M299.7,32.7c-1.4,0-2.6,1.2-2.6,2.6    c0,1.4,1.2,2.6,2.6,2.6c1.5,0,2.6-1.2,2.6-2.6C302.3,33.9,301.2,32.7,299.7,32.7z M306,32.7c-1.5,0-2.6,1.2-2.6,2.6    c0,1.4,1.2,2.6,2.6,2.6c1.5,0,2.6-1.2,2.6-2.6C308.7,33.9,307.5,32.7,306,32.7z M501.7,39c-1.5,0-2.6,1.2-2.6,2.6    c0,1.4,1.2,2.6,2.6,2.6c1.4,0,2.6-1.2,2.6-2.6C504.3,40.2,503.1,39,501.7,39z M508,39c-1.5,0-2.6,1.2-2.6,2.6    c0,1.4,1.2,2.6,2.6,2.6c1.5,0,2.6-1.2,2.6-2.6C510.6,40.2,509.4,39,508,39z M501.7,32.7c-1.5,0-2.6,1.2-2.6,2.6    c0,1.4,1.2,2.6,2.6,2.6c1.4,0,2.6-1.2,2.6-2.6C504.3,33.9,503.1,32.7,501.7,32.7z M508,32.7c-1.5,0-2.6,1.2-2.6,2.6    c0,1.4,1.2,2.6,2.6,2.6c1.5,0,2.6-1.2,2.6-2.6C510.6,33.9,509.4,32.7,508,32.7z M299.7,45.3c-1.4,0-2.6,1.2-2.6,2.6    c0,1.5,1.2,2.6,2.6,2.6c1.5,0,2.6-1.2,2.6-2.6C302.3,46.5,301.2,45.3,299.7,45.3z M306,45.3c-1.5,0-2.6,1.2-2.6,2.6    c0,1.5,1.2,2.6,2.6,2.6c1.5,0,2.6-1.2,2.6-2.6C308.7,46.5,307.5,45.3,306,45.3z M501.7,45.3c-1.5,0-2.6,1.2-2.6,2.6    c0,1.5,1.2,2.6,2.6,2.6c1.4,0,2.6-1.2,2.6-2.6C504.3,46.5,503.1,45.3,501.7,45.3z M508,45.3c-1.5,0-2.6,1.2-2.6,2.6    c0,1.5,1.2,2.6,2.6,2.6s2.6-1.2,2.6-2.6C510.6,46.5,509.4,45.3,508,45.3z M299.7,51.6c-1.4,0-2.6,1.2-2.6,2.6    c0,1.5,1.2,2.6,2.6,2.6c1.5,0,2.6-1.2,2.6-2.6C302.3,52.8,301.2,51.6,299.7,51.6z M306,51.6c-1.5,0-2.6,1.2-2.6,2.6    c0,1.5,1.2,2.6,2.6,2.6c1.5,0,2.6-1.2,2.6-2.6C308.7,52.8,307.5,51.6,306,51.6z M343.9,51.6c-1.5,0-2.6,1.2-2.6,2.6    c0,1.5,1.2,2.6,2.6,2.6c1.5,0,2.6-1.2,2.6-2.6C346.5,52.8,345.3,51.6,343.9,51.6z M350.2,51.6c-1.5,0-2.6,1.2-2.6,2.6    c0,1.5,1.2,2.6,2.6,2.6c1.5,0,2.6-1.2,2.6-2.6C352.8,52.8,351.7,51.6,350.2,51.6z M356.5,51.6c-1.4,0-2.6,1.2-2.6,2.6    c0,1.5,1.2,2.6,2.6,2.6c1.5,0,2.6-1.2,2.6-2.6C359.2,52.8,358,51.6,356.5,51.6z M369.1,51.6c-1.5,0-2.6,1.2-2.6,2.6    c0,1.5,1.2,2.6,2.6,2.6c1.4,0,2.6-1.2,2.6-2.6C371.8,52.8,370.6,51.6,369.1,51.6z M375.5,51.6c-1.4,0-2.6,1.2-2.6,2.6    c0,1.5,1.2,2.6,2.6,2.6c1.4,0,2.6-1.2,2.6-2.6C378.1,52.8,376.9,51.6,375.5,51.6z M400.7,51.6c-1.4,0-2.6,1.2-2.6,2.6    c0,1.5,1.2,2.6,2.6,2.6c1.4,0,2.6-1.2,2.6-2.6C403.3,52.8,402.1,51.6,400.7,51.6z M407,51.6c-1.5,0-2.6,1.2-2.6,2.6    c0,1.5,1.2,2.6,2.6,2.6c1.4,0,2.6-1.2,2.6-2.6C409.6,52.8,408.5,51.6,407,51.6z M413.3,51.6c-1.5,0-2.6,1.2-2.6,2.6    c0,1.5,1.2,2.6,2.6,2.6c1.4,0,2.6-1.2,2.6-2.6C415.9,52.8,414.8,51.6,413.3,51.6z M425.9,51.6c-1.5,0-2.6,1.2-2.6,2.6    c0,1.5,1.2,2.6,2.6,2.6c1.4,0,2.6-1.2,2.6-2.6C428.6,52.8,427.4,51.6,425.9,51.6z M432.2,51.6c-1.5,0-2.6,1.2-2.6,2.6    c0,1.5,1.2,2.6,2.6,2.6c1.4,0,2.6-1.2,2.6-2.6C434.9,52.8,433.7,51.6,432.2,51.6z M438.6,51.6c-1.5,0-2.6,1.2-2.6,2.6    c0,1.5,1.2,2.6,2.6,2.6c1.4,0,2.6-1.2,2.6-2.6C441.2,52.8,440,51.6,438.6,51.6z M470.1,51.6c-1.4,0-2.6,1.2-2.6,2.6    c0,1.5,1.2,2.6,2.6,2.6c1.5,0,2.6-1.2,2.6-2.6C472.7,52.8,471.6,51.6,470.1,51.6z M476.4,51.6c-1.4,0-2.6,1.2-2.6,2.6    c0,1.5,1.2,2.6,2.6,2.6c1.4,0,2.6-1.2,2.6-2.6C479.1,52.8,477.9,51.6,476.4,51.6z M482.7,51.6c-1.4,0-2.6,1.2-2.6,2.6    c0,1.5,1.2,2.6,2.6,2.6c1.5,0,2.6-1.2,2.6-2.6C485.4,52.8,484.2,51.6,482.7,51.6z M495.4,51.6c-1.5,0-2.6,1.2-2.6,2.6    c0,1.5,1.2,2.6,2.6,2.6c1.4,0,2.6-1.2,2.6-2.6C498,52.8,496.8,51.6,495.4,51.6z M501.7,51.6c-1.5,0-2.6,1.2-2.6,2.6    c0,1.5,1.2,2.6,2.6,2.6c1.4,0,2.6-1.2,2.6-2.6C504.3,52.8,503.1,51.6,501.7,51.6z M508,51.6c-1.5,0-2.6,1.2-2.6,2.6    c0,1.5,1.2,2.6,2.6,2.6s2.6-1.2,2.6-2.6C510.6,52.8,509.4,51.6,508,51.6z M533.2,51.6c-1.4,0-2.6,1.2-2.6,2.6    c0,1.5,1.2,2.6,2.6,2.6c1.5,0,2.6-1.2,2.6-2.6C535.9,52.8,534.7,51.6,533.2,51.6z M539.5,51.6c-1.4,0-2.6,1.2-2.6,2.6    c0,1.5,1.2,2.6,2.6,2.6c1.5,0,2.6-1.2,2.6-2.6C542.2,52.8,541,51.6,539.5,51.6z M552.2,51.6c-1.4,0-2.6,1.2-2.6,2.6    c0,1.5,1.2,2.6,2.6,2.6c1.5,0,2.6-1.2,2.6-2.6C554.8,52.8,553.6,51.6,552.2,51.6z M558.5,51.6c-1.4,0-2.6,1.2-2.6,2.6    c0,1.5,1.2,2.6,2.6,2.6c1.5,0,2.6-1.2,2.6-2.6C561.1,52.8,559.9,51.6,558.5,51.6z M564.8,51.6c-1.4,0-2.6,1.2-2.6,2.6    c0,1.5,1.2,2.6,2.6,2.6c1.5,0,2.6-1.2,2.6-2.6C567.4,52.8,566.2,51.6,564.8,51.6z M299.7,57.9c-1.4,0-2.6,1.2-2.6,2.6    c0,1.5,1.2,2.6,2.6,2.6c1.5,0,2.6-1.2,2.6-2.6C302.3,59.1,301.2,57.9,299.7,57.9z M306,57.9c-1.5,0-2.6,1.2-2.6,2.6    c0,1.5,1.2,2.6,2.6,2.6c1.5,0,2.6-1.2,2.6-2.6C308.7,59.1,307.5,57.9,306,57.9z M343.9,57.9c-1.5,0-2.6,1.2-2.6,2.6    c0,1.5,1.2,2.6,2.6,2.6c1.5,0,2.6-1.2,2.6-2.6C346.5,59.1,345.3,57.9,343.9,57.9z M350.2,57.9c-1.5,0-2.6,1.2-2.6,2.6    c0,1.5,1.2,2.6,2.6,2.6c1.5,0,2.6-1.2,2.6-2.6C352.8,59.1,351.7,57.9,350.2,57.9z M356.5,57.9c-1.4,0-2.6,1.2-2.6,2.6    c0,1.5,1.2,2.6,2.6,2.6c1.5,0,2.6-1.2,2.6-2.6C359.2,59.1,358,57.9,356.5,57.9z M369.1,57.9c-1.5,0-2.6,1.2-2.6,2.6    c0,1.5,1.2,2.6,2.6,2.6c1.4,0,2.6-1.2,2.6-2.6C371.8,59.1,370.6,57.9,369.1,57.9z M375.5,57.9c-1.4,0-2.6,1.2-2.6,2.6    c0,1.5,1.2,2.6,2.6,2.6c1.4,0,2.6-1.2,2.6-2.6C378.1,59.1,376.9,57.9,375.5,57.9z M381.8,57.9c-1.5,0-2.6,1.2-2.6,2.6    c0,1.5,1.2,2.6,2.6,2.6c1.4,0,2.6-1.2,2.6-2.6C384.4,59.1,383.2,57.9,381.8,57.9z M400.7,57.9c-1.4,0-2.6,1.2-2.6,2.6    c0,1.5,1.2,2.6,2.6,2.6c1.4,0,2.6-1.2,2.6-2.6C403.3,59.1,402.1,57.9,400.7,57.9z M407,57.9c-1.5,0-2.6,1.2-2.6,2.6    c0,1.5,1.2,2.6,2.6,2.6c1.4,0,2.6-1.2,2.6-2.6C409.6,59.1,408.5,57.9,407,57.9z M413.3,57.9c-1.5,0-2.6,1.2-2.6,2.6    c0,1.5,1.2,2.6,2.6,2.6c1.4,0,2.6-1.2,2.6-2.6C415.9,59.1,414.8,57.9,413.3,57.9z M419.6,51.6c-1.5,0-2.6,1.2-2.6,2.6    c0,1.5,1.2,2.6,2.6,2.6c1.5,0,2.6-1.2,2.6-2.6C422.3,52.8,421.1,51.6,419.6,51.6z M419.6,57.9c-1.5,0-2.6,1.2-2.6,2.6    c0,1.5,1.2,2.6,2.6,2.6c1.5,0,2.6-1.2,2.6-2.6C422.3,59.1,421.1,57.9,419.6,57.9z M425.9,57.9c-1.5,0-2.6,1.2-2.6,2.6    c0,1.5,1.2,2.6,2.6,2.6c1.4,0,2.6-1.2,2.6-2.6C428.6,59.1,427.4,57.9,425.9,57.9z M432.2,57.9c-1.5,0-2.6,1.2-2.6,2.6    c0,1.5,1.2,2.6,2.6,2.6c1.4,0,2.6-1.2,2.6-2.6C434.9,59.1,433.7,57.9,432.2,57.9z M438.6,57.9c-1.5,0-2.6,1.2-2.6,2.6    c0,1.5,1.2,2.6,2.6,2.6c1.4,0,2.6-1.2,2.6-2.6C441.2,59.1,440,57.9,438.6,57.9z M444.9,57.9c-1.4,0-2.6,1.2-2.6,2.6    c0,1.5,1.2,2.6,2.6,2.6c1.4,0,2.6-1.2,2.6-2.6C447.5,59.1,446.3,57.9,444.9,57.9z M463.8,57.9c-1.5,0-2.6,1.2-2.6,2.6    c0,1.5,1.2,2.6,2.6,2.6c1.4,0,2.6-1.2,2.6-2.6C466.4,59.1,465.3,57.9,463.8,57.9z M470.1,57.9c-1.4,0-2.6,1.2-2.6,2.6    c0,1.5,1.2,2.6,2.6,2.6c1.5,0,2.6-1.2,2.6-2.6C472.7,59.1,471.6,57.9,470.1,57.9z M476.4,57.9c-1.4,0-2.6,1.2-2.6,2.6    c0,1.5,1.2,2.6,2.6,2.6c1.4,0,2.6-1.2,2.6-2.6C479.1,59.1,477.9,57.9,476.4,57.9z M482.7,57.9c-1.4,0-2.6,1.2-2.6,2.6    c0,1.5,1.2,2.6,2.6,2.6c1.5,0,2.6-1.2,2.6-2.6C485.4,59.1,484.2,57.9,482.7,57.9z M495.4,57.9c-1.5,0-2.6,1.2-2.6,2.6    c0,1.5,1.2,2.6,2.6,2.6c1.4,0,2.6-1.2,2.6-2.6C498,59.1,496.8,57.9,495.4,57.9z M501.7,57.9c-1.5,0-2.6,1.2-2.6,2.6    c0,1.5,1.2,2.6,2.6,2.6c1.4,0,2.6-1.2,2.6-2.6C504.3,59.1,503.1,57.9,501.7,57.9z M508,57.9c-1.5,0-2.6,1.2-2.6,2.6    c0,1.5,1.2,2.6,2.6,2.6s2.6-1.2,2.6-2.6C510.6,59.1,509.4,57.9,508,57.9z M526.9,57.9c-1.4,0-2.6,1.2-2.6,2.6    c0,1.5,1.2,2.6,2.6,2.6c1.4,0,2.6-1.2,2.6-2.6C529.5,59.1,528.4,57.9,526.9,57.9z M533.2,57.9c-1.4,0-2.6,1.2-2.6,2.6    c0,1.5,1.2,2.6,2.6,2.6c1.5,0,2.6-1.2,2.6-2.6C535.9,59.1,534.7,57.9,533.2,57.9z M539.5,57.9c-1.4,0-2.6,1.2-2.6,2.6    c0,1.5,1.2,2.6,2.6,2.6c1.5,0,2.6-1.2,2.6-2.6C542.2,59.1,541,57.9,539.5,57.9z M552.2,57.9c-1.4,0-2.6,1.2-2.6,2.6    c0,1.5,1.2,2.6,2.6,2.6c1.5,0,2.6-1.2,2.6-2.6C554.8,59.1,553.6,57.9,552.2,57.9z M558.5,57.9c-1.4,0-2.6,1.2-2.6,2.6    c0,1.5,1.2,2.6,2.6,2.6c1.5,0,2.6-1.2,2.6-2.6C561.1,59.1,559.9,57.9,558.5,57.9z M564.8,57.9c-1.4,0-2.6,1.2-2.6,2.6    c0,1.5,1.2,2.6,2.6,2.6c1.5,0,2.6-1.2,2.6-2.6C567.4,59.1,566.2,57.9,564.8,57.9z M299.7,64.2c-1.4,0-2.6,1.2-2.6,2.6    c0,1.4,1.2,2.6,2.6,2.6c1.5,0,2.6-1.2,2.6-2.6C302.3,65.4,301.2,64.2,299.7,64.2z M306,64.2c-1.5,0-2.6,1.2-2.6,2.6    c0,1.4,1.2,2.6,2.6,2.6c1.5,0,2.6-1.2,2.6-2.6C308.7,65.4,307.5,64.2,306,64.2z M375.5,64.2c-1.4,0-2.6,1.2-2.6,2.6    c0,1.4,1.2,2.6,2.6,2.6c1.4,0,2.6-1.2,2.6-2.6C378.1,65.4,376.9,64.2,375.5,64.2z M381.8,64.2c-1.5,0-2.6,1.2-2.6,2.6    c0,1.4,1.2,2.6,2.6,2.6c1.4,0,2.6-1.2,2.6-2.6C384.4,65.4,383.2,64.2,381.8,64.2z M400.7,64.2c-1.4,0-2.6,1.2-2.6,2.6    c0,1.4,1.2,2.6,2.6,2.6c1.4,0,2.6-1.2,2.6-2.6C403.3,65.4,402.1,64.2,400.7,64.2z M407,64.2c-1.5,0-2.6,1.2-2.6,2.6    c0,1.4,1.2,2.6,2.6,2.6c1.4,0,2.6-1.2,2.6-2.6C409.6,65.4,408.5,64.2,407,64.2z M438.6,64.2c-1.5,0-2.6,1.2-2.6,2.6    c0,1.4,1.2,2.6,2.6,2.6c1.4,0,2.6-1.2,2.6-2.6C441.2,65.4,440,64.2,438.6,64.2z M444.9,64.2c-1.4,0-2.6,1.2-2.6,2.6    c0,1.4,1.2,2.6,2.6,2.6c1.4,0,2.6-1.2,2.6-2.6C447.5,65.4,446.3,64.2,444.9,64.2z M463.8,64.2c-1.5,0-2.6,1.2-2.6,2.6    c0,1.4,1.2,2.6,2.6,2.6c1.4,0,2.6-1.2,2.6-2.6C466.4,65.4,465.3,64.2,463.8,64.2z M470.1,64.2c-1.4,0-2.6,1.2-2.6,2.6    c0,1.4,1.2,2.6,2.6,2.6c1.5,0,2.6-1.2,2.6-2.6C472.7,65.4,471.6,64.2,470.1,64.2z M501.7,64.2c-1.5,0-2.6,1.2-2.6,2.6    c0,1.4,1.2,2.6,2.6,2.6c1.4,0,2.6-1.2,2.6-2.6C504.3,65.4,503.1,64.2,501.7,64.2z M508,64.2c-1.5,0-2.6,1.2-2.6,2.6    c0,1.4,1.2,2.6,2.6,2.6s2.6-1.2,2.6-2.6C510.6,65.4,509.4,64.2,508,64.2z M526.9,64.2c-1.4,0-2.6,1.2-2.6,2.6    c0,1.4,1.2,2.6,2.6,2.6c1.4,0,2.6-1.2,2.6-2.6C529.5,65.4,528.4,64.2,526.9,64.2z M533.2,64.2c-1.4,0-2.6,1.2-2.6,2.6    c0,1.4,1.2,2.6,2.6,2.6c1.5,0,2.6-1.2,2.6-2.6C535.9,65.4,534.7,64.2,533.2,64.2z M299.7,70.5c-1.4,0-2.6,1.2-2.6,2.6    c0,1.4,1.2,2.6,2.6,2.6c1.5,0,2.6-1.2,2.6-2.6C302.3,71.7,301.2,70.5,299.7,70.5z M306,70.5c-1.5,0-2.6,1.2-2.6,2.6    c0,1.4,1.2,2.6,2.6,2.6c1.5,0,2.6-1.2,2.6-2.6C308.7,71.7,307.5,70.5,306,70.5z M375.5,70.5c-1.4,0-2.6,1.2-2.6,2.6    c0,1.4,1.2,2.6,2.6,2.6c1.4,0,2.6-1.2,2.6-2.6C378.1,71.7,376.9,70.5,375.5,70.5z M381.8,70.5c-1.5,0-2.6,1.2-2.6,2.6    c0,1.4,1.2,2.6,2.6,2.6c1.4,0,2.6-1.2,2.6-2.6C384.4,71.7,383.2,70.5,381.8,70.5z M400.7,70.5c-1.4,0-2.6,1.2-2.6,2.6    c0,1.4,1.2,2.6,2.6,2.6c1.4,0,2.6-1.2,2.6-2.6C403.3,71.7,402.1,70.5,400.7,70.5z M407,70.5c-1.5,0-2.6,1.2-2.6,2.6    c0,1.4,1.2,2.6,2.6,2.6c1.4,0,2.6-1.2,2.6-2.6C409.6,71.7,408.5,70.5,407,70.5z M438.6,70.5c-1.5,0-2.6,1.2-2.6,2.6    c0,1.4,1.2,2.6,2.6,2.6c1.4,0,2.6-1.2,2.6-2.6C441.2,71.7,440,70.5,438.6,70.5z M444.9,70.5c-1.4,0-2.6,1.2-2.6,2.6    c0,1.4,1.2,2.6,2.6,2.6c1.4,0,2.6-1.2,2.6-2.6C447.5,71.7,446.3,70.5,444.9,70.5z M463.8,70.5c-1.5,0-2.6,1.2-2.6,2.6    c0,1.4,1.2,2.6,2.6,2.6c1.4,0,2.6-1.2,2.6-2.6C466.4,71.7,465.3,70.5,463.8,70.5z M470.1,70.5c-1.4,0-2.6,1.2-2.6,2.6    c0,1.4,1.2,2.6,2.6,2.6c1.5,0,2.6-1.2,2.6-2.6C472.7,71.7,471.6,70.5,470.1,70.5z M501.7,70.5c-1.5,0-2.6,1.2-2.6,2.6    c0,1.4,1.2,2.6,2.6,2.6c1.4,0,2.6-1.2,2.6-2.6C504.3,71.7,503.1,70.5,501.7,70.5z M508,70.5c-1.5,0-2.6,1.2-2.6,2.6    c0,1.4,1.2,2.6,2.6,2.6s2.6-1.2,2.6-2.6C510.6,71.7,509.4,70.5,508,70.5z M526.9,70.5c-1.4,0-2.6,1.2-2.6,2.6    c0,1.4,1.2,2.6,2.6,2.6c1.4,0,2.6-1.2,2.6-2.6C529.5,71.7,528.4,70.5,526.9,70.5z M533.2,70.5c-1.4,0-2.6,1.2-2.6,2.6    c0,1.4,1.2,2.6,2.6,2.6c1.5,0,2.6-1.2,2.6-2.6C535.9,71.7,534.7,70.5,533.2,70.5z M299.7,76.8c-1.4,0-2.6,1.2-2.6,2.6    c0,1.5,1.2,2.6,2.6,2.6c1.5,0,2.6-1.2,2.6-2.6C302.3,78,301.2,76.8,299.7,76.8z M306,76.8c-1.5,0-2.6,1.2-2.6,2.6    c0,1.5,1.2,2.6,2.6,2.6c1.5,0,2.6-1.2,2.6-2.6C308.7,78,307.5,76.8,306,76.8z M337.6,76.8c-1.4,0-2.6,1.2-2.6,2.6    c0,1.5,1.2,2.6,2.6,2.6c1.5,0,2.6-1.2,2.6-2.6C340.2,78,339,76.8,337.6,76.8z M343.9,76.8c-1.5,0-2.6,1.2-2.6,2.6    c0,1.5,1.2,2.6,2.6,2.6c1.5,0,2.6-1.2,2.6-2.6C346.5,78,345.3,76.8,343.9,76.8z M350.2,76.8c-1.5,0-2.6,1.2-2.6,2.6    c0,1.5,1.2,2.6,2.6,2.6c1.5,0,2.6-1.2,2.6-2.6C352.8,78,351.7,76.8,350.2,76.8z M356.5,76.8c-1.4,0-2.6,1.2-2.6,2.6    c0,1.5,1.2,2.6,2.6,2.6c1.5,0,2.6-1.2,2.6-2.6C359.2,78,358,76.8,356.5,76.8z M369.1,76.8c-1.5,0-2.6,1.2-2.6,2.6    c0,1.5,1.2,2.6,2.6,2.6c1.4,0,2.6-1.2,2.6-2.6C371.8,78,370.6,76.8,369.1,76.8z M375.5,76.8c-1.4,0-2.6,1.2-2.6,2.6    c0,1.5,1.2,2.6,2.6,2.6c1.4,0,2.6-1.2,2.6-2.6C378.1,78,376.9,76.8,375.5,76.8z M381.8,76.8c-1.5,0-2.6,1.2-2.6,2.6    c0,1.5,1.2,2.6,2.6,2.6c1.4,0,2.6-1.2,2.6-2.6C384.4,78,383.2,76.8,381.8,76.8z M400.7,76.8c-1.4,0-2.6,1.2-2.6,2.6    c0,1.5,1.2,2.6,2.6,2.6c1.4,0,2.6-1.2,2.6-2.6C403.3,78,402.1,76.8,400.7,76.8z M407,76.8c-1.5,0-2.6,1.2-2.6,2.6    c0,1.5,1.2,2.6,2.6,2.6c1.4,0,2.6-1.2,2.6-2.6C409.6,78,408.5,76.8,407,76.8z M438.6,76.8c-1.5,0-2.6,1.2-2.6,2.6    c0,1.5,1.2,2.6,2.6,2.6c1.4,0,2.6-1.2,2.6-2.6C441.2,78,440,76.8,438.6,76.8z M444.9,76.8c-1.4,0-2.6,1.2-2.6,2.6    c0,1.5,1.2,2.6,2.6,2.6c1.4,0,2.6-1.2,2.6-2.6C447.5,78,446.3,76.8,444.9,76.8z M463.8,76.8c-1.5,0-2.6,1.2-2.6,2.6    c0,1.5,1.2,2.6,2.6,2.6c1.4,0,2.6-1.2,2.6-2.6C466.4,78,465.3,76.8,463.8,76.8z M470.1,76.8c-1.4,0-2.6,1.2-2.6,2.6    c0,1.5,1.2,2.6,2.6,2.6c1.5,0,2.6-1.2,2.6-2.6C472.7,78,471.6,76.8,470.1,76.8z M501.7,76.8c-1.5,0-2.6,1.2-2.6,2.6    c0,1.5,1.2,2.6,2.6,2.6c1.4,0,2.6-1.2,2.6-2.6C504.3,78,503.1,76.8,501.7,76.8z M508,76.8c-1.5,0-2.6,1.2-2.6,2.6    c0,1.5,1.2,2.6,2.6,2.6s2.6-1.2,2.6-2.6C510.6,78,509.4,76.8,508,76.8z M526.9,76.8c-1.4,0-2.6,1.2-2.6,2.6c0,1.5,1.2,2.6,2.6,2.6    c1.4,0,2.6-1.2,2.6-2.6C529.5,78,528.4,76.8,526.9,76.8z M533.2,76.8c-1.4,0-2.6,1.2-2.6,2.6c0,1.5,1.2,2.6,2.6,2.6    c1.5,0,2.6-1.2,2.6-2.6C535.9,78,534.7,76.8,533.2,76.8z M539.5,76.8c-1.4,0-2.6,1.2-2.6,2.6c0,1.5,1.2,2.6,2.6,2.6    c1.5,0,2.6-1.2,2.6-2.6C542.2,78,541,76.8,539.5,76.8z M552.2,76.8c-1.4,0-2.6,1.2-2.6,2.6c0,1.5,1.2,2.6,2.6,2.6    c1.5,0,2.6-1.2,2.6-2.6C554.8,78,553.6,76.8,552.2,76.8z M558.5,76.8c-1.4,0-2.6,1.2-2.6,2.6c0,1.5,1.2,2.6,2.6,2.6    c1.5,0,2.6-1.2,2.6-2.6C561.1,78,559.9,76.8,558.5,76.8z M299.7,83.2c-1.4,0-2.6,1.2-2.6,2.6c0,1.5,1.2,2.6,2.6,2.6    c1.5,0,2.6-1.2,2.6-2.6C302.3,84.3,301.2,83.2,299.7,83.2z M306,83.2c-1.5,0-2.6,1.2-2.6,2.6c0,1.5,1.2,2.6,2.6,2.6    c1.5,0,2.6-1.2,2.6-2.6C308.7,84.3,307.5,83.2,306,83.2z M337.6,83.2c-1.4,0-2.6,1.2-2.6,2.6c0,1.5,1.2,2.6,2.6,2.6    c1.5,0,2.6-1.2,2.6-2.6C340.2,84.3,339,83.2,337.6,83.2z M343.9,83.2c-1.5,0-2.6,1.2-2.6,2.6c0,1.5,1.2,2.6,2.6,2.6    c1.5,0,2.6-1.2,2.6-2.6C346.5,84.3,345.3,83.2,343.9,83.2z M350.2,83.2c-1.5,0-2.6,1.2-2.6,2.6c0,1.5,1.2,2.6,2.6,2.6    c1.5,0,2.6-1.2,2.6-2.6C352.8,84.3,351.7,83.2,350.2,83.2z M356.5,83.2c-1.4,0-2.6,1.2-2.6,2.6c0,1.5,1.2,2.6,2.6,2.6    c1.5,0,2.6-1.2,2.6-2.6C359.2,84.3,358,83.2,356.5,83.2z M369.1,83.2c-1.5,0-2.6,1.2-2.6,2.6c0,1.5,1.2,2.6,2.6,2.6    c1.4,0,2.6-1.2,2.6-2.6C371.8,84.3,370.6,83.2,369.1,83.2z M375.5,83.2c-1.4,0-2.6,1.2-2.6,2.6c0,1.5,1.2,2.6,2.6,2.6    c1.4,0,2.6-1.2,2.6-2.6C378.1,84.3,376.9,83.2,375.5,83.2z M381.8,83.2c-1.5,0-2.6,1.2-2.6,2.6c0,1.5,1.2,2.6,2.6,2.6    c1.4,0,2.6-1.2,2.6-2.6C384.4,84.3,383.2,83.2,381.8,83.2z M400.7,83.2c-1.4,0-2.6,1.2-2.6,2.6c0,1.5,1.2,2.6,2.6,2.6    c1.4,0,2.6-1.2,2.6-2.6C403.3,84.3,402.1,83.2,400.7,83.2z M407,83.2c-1.5,0-2.6,1.2-2.6,2.6c0,1.5,1.2,2.6,2.6,2.6    c1.4,0,2.6-1.2,2.6-2.6C409.6,84.3,408.5,83.2,407,83.2z M438.6,83.2c-1.5,0-2.6,1.2-2.6,2.6c0,1.5,1.2,2.6,2.6,2.6    c1.4,0,2.6-1.2,2.6-2.6C441.2,84.3,440,83.2,438.6,83.2z M444.9,83.2c-1.4,0-2.6,1.2-2.6,2.6c0,1.5,1.2,2.6,2.6,2.6    c1.4,0,2.6-1.2,2.6-2.6C447.5,84.3,446.3,83.2,444.9,83.2z M463.8,83.2c-1.5,0-2.6,1.2-2.6,2.6c0,1.5,1.2,2.6,2.6,2.6    c1.4,0,2.6-1.2,2.6-2.6C466.4,84.3,465.3,83.2,463.8,83.2z M470.1,83.2c-1.4,0-2.6,1.2-2.6,2.6c0,1.5,1.2,2.6,2.6,2.6    c1.5,0,2.6-1.2,2.6-2.6C472.7,84.3,471.6,83.2,470.1,83.2z M501.7,83.2c-1.5,0-2.6,1.2-2.6,2.6c0,1.5,1.2,2.6,2.6,2.6    c1.4,0,2.6-1.2,2.6-2.6C504.3,84.3,503.1,83.2,501.7,83.2z M508,83.2c-1.5,0-2.6,1.2-2.6,2.6c0,1.5,1.2,2.6,2.6,2.6    s2.6-1.2,2.6-2.6C510.6,84.3,509.4,83.2,508,83.2z M526.9,83.2c-1.4,0-2.6,1.2-2.6,2.6c0,1.5,1.2,2.6,2.6,2.6    c1.4,0,2.6-1.2,2.6-2.6C529.5,84.3,528.4,83.2,526.9,83.2z M533.2,83.2c-1.4,0-2.6,1.2-2.6,2.6c0,1.5,1.2,2.6,2.6,2.6    c1.5,0,2.6-1.2,2.6-2.6C535.9,84.3,534.7,83.2,533.2,83.2z M539.5,83.2c-1.4,0-2.6,1.2-2.6,2.6c0,1.5,1.2,2.6,2.6,2.6    c1.5,0,2.6-1.2,2.6-2.6C542.2,84.3,541,83.2,539.5,83.2z M552.2,83.2c-1.4,0-2.6,1.2-2.6,2.6c0,1.5,1.2,2.6,2.6,2.6    c1.5,0,2.6-1.2,2.6-2.6C554.8,84.3,553.6,83.2,552.2,83.2z M558.5,83.2c-1.4,0-2.6,1.2-2.6,2.6c0,1.5,1.2,2.6,2.6,2.6    c1.5,0,2.6-1.2,2.6-2.6C561.1,84.3,559.9,83.2,558.5,83.2z M564.8,83.2c-1.4,0-2.6,1.2-2.6,2.6c0,1.5,1.2,2.6,2.6,2.6    c1.5,0,2.6-1.2,2.6-2.6C567.4,84.3,566.2,83.2,564.8,83.2z M299.7,89.5c-1.4,0-2.6,1.2-2.6,2.6c0,1.4,1.2,2.6,2.6,2.6    c1.5,0,2.6-1.2,2.6-2.6C302.3,90.6,301.2,89.5,299.7,89.5z M306,89.5c-1.5,0-2.6,1.2-2.6,2.6c0,1.4,1.2,2.6,2.6,2.6    c1.5,0,2.6-1.2,2.6-2.6C308.7,90.6,307.5,89.5,306,89.5z M337.6,89.5c-1.4,0-2.6,1.2-2.6,2.6c0,1.4,1.2,2.6,2.6,2.6    c1.5,0,2.6-1.2,2.6-2.6C340.2,90.6,339,89.5,337.6,89.5z M343.9,89.5c-1.5,0-2.6,1.2-2.6,2.6c0,1.4,1.2,2.6,2.6,2.6    c1.5,0,2.6-1.2,2.6-2.6C346.5,90.6,345.3,89.5,343.9,89.5z M375.5,89.5c-1.4,0-2.6,1.2-2.6,2.6c0,1.4,1.2,2.6,2.6,2.6    c1.4,0,2.6-1.2,2.6-2.6C378.1,90.6,376.9,89.5,375.5,89.5z M381.8,89.5c-1.5,0-2.6,1.2-2.6,2.6c0,1.4,1.2,2.6,2.6,2.6    c1.4,0,2.6-1.2,2.6-2.6C384.4,90.6,383.2,89.5,381.8,89.5z M400.7,89.5c-1.4,0-2.6,1.2-2.6,2.6c0,1.4,1.2,2.6,2.6,2.6    c1.4,0,2.6-1.2,2.6-2.6C403.3,90.6,402.1,89.5,400.7,89.5z M407,89.5c-1.5,0-2.6,1.2-2.6,2.6c0,1.4,1.2,2.6,2.6,2.6    c1.4,0,2.6-1.2,2.6-2.6C409.6,90.6,408.5,89.5,407,89.5z M438.6,89.5c-1.5,0-2.6,1.2-2.6,2.6c0,1.4,1.2,2.6,2.6,2.6    c1.4,0,2.6-1.2,2.6-2.6C441.2,90.6,440,89.5,438.6,89.5z M444.9,89.5c-1.4,0-2.6,1.2-2.6,2.6c0,1.4,1.2,2.6,2.6,2.6    c1.4,0,2.6-1.2,2.6-2.6C447.5,90.6,446.3,89.5,444.9,89.5z M463.8,89.5c-1.5,0-2.6,1.2-2.6,2.6c0,1.4,1.2,2.6,2.6,2.6    c1.4,0,2.6-1.2,2.6-2.6C466.4,90.6,465.3,89.5,463.8,89.5z M470.1,89.5c-1.4,0-2.6,1.2-2.6,2.6c0,1.4,1.2,2.6,2.6,2.6    c1.5,0,2.6-1.2,2.6-2.6C472.7,90.6,471.6,89.5,470.1,89.5z M501.7,89.5c-1.5,0-2.6,1.2-2.6,2.6c0,1.4,1.2,2.6,2.6,2.6    c1.4,0,2.6-1.2,2.6-2.6C504.3,90.6,503.1,89.5,501.7,89.5z M508,89.5c-1.5,0-2.6,1.2-2.6,2.6c0,1.4,1.2,2.6,2.6,2.6    s2.6-1.2,2.6-2.6C510.6,90.6,509.4,89.5,508,89.5z M558.5,89.5c-1.4,0-2.6,1.2-2.6,2.6c0,1.4,1.2,2.6,2.6,2.6    c1.5,0,2.6-1.2,2.6-2.6C561.1,90.6,559.9,89.5,558.5,89.5z M564.8,89.5c-1.4,0-2.6,1.2-2.6,2.6c0,1.4,1.2,2.6,2.6,2.6    c1.5,0,2.6-1.2,2.6-2.6C567.4,90.6,566.2,89.5,564.8,89.5z M299.7,95.8c-1.4,0-2.6,1.2-2.6,2.6c0,1.4,1.2,2.6,2.6,2.6    c1.5,0,2.6-1.2,2.6-2.6C302.3,97,301.2,95.8,299.7,95.8z M306,95.8c-1.5,0-2.6,1.2-2.6,2.6c0,1.4,1.2,2.6,2.6,2.6    c1.5,0,2.6-1.2,2.6-2.6C308.7,97,307.5,95.8,306,95.8z M337.6,95.8c-1.4,0-2.6,1.2-2.6,2.6c0,1.4,1.2,2.6,2.6,2.6    c1.5,0,2.6-1.2,2.6-2.6C340.2,97,339,95.8,337.6,95.8z M343.9,95.8c-1.5,0-2.6,1.2-2.6,2.6c0,1.4,1.2,2.6,2.6,2.6    c1.5,0,2.6-1.2,2.6-2.6C346.5,97,345.3,95.8,343.9,95.8z M375.5,95.8c-1.4,0-2.6,1.2-2.6,2.6c0,1.4,1.2,2.6,2.6,2.6    c1.4,0,2.6-1.2,2.6-2.6C378.1,97,376.9,95.8,375.5,95.8z M381.8,95.8c-1.5,0-2.6,1.2-2.6,2.6c0,1.4,1.2,2.6,2.6,2.6    c1.4,0,2.6-1.2,2.6-2.6C384.4,97,383.2,95.8,381.8,95.8z M400.7,95.8c-1.4,0-2.6,1.2-2.6,2.6c0,1.4,1.2,2.6,2.6,2.6    c1.4,0,2.6-1.2,2.6-2.6C403.3,97,402.1,95.8,400.7,95.8z M407,95.8c-1.5,0-2.6,1.2-2.6,2.6c0,1.4,1.2,2.6,2.6,2.6    c1.4,0,2.6-1.2,2.6-2.6C409.6,97,408.5,95.8,407,95.8z M438.6,95.8c-1.5,0-2.6,1.2-2.6,2.6c0,1.4,1.2,2.6,2.6,2.6    c1.4,0,2.6-1.2,2.6-2.6C441.2,97,440,95.8,438.6,95.8z M444.9,95.8c-1.4,0-2.6,1.2-2.6,2.6c0,1.4,1.2,2.6,2.6,2.6    c1.4,0,2.6-1.2,2.6-2.6C447.5,97,446.3,95.8,444.9,95.8z M463.8,95.8c-1.5,0-2.6,1.2-2.6,2.6c0,1.4,1.2,2.6,2.6,2.6    c1.4,0,2.6-1.2,2.6-2.6C466.4,97,465.3,95.8,463.8,95.8z M470.1,95.8c-1.4,0-2.6,1.2-2.6,2.6c0,1.4,1.2,2.6,2.6,2.6    c1.5,0,2.6-1.2,2.6-2.6C472.7,97,471.6,95.8,470.1,95.8z M501.7,95.8c-1.5,0-2.6,1.2-2.6,2.6c0,1.4,1.2,2.6,2.6,2.6    c1.4,0,2.6-1.2,2.6-2.6C504.3,97,503.1,95.8,501.7,95.8z M508,95.8c-1.5,0-2.6,1.2-2.6,2.6c0,1.4,1.2,2.6,2.6,2.6s2.6-1.2,2.6-2.6    C510.6,97,509.4,95.8,508,95.8z M558.5,95.8c-1.4,0-2.6,1.2-2.6,2.6c0,1.4,1.2,2.6,2.6,2.6c1.5,0,2.6-1.2,2.6-2.6    C561.1,97,559.9,95.8,558.5,95.8z M564.8,95.8c-1.4,0-2.6,1.2-2.6,2.6c0,1.4,1.2,2.6,2.6,2.6c1.5,0,2.6-1.2,2.6-2.6    C567.4,97,566.2,95.8,564.8,95.8z M299.7,102.1c-1.4,0-2.6,1.2-2.6,2.6c0,1.4,1.2,2.6,2.6,2.6c1.5,0,2.6-1.2,2.6-2.6    C302.3,103.3,301.2,102.1,299.7,102.1z M306,102.1c-1.5,0-2.6,1.2-2.6,2.6c0,1.4,1.2,2.6,2.6,2.6c1.5,0,2.6-1.2,2.6-2.6    C308.7,103.3,307.5,102.1,306,102.1z M312.3,102.1c-1.4,0-2.6,1.2-2.6,2.6c0,1.4,1.2,2.6,2.6,2.6c1.5,0,2.6-1.2,2.6-2.6    C315,103.3,313.8,102.1,312.3,102.1z M318.6,102.1c-1.4,0-2.6,1.2-2.6,2.6c0,1.4,1.2,2.6,2.6,2.6c1.5,0,2.6-1.2,2.6-2.6    C321.3,103.3,320.1,102.1,318.6,102.1z M337.6,102.1c-1.4,0-2.6,1.2-2.6,2.6c0,1.4,1.2,2.6,2.6,2.6c1.5,0,2.6-1.2,2.6-2.6    C340.2,103.3,339,102.1,337.6,102.1z M343.9,102.1c-1.5,0-2.6,1.2-2.6,2.6c0,1.4,1.2,2.6,2.6,2.6c1.5,0,2.6-1.2,2.6-2.6    C346.5,103.3,345.3,102.1,343.9,102.1z M350.2,102.1c-1.5,0-2.6,1.2-2.6,2.6c0,1.4,1.2,2.6,2.6,2.6c1.5,0,2.6-1.2,2.6-2.6    C352.8,103.3,351.7,102.1,350.2,102.1z M356.5,102.1c-1.4,0-2.6,1.2-2.6,2.6c0,1.4,1.2,2.6,2.6,2.6c1.5,0,2.6-1.2,2.6-2.6    C359.2,103.3,358,102.1,356.5,102.1z M369.1,102.1c-1.5,0-2.6,1.2-2.6,2.6c0,1.4,1.2,2.6,2.6,2.6c1.4,0,2.6-1.2,2.6-2.6    C371.8,103.3,370.6,102.1,369.1,102.1z M375.5,102.1c-1.4,0-2.6,1.2-2.6,2.6c0,1.4,1.2,2.6,2.6,2.6c1.4,0,2.6-1.2,2.6-2.6    C378.1,103.3,376.9,102.1,375.5,102.1z M381.8,102.1c-1.5,0-2.6,1.2-2.6,2.6c0,1.4,1.2,2.6,2.6,2.6c1.4,0,2.6-1.2,2.6-2.6    C384.4,103.3,383.2,102.1,381.8,102.1z M400.7,102.1c-1.4,0-2.6,1.2-2.6,2.6c0,1.4,1.2,2.6,2.6,2.6c1.4,0,2.6-1.2,2.6-2.6    C403.3,103.3,402.1,102.1,400.7,102.1z M407,102.1c-1.5,0-2.6,1.2-2.6,2.6c0,1.4,1.2,2.6,2.6,2.6c1.4,0,2.6-1.2,2.6-2.6    C409.6,103.3,408.5,102.1,407,102.1z M438.6,102.1c-1.5,0-2.6,1.2-2.6,2.6c0,1.4,1.2,2.6,2.6,2.6c1.4,0,2.6-1.2,2.6-2.6    C441.2,103.3,440,102.1,438.6,102.1z M444.9,102.1c-1.4,0-2.6,1.2-2.6,2.6c0,1.4,1.2,2.6,2.6,2.6c1.4,0,2.6-1.2,2.6-2.6    C447.5,103.3,446.3,102.1,444.9,102.1z M463.8,102.1c-1.5,0-2.6,1.2-2.6,2.6c0,1.4,1.2,2.6,2.6,2.6c1.4,0,2.6-1.2,2.6-2.6    C466.4,103.3,465.3,102.1,463.8,102.1z M470.1,102.1c-1.4,0-2.6,1.2-2.6,2.6c0,1.4,1.2,2.6,2.6,2.6c1.5,0,2.6-1.2,2.6-2.6    C472.7,103.3,471.6,102.1,470.1,102.1z M476.4,102.1c-1.4,0-2.6,1.2-2.6,2.6c0,1.4,1.2,2.6,2.6,2.6c1.4,0,2.6-1.2,2.6-2.6    C479.1,103.3,477.9,102.1,476.4,102.1z M482.7,102.1c-1.4,0-2.6,1.2-2.6,2.6c0,1.4,1.2,2.6,2.6,2.6c1.5,0,2.6-1.2,2.6-2.6    C485.4,103.3,484.2,102.1,482.7,102.1z M495.4,102.1c-1.5,0-2.6,1.2-2.6,2.6c0,1.4,1.2,2.6,2.6,2.6c1.4,0,2.6-1.2,2.6-2.6    C498,103.3,496.8,102.1,495.4,102.1z M501.7,102.1c-1.5,0-2.6,1.2-2.6,2.6c0,1.4,1.2,2.6,2.6,2.6c1.4,0,2.6-1.2,2.6-2.6    C504.3,103.3,503.1,102.1,501.7,102.1z M508,102.1c-1.5,0-2.6,1.2-2.6,2.6c0,1.4,1.2,2.6,2.6,2.6s2.6-1.2,2.6-2.6    C510.6,103.3,509.4,102.1,508,102.1z M526.9,102.1c-1.4,0-2.6,1.2-2.6,2.6c0,1.4,1.2,2.6,2.6,2.6c1.4,0,2.6-1.2,2.6-2.6    C529.5,103.3,528.4,102.1,526.9,102.1z M533.2,102.1c-1.4,0-2.6,1.2-2.6,2.6c0,1.4,1.2,2.6,2.6,2.6c1.5,0,2.6-1.2,2.6-2.6    C535.9,103.3,534.7,102.1,533.2,102.1z M539.5,102.1c-1.4,0-2.6,1.2-2.6,2.6c0,1.4,1.2,2.6,2.6,2.6c1.5,0,2.6-1.2,2.6-2.6    C542.2,103.3,541,102.1,539.5,102.1z M552.2,102.1c-1.4,0-2.6,1.2-2.6,2.6c0,1.4,1.2,2.6,2.6,2.6c1.5,0,2.6-1.2,2.6-2.6    C554.8,103.3,553.6,102.1,552.2,102.1z M558.5,102.1c-1.4,0-2.6,1.2-2.6,2.6c0,1.4,1.2,2.6,2.6,2.6c1.5,0,2.6-1.2,2.6-2.6    C561.1,103.3,559.9,102.1,558.5,102.1z M564.8,102.1c-1.4,0-2.6,1.2-2.6,2.6c0,1.4,1.2,2.6,2.6,2.6c1.5,0,2.6-1.2,2.6-2.6    C567.4,103.3,566.2,102.1,564.8,102.1z M306,108.4c-1.5,0-2.6,1.2-2.6,2.6c0,1.4,1.2,2.6,2.6,2.6c1.5,0,2.6-1.2,2.6-2.6    C308.7,109.6,307.5,108.4,306,108.4z M312.3,108.4c-1.4,0-2.6,1.2-2.6,2.6c0,1.4,1.2,2.6,2.6,2.6c1.5,0,2.6-1.2,2.6-2.6    C315,109.6,313.8,108.4,312.3,108.4z M318.6,108.4c-1.4,0-2.6,1.2-2.6,2.6c0,1.4,1.2,2.6,2.6,2.6c1.5,0,2.6-1.2,2.6-2.6    C321.3,109.6,320.1,108.4,318.6,108.4z M325,102.1c-1.4,0-2.6,1.2-2.6,2.6c0,1.4,1.2,2.6,2.6,2.6c1.5,0,2.6-1.2,2.6-2.6    C327.6,103.3,326.4,102.1,325,102.1z M325,108.4c-1.4,0-2.6,1.2-2.6,2.6c0,1.4,1.2,2.6,2.6,2.6c1.5,0,2.6-1.2,2.6-2.6    C327.6,109.6,326.4,108.4,325,108.4z M343.9,108.4c-1.5,0-2.6,1.2-2.6,2.6c0,1.4,1.2,2.6,2.6,2.6c1.5,0,2.6-1.2,2.6-2.6    C346.5,109.6,345.3,108.4,343.9,108.4z M350.2,108.4c-1.5,0-2.6,1.2-2.6,2.6c0,1.4,1.2,2.6,2.6,2.6c1.5,0,2.6-1.2,2.6-2.6    C352.8,109.6,351.7,108.4,350.2,108.4z M356.5,108.4c-1.4,0-2.6,1.2-2.6,2.6c0,1.4,1.2,2.6,2.6,2.6c1.5,0,2.6-1.2,2.6-2.6    C359.2,109.6,358,108.4,356.5,108.4z M362.8,51.6c-1.4,0-2.6,1.2-2.6,2.6c0,1.5,1.2,2.6,2.6,2.6c1.5,0,2.6-1.2,2.6-2.6    C365.5,52.8,364.3,51.6,362.8,51.6z M362.8,57.9c-1.4,0-2.6,1.2-2.6,2.6c0,1.5,1.2,2.6,2.6,2.6c1.5,0,2.6-1.2,2.6-2.6    C365.5,59.1,364.3,57.9,362.8,57.9z M362.8,76.8c-1.4,0-2.6,1.2-2.6,2.6c0,1.5,1.2,2.6,2.6,2.6c1.5,0,2.6-1.2,2.6-2.6    C365.5,78,364.3,76.8,362.8,76.8z M362.8,83.2c-1.4,0-2.6,1.2-2.6,2.6c0,1.5,1.2,2.6,2.6,2.6c1.5,0,2.6-1.2,2.6-2.6    C365.5,84.3,364.3,83.2,362.8,83.2z M362.8,102.1c-1.4,0-2.6,1.2-2.6,2.6c0,1.4,1.2,2.6,2.6,2.6c1.5,0,2.6-1.2,2.6-2.6    C365.5,103.3,364.3,102.1,362.8,102.1z M362.8,108.4c-1.4,0-2.6,1.2-2.6,2.6c0,1.4,1.2,2.6,2.6,2.6c1.5,0,2.6-1.2,2.6-2.6    C365.5,109.6,364.3,108.4,362.8,108.4z M369.1,108.4c-1.5,0-2.6,1.2-2.6,2.6c0,1.4,1.2,2.6,2.6,2.6c1.4,0,2.6-1.2,2.6-2.6    C371.8,109.6,370.6,108.4,369.1,108.4z M375.5,108.4c-1.4,0-2.6,1.2-2.6,2.6c0,1.4,1.2,2.6,2.6,2.6c1.4,0,2.6-1.2,2.6-2.6    C378.1,109.6,376.9,108.4,375.5,108.4z M381.8,108.4c-1.5,0-2.6,1.2-2.6,2.6c0,1.4,1.2,2.6,2.6,2.6c1.4,0,2.6-1.2,2.6-2.6    C384.4,109.6,383.2,108.4,381.8,108.4z M400.7,108.4c-1.4,0-2.6,1.2-2.6,2.6c0,1.4,1.2,2.6,2.6,2.6c1.4,0,2.6-1.2,2.6-2.6    C403.3,109.6,402.1,108.4,400.7,108.4z M407,108.4c-1.5,0-2.6,1.2-2.6,2.6c0,1.4,1.2,2.6,2.6,2.6c1.4,0,2.6-1.2,2.6-2.6    C409.6,109.6,408.5,108.4,407,108.4z M438.6,108.4c-1.5,0-2.6,1.2-2.6,2.6c0,1.4,1.2,2.6,2.6,2.6c1.4,0,2.6-1.2,2.6-2.6    C441.2,109.6,440,108.4,438.6,108.4z M444.9,108.4c-1.4,0-2.6,1.2-2.6,2.6c0,1.4,1.2,2.6,2.6,2.6c1.4,0,2.6-1.2,2.6-2.6    C447.5,109.6,446.3,108.4,444.9,108.4z M470.1,108.4c-1.4,0-2.6,1.2-2.6,2.6c0,1.4,1.2,2.6,2.6,2.6c1.5,0,2.6-1.2,2.6-2.6    C472.7,109.6,471.6,108.4,470.1,108.4z M476.4,108.4c-1.4,0-2.6,1.2-2.6,2.6c0,1.4,1.2,2.6,2.6,2.6c1.4,0,2.6-1.2,2.6-2.6    C479.1,109.6,477.9,108.4,476.4,108.4z M482.7,108.4c-1.4,0-2.6,1.2-2.6,2.6c0,1.4,1.2,2.6,2.6,2.6c1.5,0,2.6-1.2,2.6-2.6    C485.4,109.6,484.2,108.4,482.7,108.4z M489,51.6c-1.4,0-2.6,1.2-2.6,2.6c0,1.5,1.2,2.6,2.6,2.6c1.5,0,2.6-1.2,2.6-2.6    C491.7,52.8,490.5,51.6,489,51.6z M489,57.9c-1.4,0-2.6,1.2-2.6,2.6c0,1.5,1.2,2.6,2.6,2.6c1.5,0,2.6-1.2,2.6-2.6    C491.7,59.1,490.5,57.9,489,57.9z M489,102.1c-1.4,0-2.6,1.2-2.6,2.6c0,1.4,1.2,2.6,2.6,2.6c1.5,0,2.6-1.2,2.6-2.6    C491.7,103.3,490.5,102.1,489,102.1z M489,108.4c-1.4,0-2.6,1.2-2.6,2.6c0,1.4,1.2,2.6,2.6,2.6c1.5,0,2.6-1.2,2.6-2.6    C491.7,109.6,490.5,108.4,489,108.4z M495.4,108.4c-1.5,0-2.6,1.2-2.6,2.6c0,1.4,1.2,2.6,2.6,2.6c1.4,0,2.6-1.2,2.6-2.6    C498,109.6,496.8,108.4,495.4,108.4z M501.7,108.4c-1.5,0-2.6,1.2-2.6,2.6c0,1.4,1.2,2.6,2.6,2.6c1.4,0,2.6-1.2,2.6-2.6    C504.3,109.6,503.1,108.4,501.7,108.4z M508,108.4c-1.5,0-2.6,1.2-2.6,2.6c0,1.4,1.2,2.6,2.6,2.6s2.6-1.2,2.6-2.6    C510.6,109.6,509.4,108.4,508,108.4z M526.9,108.4c-1.4,0-2.6,1.2-2.6,2.6c0,1.4,1.2,2.6,2.6,2.6c1.4,0,2.6-1.2,2.6-2.6    C529.5,109.6,528.4,108.4,526.9,108.4z M533.2,108.4c-1.4,0-2.6,1.2-2.6,2.6c0,1.4,1.2,2.6,2.6,2.6c1.5,0,2.6-1.2,2.6-2.6    C535.9,109.6,534.7,108.4,533.2,108.4z M539.5,108.4c-1.4,0-2.6,1.2-2.6,2.6c0,1.4,1.2,2.6,2.6,2.6c1.5,0,2.6-1.2,2.6-2.6    C542.2,109.6,541,108.4,539.5,108.4z M545.8,51.6c-1.5,0-2.6,1.2-2.6,2.6c0,1.5,1.2,2.6,2.6,2.6c1.5,0,2.6-1.2,2.6-2.6    C548.5,52.8,547.3,51.6,545.8,51.6z M545.8,57.9c-1.5,0-2.6,1.2-2.6,2.6c0,1.5,1.2,2.6,2.6,2.6c1.5,0,2.6-1.2,2.6-2.6    C548.5,59.1,547.3,57.9,545.8,57.9z M545.8,76.8c-1.5,0-2.6,1.2-2.6,2.6c0,1.5,1.2,2.6,2.6,2.6c1.5,0,2.6-1.2,2.6-2.6    C548.5,78,547.3,76.8,545.8,76.8z M545.8,83.2c-1.5,0-2.6,1.2-2.6,2.6c0,1.5,1.2,2.6,2.6,2.6c1.5,0,2.6-1.2,2.6-2.6    C548.5,84.3,547.3,83.2,545.8,83.2z M545.8,102.1c-1.5,0-2.6,1.2-2.6,2.6c0,1.4,1.2,2.6,2.6,2.6c1.5,0,2.6-1.2,2.6-2.6    C548.5,103.3,547.3,102.1,545.8,102.1z M545.8,108.4c-1.5,0-2.6,1.2-2.6,2.6c0,1.4,1.2,2.6,2.6,2.6c1.5,0,2.6-1.2,2.6-2.6    C548.5,109.6,547.3,108.4,545.8,108.4z M552.2,108.4c-1.4,0-2.6,1.2-2.6,2.6c0,1.4,1.2,2.6,2.6,2.6c1.5,0,2.6-1.2,2.6-2.6    C554.8,109.6,553.6,108.4,552.2,108.4z M558.5,108.4c-1.4,0-2.6,1.2-2.6,2.6c0,1.4,1.2,2.6,2.6,2.6c1.5,0,2.6-1.2,2.6-2.6    C561.1,109.6,559.9,108.4,558.5,108.4z M141.9,127.3c-1.4,0-2.6,1.2-2.6,2.6c0,1.4,1.2,2.6,2.6,2.6c1.4,0,2.6-1.2,2.6-2.6    C144.6,128.5,143.4,127.3,141.9,127.3z M148.3,127.3c-1.4,0-2.6,1.2-2.6,2.6c0,1.4,1.2,2.6,2.6,2.6c1.4,0,2.6-1.2,2.6-2.6    C150.9,128.5,149.7,127.3,148.3,127.3z M154.6,127.3c-1.4,0-2.6,1.2-2.6,2.6c0,1.4,1.2,2.6,2.6,2.6c1.4,0,2.6-1.2,2.6-2.6    C157.2,128.5,156,127.3,154.6,127.3z M160.9,127.3c-1.5,0-2.6,1.2-2.6,2.6c0,1.4,1.2,2.6,2.6,2.6c1.4,0,2.6-1.2,2.6-2.6    C163.5,128.5,162.3,127.3,160.9,127.3z M167.2,51.6c-1.4,0-2.6,1.2-2.6,2.6c0,1.4,1.2,2.6,2.6,2.6c1.4,0,2.6-1.2,2.6-2.6    C169.8,52.8,168.6,51.6,167.2,51.6z M167.2,57.9c-1.4,0-2.6,1.2-2.6,2.6c0,1.5,1.2,2.6,2.6,2.6c1.4,0,2.6-1.2,2.6-2.6    C169.8,59.1,168.6,57.9,167.2,57.9z M167.2,95.8c-1.4,0-2.6,1.2-2.6,2.6c0,1.5,1.2,2.6,2.6,2.6c1.4,0,2.6-1.2,2.6-2.6    C169.8,97,168.6,95.8,167.2,95.8z M167.2,102.1c-1.4,0-2.6,1.2-2.6,2.6c0,1.4,1.2,2.6,2.6,2.6c1.4,0,2.6-1.2,2.6-2.6    C169.8,103.3,168.6,102.1,167.2,102.1z M167.2,121c-1.4,0-2.6,1.2-2.6,2.6c0,1.4,1.2,2.6,2.6,2.6c1.4,0,2.6-1.2,2.6-2.6    C169.8,122.2,168.6,121,167.2,121z M167.2,127.3c-1.4,0-2.6,1.2-2.6,2.6c0,1.4,1.2,2.6,2.6,2.6c1.4,0,2.6-1.2,2.6-2.6    C169.8,128.5,168.6,127.3,167.2,127.3z M173.5,127.3c-1.5,0-2.6,1.2-2.6,2.6c0,1.4,1.2,2.6,2.6,2.6c1.4,0,2.6-1.2,2.6-2.6    C176.1,128.5,174.9,127.3,173.5,127.3z M47.3,45.3c-1.5,0-2.6,1.2-2.6,2.6c0,1.4,1.2,2.6,2.6,2.6c1.4,0,2.6-1.2,2.6-2.6    C49.9,46.5,48.7,45.3,47.3,45.3z"/>
	</g>
</g>
</svg>