<svg xmlns="http://www.w3.org/2000/svg" viewBox="0 0 250 250"><g data-name="Layer 2"><g data-name="Layer 1"><path fill="#be1622" d="M0 0h250v250H0z"/><path fill="#fff" d="M60 105.27h47.97v47.97H60zm122 47.97h-40v-48h48v40a8 8 0 01-8 8zm7.67-70.52H60v-40a8 8 0 018-8h113.67a8 8 0 018 8zm-47.87 3.92h47.97v14.83H141.8zm-81.8 0h47.97v14.83H60zm52.08 18.91h26.03v47.97h-26.03zm69.69 67.87h-32a8 8 0 01-8-8v-8.15h48v8.15a8 8 0 01-8 8zm-81.77 0H68a8 8 0 01-8-8v-8.15h48v8.15a8 8 0 01-8 8zm-26.83 38.26v2.07q0 5.49-5.18 5.49h-2.78q-5.18 0-5.18-5.49v-21.33q0-5.49 5.18-5.49H68q5.18 0 5.18 5.49v3.65h-4.33v-3.33a1.69 1.69 0 00-1.94-1.89h-.85q-1.71 0-1.71 1.89v20.71q0 1.89 1.71 1.89h1.08q1.71 0 1.71-1.89v-1.76zm8.38 7.56q-5.22 0-5.22-5.49v-21.29q0-5.54 5.18-5.54h4.14q5.18 0 5.18 5.54v21.29q0 5.49-5.22 5.49zm1-3.92h2.2q1.71 0 1.71-1.89v-20.7a1.69 1.69 0 00-1.93-1.89h-2a1.67 1.67 0 00-1.89 1.89v20.71a1.69 1.69 0 001.94 1.89zm20.87-9.4l4-19h4.77v32.32h-4.32l.45-21.15-3.24 15.3h-3.33l-3.24-15.3.49 21.15h-4.36v-32.31h4.77zm26.87-18.99v26.2q0 6.12-5.22 6.12h-3.65q-5.18 0-5.18-6.17v-26.15h4.32v26.29q0 2.12 1.89 2.12h1.76q1.75 0 1.75-2.12v-26.29zm13.01 15.62v-15.62h4.32v32.32h-4.32v-6.44l-4.64-14.72v21.15h-4.32v-32.31h4.32zm8.37 16.69v-32.31H156v32.32zm21.33-7.56v2.07q0 5.49-5.18 5.49H165q-5.18 0-5.18-5.49v-21.33q0-5.49 5.18-5.49h2.79q5.18 0 5.18 5.49v3.65h-4.32v-3.33a1.69 1.69 0 00-1.94-1.89h-.85q-1.71 0-1.71 1.89v20.71q0 1.89 1.71 1.89h1.08q1.71 0 1.71-1.89v-1.76zm7.43 7.56h-4.32v-26.78q0-5.54 5.18-5.54h3.24q5.18 0 5.18 5.54v26.78h-4.32v-11.83h-5zm5-15.75v-10.76a1.67 1.67 0 00-1.89-1.89h-1.17a1.67 1.67 0 00-1.89 1.89v10.76z"/></g></g></svg>