<svg xmlns="http://www.w3.org/2000/svg" version="1.0" width="1045.403" height="450.859"><path d="M0 0v268.765L280.438 142.17zm336.922 182.093L56.485 324.265l280.437 126.594z" fill="#001c3d" fill-rule="evenodd"/><path d="M319.305 364.189h-26.954l-6.215-40.305a201 201 0 01-1.193-9.488c-.361-3.48-.686-7.28-.975-11.397-.675 3.948-2 8.872-3.975 14.772a126.845 126.845 0 00-.94 2.738l-14.38 43.68H245.45l-14.381-43.68a307.73 307.73 0 01-.867-2.738c-2.024-5.9-3.349-10.803-3.975-14.708-.29 3.523-.626 7.014-1.012 10.474-.385 3.46-.843 6.908-1.373 10.347l-6.215 40.305h-26.81l16.332-93.218h28.545l15.97 48.074c.097.34.29.891.579 1.655 1.493 4.287 2.433 7.96 2.818 11.016.193-1.656.554-3.492 1.084-5.508s1.253-4.447 2.168-7.29l16.115-47.947h28.618z" style="line-height:100%;-inkscape-font-specification:'Futura Md BT Bold';text-align:start" font-weight="700" font-size="50.441" font-family="Futura Md BT" fill="#fff"/><path d="M41.585 91.669h25.193v45.335c0 6.665.17 11.451.507 14.359.337 2.907.907 5.338 1.709 7.29.97 2.377 2.658 4.192 5.064 5.444 2.405 1.253 5.338 1.879 8.798 1.879s6.383-.626 8.767-1.879c2.384-1.252 4.083-3.067 5.095-5.444.802-1.952 1.372-4.383 1.71-7.29.337-2.908.506-7.694.506-14.359V91.67h25.13v49.283c0 10.23-.613 17.776-1.836 22.636-1.224 4.86-3.292 9.01-6.204 12.448-3.165 3.778-7.511 6.611-13.039 8.5-5.528 1.89-12.238 2.834-20.129 2.834-7.933 0-14.653-.945-20.16-2.834-5.507-1.889-9.864-4.722-13.072-8.5-2.869-3.438-4.926-7.588-6.171-12.448s-1.867-12.406-1.867-22.636v-9.678z" style="line-height:100%;-inkscape-font-specification:'Futura Md BT Bold';text-align:start" font-weight="700" font-size="47.207" font-family="Futura Md BT" fill="#fff"/></svg>