<svg xmlns="http://www.w3.org/2000/svg" version="1.0" width="1045.403" height="450.859"><path d="M23.092-3.011v268.765L303.53 139.159zm336.922 182.093L79.577 321.254l280.437 126.594z" fill="#001c3d" fill-rule="evenodd"/><path d="M342.397 361.178h-26.954l-6.215-40.305a201 201 0 01-1.193-9.488c-.361-3.48-.686-7.28-.975-11.397-.675 3.948-2 8.872-3.975 14.772a126.845 126.845 0 00-.94 2.738l-14.38 43.68h-19.223l-14.381-43.68a307.73 307.73 0 01-.867-2.738c-2.024-5.9-3.349-10.803-3.975-14.708-.29 3.523-.626 7.014-1.012 10.474-.385 3.46-.843 6.908-1.373 10.347l-6.215 40.305h-26.81l16.332-93.218h28.545l15.97 48.074c.097.34.29.891.579 1.655 1.493 4.287 2.433 7.96 2.818 11.016.193-1.656.554-3.492 1.084-5.508s1.253-4.447 2.168-7.29l16.115-47.947h28.618z" style="line-height:100%;-inkscape-font-specification:'Futura Md BT Bold';text-align:start" font-weight="700" font-size="50.441" font-family="Futura Md BT" fill="#fff"/><path d="M64.677 88.658H89.87v45.335c0 6.665.17 11.451.507 14.359.337 2.907.907 5.338 1.709 7.29.97 2.377 2.658 4.192 5.064 5.444 2.405 1.253 5.338 1.879 8.798 1.879s6.383-.626 8.767-1.879c2.384-1.252 4.083-3.067 5.095-5.444.802-1.952 1.372-4.383 1.71-7.29.337-2.908.506-7.694.506-14.359V88.659h25.13v49.283c0 10.23-.613 17.776-1.836 22.636-1.224 4.86-3.292 9.01-6.204 12.448-3.165 3.778-7.511 6.611-13.039 8.5-5.528 1.89-12.238 2.834-20.129 2.834-7.933 0-14.653-.945-20.16-2.834-5.507-1.889-9.864-4.722-13.072-8.5-2.869-3.438-4.926-7.588-6.171-12.448s-1.867-12.406-1.867-22.636v-9.678z" style="line-height:100%;-inkscape-font-specification:'Futura Md BT Bold';text-align:start" font-weight="700" font-size="47.207" font-family="Futura Md BT" fill="#fff"/><path d="M474.983 188.647V81.217h34.136v214.86h-34.136zM579.651 296.33l-13.303-.312V81.52l9.79-.648c19.066-1.263 73.424-.741 83.584.802 44.329 6.732 71.448 30.958 79.773 71.264 2.534 12.269 3.544 30.17 2.488 44.119-4.205 55.56-38.748 91.016-95.982 98.519-11.006 1.442-28.515 1.641-66.35.754zm64.795-29.405c24.883-4.038 43.46-16.84 52.84-36.413 7.18-14.983 8.119-20.056 8.115-43.873-.003-18.336-.256-21.514-2.315-29.116-3.637-13.428-8.594-22.505-16.735-30.646-15.081-15.081-34.944-20.45-70.053-18.937l-15.813.682V266.85l4.769.376c10.59.835 33.264.661 39.192-.301zm156.841 31.138c-8.353-.998-17.69-2.631-23.17-4.052l-3.594-.931 1.84-15.74c1.01-8.657 1.992-15.894 2.18-16.083.19-.188 2.334.368 4.767 1.236 20.832 7.434 47.978 8.87 62.806 3.32 8.233-3.08 16.693-11.553 18.835-18.864 3.005-10.255 1.687-19.624-3.773-26.839-4.973-6.571-13.845-11.84-33.316-19.783-26.612-10.857-34.073-15.122-42.805-24.47-11.678-12.502-15.869-32.453-10.9-51.883 2.743-10.722 6.332-16.957 14.563-25.296 15.686-15.89 41.196-23.082 72.863-20.543 7.304.586 16.154 1.565 19.666 2.177 6.27 1.091 6.383 1.168 6.34 4.271-.056 4.097-2.634 25.751-3.124 26.241-.206.206-3.529-.5-7.383-1.568-17.574-4.873-40.276-4.86-51.33.03-11.643 5.15-16.528 12.024-17.236 24.253-.409 7.065-.172 8.458 2.29 13.491 4.776 9.76 11.288 13.787 45.204 27.947 14.894 6.219 25.95 12.856 32.767 19.674 22.763 22.761 18.748 63.382-8.518 86.174-6.913 5.779-21.287 12.69-31.782 15.282-9.829 2.427-34.643 3.456-47.19 1.956z" fill="#03a1da"/></svg>