<svg version="1.0" xmlns="http://www.w3.org/2000/svg" width="400" height="220" viewBox="0 0 400 220"><path d="M188.8 29.3V129h65.4v22.9h-89.9V29.3h24.5zM266 151.8V29.2h47.2c38.1 0 57.2 20.5 57.2 61.3s-19.1 61.3-57.2 61.3H266zm47.2-24.4c21.7-.1 32.6-12.3 32.7-36.8-.1-24.5-10.9-36.8-32.7-36.8h-22.7v73.6h22.7zm-284 43h4.3v20.5h10v3.6H29.2v-24.1zm16.5.4c0-1.4 1.1-2.4 2.6-2.4s2.6 1 2.6 2.4-1.1 2.4-2.6 2.4-2.6-1-2.6-2.4zm.5 5.6h4.2v18.1h-4.2v-18.1zm8.6 0h3.5l.3 2.4h.1c1.6-1.6 3.5-2.9 5.9-2.9 3.9 0 5.6 2.6 5.6 7.2v11.3H66v-10.8c0-3-.8-4.1-2.8-4.1-1.6 0-2.6.8-4.1 2.2v12.6h-4.2v-17.9zm19.5-7.9h4.2v16.2h.1l6.7-8.3h4.6l-6.2 7.4 6.8 10.7h-4.6l-4.6-7.8-2.8 3.2v4.6h-4.2v-26zm24.4 7.4c4.9 0 7.5 3.5 7.5 8.6 0 .8-.1 1.5-.2 2H94.6c.4 3.3 2.4 5.1 5.3 5.1 1.5 0 2.9-.5 4.2-1.3l1.4 2.7c-1.7 1.1-3.9 2-6.2 2-5 0-8.9-3.5-8.9-9.5s4.1-9.6 8.3-9.6zm3.8 7.9c0-2.9-1.2-4.6-3.7-4.6-2.1 0-4 1.6-4.3 4.6h8zm13.3-7.9c2.1 0 3.3.8 4.7 2l-.1-2.9v-6.6h4.2v26h-3.5l-.3-2h-.1c-1.3 1.3-3.2 2.4-5.1 2.4-4.5 0-7.4-3.5-7.4-9.5-.1-5.8 3.6-9.4 7.6-9.4zm.8 15.5c1.4 0 2.6-.6 3.8-2V181c-1.3-1.1-2.5-1.5-3.7-1.5-2.3 0-4.2 2.2-4.2 6s1.4 5.9 4.1 5.9zm19.1-21h6.4c7.4 0 11.7 4 11.7 11.9 0 8-4.4 12.1-11.5 12.1h-6.6v-24zm6.1 20.6c4.9 0 7.7-2.8 7.7-8.7 0-5.9-2.8-8.5-7.7-8.5H140V191h1.8zm25.3-8.1c0-1.9-.8-3.5-3.3-3.5-1.8 0-3.5.8-5.1 1.8l-1.5-2.8c2-1.3 4.5-2.4 7.4-2.4 4.5 0 6.7 2.8 6.7 7.8v10.7h-3.5l-.3-2h-.1c-1.6 1.4-3.5 2.4-5.6 2.4-3.2 0-5.4-2.1-5.4-5.3.1-3.9 3.3-5.9 10.7-6.7zm-3.9 8.7c1.5 0 2.6-.7 3.9-2v-4c-4.9.6-6.5 1.9-6.5 3.7 0 1.6 1 2.3 2.6 2.3zm12.8-11.9h-2.6v-3.2l2.8-.2.5-4.9h3.5v4.9h4.6v3.3h-4.6v8.6c0 2.1.8 3.2 2.5 3.2.6 0 1.4-.2 1.9-.4l.7 3.1c-1 .3-2.2.7-3.7.7-4.2 0-5.7-2.6-5.7-6.6v-8.5zm20.9 3.2c0-1.9-.8-3.5-3.3-3.5-1.8 0-3.5.8-5.1 1.8l-1.5-2.8c2-1.3 4.5-2.4 7.4-2.4 4.5 0 6.7 2.8 6.7 7.8v10.7h-3.5l-.3-2h-.1c-1.6 1.4-3.5 2.4-5.6 2.4-3.2 0-5.4-2.1-5.4-5.3.1-3.9 3.3-5.9 10.7-6.7zm-3.9 8.7c1.5 0 2.6-.7 3.9-2v-4c-4.9.6-6.5 1.9-6.5 3.7 0 1.6 1.1 2.3 2.6 2.3zm19.1-21.2h14.5v3.6h-10.3v6.8h8.7v3.6h-8.7v10H212v-24zm16.5 6h3.5l.3 3.2h.1c1.3-2.4 3.2-3.6 5.1-3.6.9 0 1.5.1 2.1.4l-.7 3.7c-.6-.2-1.1-.3-1.9-.3-1.4 0-3.2 1-4.3 3.7v11h-4.2v-18.1zm21.5 6.5c0-1.9-.8-3.5-3.3-3.5-1.8 0-3.5.8-5.1 1.8l-1.5-2.8c2-1.3 4.5-2.4 7.4-2.4 4.5 0 6.7 2.8 6.7 7.8v10.7h-3.5l-.3-2h-.1c-1.6 1.4-3.5 2.4-5.6 2.4-3.2 0-5.4-2.1-5.4-5.3.1-3.9 3.3-5.9 10.7-6.7zm-4 8.7c1.5 0 2.6-.7 3.9-2v-4c-4.9.6-6.5 1.9-6.5 3.7.1 1.6 1.1 2.3 2.6 2.3zm13.7 2.3v-.1c-.9-.6-1.6-1.5-1.6-3 0-1.4 1-2.6 2-3.3v-.1c-1.2-.9-2.4-2.7-2.4-4.8 0-4.2 3.3-6.5 7.1-6.5 1 0 1.9.2 2.6.4h6.5v3.1h-3.3c.6.7 1 1.8 1 3.1 0 4-3 6.1-6.8 6.1-.8 0-1.7-.1-2.5-.5-.6.5-.9.9-.9 1.7 0 1 .7 1.7 2.9 1.7h3.2c4.3 0 6.6 1.3 6.6 4.5 0 3.6-3.8 6.4-9.6 6.4-4.3 0-7.5-1.5-7.5-4.7.1-1.7 1-3 2.7-4zm5.6 5.8c2.9 0 4.9-1.4 4.9-2.9 0-1.4-1.1-1.8-3.2-1.8h-2.5c-1 0-1.8-.1-2.5-.3-1 .7-1.4 1.5-1.4 2.4 0 1.6 1.8 2.6 4.7 2.6zm2.6-17.3c0-2.2-1.4-3.6-3.1-3.6s-3.2 1.3-3.2 3.6 1.4 3.6 3.2 3.6c1.7.1 3.1-1.3 3.1-3.6zm8.5-6h3.5l.3 2.5h.1c1.5-1.6 3.3-2.9 5.5-2.9 2.6 0 4.2 1.2 5 3.2 1.7-1.8 3.5-3.2 5.8-3.2 3.8 0 5.6 2.6 5.6 7.2v11.3H298v-10.8c0-3-.9-4.1-2.8-4.1-1.1 0-2.4.7-3.8 2.2v12.6h-4.2v-10.8c0-3-.9-4.1-2.8-4.1-1.1 0-2.4.7-3.8 2.2v12.6h-4.2v-17.9zm37.1-.5c4.9 0 7.5 3.5 7.5 8.6 0 .8-.1 1.5-.2 2h-11.5c.4 3.3 2.4 5.1 5.3 5.1 1.5 0 2.9-.5 4.2-1.3l1.4 2.7c-1.7 1.1-3.9 2-6.2 2-5 0-8.9-3.5-8.9-9.5.1-6 4.1-9.6 8.4-9.6zm3.8 7.9c0-2.9-1.2-4.6-3.7-4.6-2.1 0-4 1.6-4.3 4.6h8zm6.6-7.4h3.5l.3 2.4h.1c1.6-1.6 3.5-2.9 5.9-2.9 3.9 0 5.6 2.6 5.6 7.2v11.3h-4.2v-10.8c0-3-.8-4.1-2.8-4.1-1.6 0-2.6.8-4.1 2.2v12.6H324v-17.9zm20.2 3.3h-2.6v-3.2l2.8-.2.5-4.9h3.5v4.9h4.6v3.3h-4.6v8.6c0 2.1.8 3.2 2.5 3.2.6 0 1.4-.2 1.9-.4l.7 3.1c-1 .3-2.2.7-3.7.7-4.2 0-5.7-2.6-5.7-6.6v-8.5zm11.8 10c1.6 1.3 3.2 2 5 2 2 0 2.9-.9 2.9-2.2 0-1.5-2-2.2-3.9-2.9-2.4-.9-5.1-2.2-5.1-5.3 0-3.2 2.5-5.4 6.6-5.4 2.5 0 4.5 1 6 2.2l-2 2.6c-1.3-.9-2.5-1.5-4-1.5-1.8 0-2.6.8-2.6 2 0 1.4 1.8 2 3.8 2.7 2.5.9 5.2 2.1 5.2 5.5 0 3.1-2.5 5.6-7 5.6-2.5 0-5.1-1.1-6.8-2.5l1.9-2.8z" fill="#1D1D1B"/><path fill="#BE1622" d="M46.9 122.8H30.3l2.3-18.7H51l6.2-28.5H39.5l2.2-18h19.4l6.1-28.1h23.3l-6.1 28.1h24.5l6-28.1H138l-6.1 28.1h18.2l-2.2 18H128l-6.2 28.5h18.6l-2.3 18.7h-20.4l-6.3 29.1H88.8l6.2-29.1H70l-6.3 29.1h-23l6.2-29.1zm52-18.7l6.1-28.5H80.4l-6.3 28.5h24.8z"/></svg>