<svg xmlns="http://www.w3.org/2000/svg" height="150.125" width="474.944" viewBox="0 0 474.944 150.125"><path d="M3.164 1v72.721l74.673-33.96L3.164 1zM14.39 25.864h6.943v15.748c0 2.687.821 4.143 3.695 4.143 2.799 0 3.695-1.194 3.695-4.33V25.864h6.868v15.189c0 7.314-4.22 10.525-10.975 10.525-8.099 0-10.226-4.292-10.226-9.63V25.864zm78.644 24.827L18.376 89.07l74.658 34.046V50.69zm-33.9 23.65h7.254l4.217 18.083 4.632-18.084h7.623l5.106 25.192H81.9l-3.233-18.054-4.547 18.054h-6.93l-4.364-18.054-3.692 18.054h-6.222l6.222-25.192zm128.485-15.208l-7.802-50.175H168.6l-8.631 25.943c-1.253 3.716-2.083 6.541-2.819 10.406H157c-.667-3.568-1.565-6.987-2.75-10.555l-8.4-25.794h-11.3l-7.733 50.175h9.816l2.818-23.117c.6-4.386 1.117-8.326 1.416-12.786h.15c.6 4.014 1.865 8.549 3.2 12.637l7.65 23.266h9.6l7.95-25.2c1.266-3.94 2.083-7.506 2.75-10.703h.15c.367 3.494.817 7.21 1.552 11.967l3.567 23.936h10.184zm20.708-37.763c-4.765 0-9.518.968-13.235 2.306l.817 7.953c3.118-1.785 7.585-2.898 10.92-2.898 5.351 0 7.215 2.007 7.215 5.874v2.005c-12.566 0-21.334 4.684-21.334 13.53 0 5.946 3.866 9.737 10.551 9.737 5.5 0 10.034-2.9 11.817-7.063l.082.075c-.3 1.933-.366 4.088-.366 6.243h8.985c-.15-3.047-.219-6.54-.219-9.514V34.233c0-8.029-3.348-12.862-15.233-12.862zm5.717 21.412v.89c0 4.46-3.198 8.922-7.882 8.922-2.75 0-4.385-1.563-4.385-3.941 0-2.974 2.233-5.871 12.267-5.871zm33.18-21.412c-4.752 0-9.518.968-13.235 2.306l.83 7.953c3.118-1.785 7.572-2.898 10.92-2.898 5.351 0 7.215 2.007 7.215 5.874v2.005c-12.566 0-21.334 4.684-21.334 13.53 0 5.946 3.867 9.737 10.551 9.737 5.5 0 10.034-2.9 11.817-7.063l.083.075c-.3 1.933-.38 4.088-.38 6.243h8.998c-.15-3.047-.218-6.54-.218-9.514V34.233c0-8.029-3.348-12.862-15.247-12.862zm5.73 21.412v.89c0 4.46-3.198 8.922-7.882 8.922-2.75 0-4.384-1.563-4.384-3.941 0-2.974 2.232-5.871 12.266-5.871zm42.764 4.904c0-11.967-15.153-9.292-15.153-15.312 0-2.305 1.783-3.792 5.5-3.792 2.3 0 4.751.372 6.834.967l.3-7.509c-2.233-.371-4.615-.668-6.767-.668-10.401 0-15.683 5.352-15.683 11.819 0 12.562 14.935 8.846 14.935 15.387 0 2.453-2.37 3.94-6.018 3.94-2.818 0-5.65-.52-7.95-1.115l-.219 7.805c2.37.371 5.051.668 7.72.668 10.115 0 16.5-4.905 16.5-12.19zm28.209 11.225v-7.657c-1.335.372-3.05.595-4.602.595-3.281 0-4.397-1.338-4.397-6.096V29.549h8.999V22.19h-9V8.29l-9.502 2.527V22.19h-6.331v7.359h6.399V48.28c0 8.622 2.532 11.595 10.7 11.595 2.601 0 5.351-.371 7.734-.965zm27.909-37.539c-6.398-.52-9.965 3.568-11.749 8.25h-.15c.45-2.6.667-5.574.667-7.432h-8.985v36.943h9.516V44.044c0-10.258 3.418-14.719 10.252-13.307l.45-9.365zm16.828-9.737c0-3.197-2.682-5.725-5.95-5.725-3.267 0-5.867 2.602-5.867 5.725 0 3.195 2.6 5.797 5.867 5.797 3.268 0 5.95-2.602 5.95-5.797zm-1.184 47.498V22.19h-9.517v36.943h9.516zm34.362-1.04l-.735-8.102c-2.015 1.04-4.765 1.56-7.284 1.56-6.317 0-8.78-4.312-8.78-10.629 0-6.988 3.049-11.448 9.08-11.448 2.369 0 4.683.595 6.685 1.338l.966-8.25a28.681 28.681 0 00-7.583-1.042c-13.083 0-19.101 8.846-19.101 20.367 0 12.564 6.385 17.916 16.65 17.916 3.935 0 7.584-.744 10.102-1.71zm39.51 1.04V33.19c0-6.467-2.682-11.82-11-11.82-5.733 0-9.967 2.75-12.118 6.914l-.15-.075c.518-2.155.668-5.277.668-7.507V4.87h-9.517v54.263h9.517v-17.84c0-6.467 3.784-11.968 8.618-11.968 3.498 0 4.533 2.305 4.533 6.17v23.638h9.449zm30.428-.222v-7.657c-1.334.372-3.05.595-4.602.595-3.28 0-4.384-1.338-4.384-6.096V29.549h8.986V22.19h-8.986V8.29l-9.516 2.527V22.19h-6.317v7.359h6.385V48.28c0 8.622 2.532 11.595 10.7 11.595 2.601 0 5.351-.371 7.734-.965zM167.261 111.02V80.156h-9.635v31.46c0 8.594-3.148 11.733-10.621 11.733-8.363 0-10.457-4.484-10.457-10.836V80.157h-9.718v32.955c0 9.64 3.586 18.309 19.504 18.309 13.304 0 20.927-6.577 20.927-20.402zm42.635 19.578v-26.08c0-6.501-2.696-11.882-11.073-11.882-6.05 0-10.374 3.065-12.62 7.473l-.081-.075c.383-1.942.52-4.857.52-6.575h-9.033v37.14h9.567v-17.935c0-6.502 3.805-12.032 8.663-12.032 3.518 0 4.558 2.317 4.558 6.203v23.763h9.499zm21.091-47.75c0-3.214-2.682-5.756-5.967-5.756-3.299 0-5.913 2.616-5.913 5.756 0 3.212 2.614 5.827 5.913 5.827 3.285 0 5.967-2.615 5.967-5.827zm-1.191 47.75V93.46h-9.567v37.14h9.567zM272.5 93.459h-10.17l-5.967 17.037c-.904 2.542-1.643 5.38-2.245 7.922h-.15a97.072 97.072 0 00-2.464-8.22l-5.913-16.739h-10.457l13.756 37.14h9.704l13.905-37.14zm20.132-.824c-11.141 0-17.408 8.37-17.408 19.728 0 13.078 6.57 18.983 18.381 18.983 4.626 0 9.333-.823 13.302-2.393l-.9-7.396c-3.204 1.494-7.173 2.315-10.827 2.315-6.885 0-10.321-3.362-10.239-10.311h23.008c.233-1.57.3-3.066.3-4.336 0-9.192-4.777-16.59-15.617-16.59zm-.3 7.025c4.038 0 6.583 2.765 6.432 7.4h-13.673c.52-4.484 3.286-7.4 7.242-7.4zm44.194-7.024c-6.419-.522-10.005 3.588-11.798 8.295h-.15c.438-2.615.67-5.604.67-7.472h-9.047v37.14h9.568v-15.17c0-10.313 3.435-14.797 10.306-13.377l.451-9.416zm29.181 26.454c0-12.03-15.247-9.341-15.247-15.393 0-2.317 1.793-3.812 5.53-3.812 2.312 0 4.776.374 6.87.972l.301-7.549c-2.245-.373-4.626-.672-6.802-.672-10.457 0-15.768 5.38-15.768 11.882 0 12.629 15.029 8.894 15.029 15.469 0 2.466-2.396 3.96-6.064 3.96-2.833 0-5.666-.522-7.993-1.12l-.219 7.846c2.395.374 5.078.672 7.774.672 10.156 0 16.589-4.93 16.589-12.255zm18.86-36.242c0-3.214-2.696-5.756-5.981-5.756-3.285 0-5.899 2.616-5.899 5.756 0 3.212 2.614 5.827 5.899 5.827s5.981-2.615 5.981-5.827zm-1.191 47.75V93.46h-9.567v37.14h9.567zm30.522-.223v-7.697c-1.355.373-3.066.598-4.64.598-3.285 0-4.407-1.346-4.407-6.13v-16.29h9.047V93.46h-9.047V79.485l-9.567 2.54v11.434h-6.35v7.398h6.418v18.831c0 8.668 2.546 11.657 10.772 11.657 2.614 0 5.379-.373 7.774-.97zm39.856-36.916h-10.238l-4.407 12.629c-1.204 3.512-2.765 8.445-3.586 11.806h-.082c-.821-3.361-1.793-7.024-2.915-10.238L427.53 93.46h-10.62l13.672 37.14-1.259 3.586c-1.943 5.53-4.037 6.95-7.185 6.95-1.793 0-3.354-.3-5.078-.822l-.603 8.223c1.574.37 3.6.589 5.243.589 8.513 0 12.4-3.506 16.807-15.089l15.247-40.577z" fill="#001f3e"/></svg>