<svg xmlns="http://www.w3.org/2000/svg" overflow="visible" viewBox="0 0 484.862 525.335"><g shape-rendering="geometricPrecision" text-rendering="geometricPrecision" image-rendering="optimizeQuality"><path d="M0 40.473h484.862v484.862H0z"/><path fill="#FFF" d="M9.477 50.808h464.192v329.847H9.477z"/><path d="M383.476 267.343c-2.544-1.346-5.14-2.493-7.743-3.516l1.863-.15s-16.608-7.354-18.057-60.722c-1.438-53.372 15.828-62.478 15.828-62.478l-2.48.109c13.045-6.69 24.265-17.267 31.669-31.216 19.295-36.291 5.488-81.362-30.81-100.657-36.31-19.276-81.372-5.506-100.656 30.817-7.927 14.899-10.178 31.273-7.677 46.733l-.851-1.306s4.373 19.365-41.032 47.55c-45.397 28.2-65.877 14.159-65.877 14.159l1.302 1.925c-1.298-.803-2.544-1.624-3.901-2.333-36.306-19.294-81.38-5.509-100.667 30.804-19.281 36.309-5.489 81.365 30.813 100.668 27.064 14.364 58.974 10.36 81.461-7.655l-.487.946s16.531-13.599 64.16 11.973c37.601 20.178 43.184 39.956 43.899 47.383-.983 27.57 13.388 54.618 39.389 68.433 36.301 19.299 81.374 5.498 100.657-30.804 19.292-36.302 5.507-81.382-30.803-100.663zm-83.934 9.785c-6.018 2.129-23.203 4.487-59.389-14.921-39.187-21.04-45.005-38.615-45.855-43.891.557-6.401.202-12.791-.891-19.02l.239.359s-3.189-17.096 41.65-44.943c40.133-24.908 58.376-19.955 61.771-18.653a73.858 73.858 0 006.825 4.131 74.587 74.587 0 0013.888 5.672c5.52 5.257 15.678 20.178 16.733 59.413 1.078 39.535-10.533 54.779-16.865 60.168-6.526 2.956-12.626 6.897-18.106 11.685z" fill="#0C479C"/><path d="M294.631 32.4c-21.659 23.694-22.118 58.544-1.246 78.264-10.316-9.935-10.093-30.608.33-50.387 1.342-1.774 5.224-5.961 10.898-4.055.569.194.951.245 1.17.213 1.284.278 2.601.439 3.96.381 8.622-.393 15.288-7.684 14.898-16.307-.175-3.868-1.78-7.292-4.26-9.92 20.007-13.107 42.968-14.61 52.375-6.016l.359.025C351.625 4.97 316.493 8.476 294.631 32.4z" fill="#FFF"/><g fill="#FFF"><path d="M76.205 251.381c-.184-.19-.371-.406-.562-.598.121.125.235.279.378.407l.184.191z"/><path d="M76.894 172.52c-21.663 23.694-22.114 58.541-1.251 78.264-10.313-9.935-10.092-30.608.331-50.387 1.345-1.778 5.231-5.961 10.906-4.055.565.195.946.242 1.167.212 1.283.275 2.603.44 3.959.377 8.623-.392 15.288-7.684 14.899-16.303-.179-3.867-1.782-7.296-4.252-9.92 19.995-13.107 42.959-14.617 52.366-6.021l.355.03c-21.483-19.631-56.623-16.126-78.48 7.803z"/></g><path d="M306.701 370.015c-.187-.191-.374-.404-.564-.594.117.125.237.279.378.402l.186.192zm.689-78.87c-21.666 23.704-22.118 58.553-1.254 78.276-10.317-9.935-10.09-30.611.331-50.388 1.344-1.781 5.227-5.96 10.906-4.053.568.189.941.242 1.166.212 1.282.277 2.605.44 3.963.381 8.617-.396 15.28-7.692 14.891-16.32-.176-3.864-1.781-7.288-4.252-9.917 20.002-13.103 42.959-14.61 52.37-6.016l.355.029c-21.483-19.631-56.625-16.123-78.476 7.796zM132.259 497.639h-27.878l-25.326-30h-8.171v30H48.197v-81.875h36.565c5.046 0 9.441.284 13.186.853s7.203 1.751 10.377 3.548c3.256 1.871 5.84 4.245 7.753 7.124 1.912 2.879 2.869 6.537 2.869 10.975 0 6.271-1.567 11.359-4.7 15.265-3.133 3.906-7.324 7.014-12.572 9.324l30.584 34.786zm-36.75-56.799c0-2.054-.438-3.823-1.314-5.31-.876-1.485-2.332-2.632-4.368-3.438-1.426-.55-3.015-.898-4.767-1.045s-3.931-.221-6.538-.221h-7.638v22.063h6.538c3.178 0 5.876-.174 8.097-.522 2.22-.348 4.104-1.091 5.651-2.229 1.467-1.026 2.557-2.255 3.27-3.686s1.069-3.302 1.069-5.612zm193.583 15.943c0 7.625-1.854 14.453-5.56 20.483s-8.39 10.658-14.051 13.884c-4.725 2.75-9.866 4.519-15.425 5.307-5.56.788-11.476 1.182-17.747 1.182h-28.468v-81.875h28.224c6.394 0 12.38.367 17.96 1.1a42.064 42.064 0 0115.701 5.334c5.986 3.446 10.71 8.093 14.172 13.939s5.194 12.728 5.194 20.646zm-23.437-.137c0-5.389-1.03-9.999-3.09-13.83-2.061-3.83-5.231-6.827-9.515-8.991-3.101-1.539-6.354-2.383-9.76-2.529s-7.476-.22-12.207-.22h-.429v51.25h.429c5.139 0 9.473-.082 13.002-.247 3.528-.165 6.884-1.146 10.065-2.942 3.753-2.126 6.608-5.059 8.566-8.798s2.939-8.304 2.939-13.693zm166.614-25.257h-38.188v15.438h35.125v15.625h-35.125v35.188h-22.688v-81.875h60.875v15.624z" fill="#FFF"/></g></svg>