<svg version="1.1" id="Layer_1" xmlns="http://www.w3.org/2000/svg" x="0" y="0" viewBox="0 0 60 60" xml:space="preserve"><style>.st0{fill:#2f81c1}</style><circle class="st0" cx="29.7" cy="30.3" r="26.7"/><path d="M49 21.6C40.7 11 34.4 15.5 31.4 19c-.9 1.1-2.6 1.1-3.5 0-2.9-3.4-9.2-7.9-17.6 2.6-11.6 14.7 4.8 34.3 19.2 33.1h.3C44.2 55.8 60.6 36.3 49 21.6z" fill="#fff"/><path class="st0" d="M37.1 32.7h-.2s-.9 4.9-2.3 9.8c-.8 2.8-1.7 5-2.5 6.7-1.2 2.4-2.1 2.7-2.6 2.8-.6 0-2.5-.7-4.9-9.2-.2-.8-.4-1.5-.6-2.2l-1.6-7.7c-.8-.3-15.8-4.8-.3 6.3.3 1.3.6 2.7 1 4 2 7.1 4 10.4 6.4 10.4h.1c1.4-.1 2.7-1.3 3.9-3.6.9-1.7 1.8-4 2.6-7 .4-1.2.7-2.5 1-3.7 14.8-11.8 0-6.6 0-6.6z"/></svg>