<svg xmlns="http://www.w3.org/2000/svg" xmlns:xlink="http://www.w3.org/1999/xlink" width="822" height="754" viewBox="-66 148 822 754"><defs><linearGradient id="b"><stop offset="0" stop-color="#2e3436"/><stop offset="1" stop-color="#babdb6"/></linearGradient><linearGradient id="c"><stop offset="0" stop-color="#eeeeec"/><stop offset=".599" stop-color="#eeeeec"/><stop offset=".828" stop-color="#fff"/><stop offset="1" stop-color="#d3d7cf"/></linearGradient><linearGradient id="a"><stop offset="0" stop-color="#fff"/><stop offset="1" stop-color="#fff" stop-opacity="0"/></linearGradient><linearGradient xlink:href="#a" id="f" gradientUnits="userSpaceOnUse" gradientTransform="matrix(17.05225 0 0 -14.35322 633.836 1031.922)" x1="32.133" y1="48.969" x2="37.949" y2="48.969"/><linearGradient xlink:href="#b" id="e" gradientUnits="userSpaceOnUse" gradientTransform="matrix(14.74095 0 0 -16.60373 724.667 964.953)" x1="35.997" y1="40.458" x2="33.665" y2="37.771"/><linearGradient xlink:href="#c" id="d" gradientUnits="userSpaceOnUse" gradientTransform="matrix(18.06145 0 0 -17.37452 609.452 1005.47)" x1="22.308" y1="18.992" x2="35.785" y2="39.498"/></defs><path fill="none" d="M-64.88 115.855h850v850h-850z"/><path d="M790.217 891.916h505.277c5.343 0 9.645-4.445 9.645-9.967V404.813c0-43.494-116.431-145.826-156.847-145.826H790.217c-5.343 0-9.645 4.445-9.645 9.966V881.95c0 5.522 4.302 9.967 9.645 9.967h0z" fill="url(#d)" fill-rule="evenodd" stroke="#888a85" stroke-width="17.24" transform="translate(-710.039 -111.733) scale(1.10565)"/><path style="marker:none" opacity=".17" fill-rule="evenodd" overflow="visible" d="M201.62 433.607H612.8v39.16H201.62zm0 75.087h391.447v39.16H201.621zm.54 78.45h351.982v39.16H202.159zm.408 81.423h411.178v39.16H202.568z"/><path d="M1167.767 259.235c29.93-5.477 141.348 75.214 136.86 141.096-23.043-40.232-70.144-21.365-130.711-24.005 0 0 5.828-108.789-6.15-117.09h0z" style="marker:none" fill="url(#e)" fill-rule="evenodd" stroke="#888a85" stroke-width="15.645" overflow="visible" transform="translate(-710.039 -111.733) scale(1.10565)"/><path d="M1189.148 295.622c20.192 11.354 65.276 35.64 84.43 66.871-23.528-11.291-43.453-3.478-84.057-3.161 0 0 2.392-50.842-.373-63.71z" style="marker:none" opacity=".369" fill="none" stroke="url(#f)" stroke-width="15.645" overflow="visible" transform="translate(-710.039 -111.733) scale(1.10565)"/><path fill="#755075" stroke="#5c3566" stroke-width="18.773" stroke-linecap="round" stroke-linejoin="round" d="M-41.166 323.884h588.592v354.041H-41.166z"/><text transform="matrix(1.0031 0 0 1.2187 -710.039 -111.733)" x="692.863" y="587.197" font-weight="400" font-size="231.059" font-family="Bitstream Vera Sans" fill="#fff" stroke="#fff" stroke-width="15.799"><tspan x="692.863" y="587.197" font-weight="700">TSV</tspan></text><path d="M-24.853 660.804l554.71.134-.325-320.24-554.614.324.23 319.782h0z" fill="none" stroke="#ad7fa8" stroke-width="16.426" stroke-linejoin="round"/></svg>