<svg xmlns="http://www.w3.org/2000/svg" data-name="Layer 1" width="1161.522" height="771.838" viewBox="0 0 1161.522 771.838"><path fill="#3f3d56" d="M0 647.588h1161.522v2H0z"/><path d="M271.252 547.835c2.243 76.794-42.627 104.937-98.938 106.581q-1.962.058-3.906.07-3.918.03-7.759-.13c-50.927-2.114-91.239-29.147-93.325-100.565-2.158-73.91 89.578-169.94 96.461-177.043.006 0 .006 0 .012-.007l.396-.406s104.817 94.712 107.06 171.5z" fill="#c62828"/><path d="M168.26 642.778l35.77-53.194-35.697 58.917.075 5.986q-3.918.03-7.759-.13l1.775-76.943-.049-.594.065-.114.17-7.271-39.173-56.875 39.127 51.433.139 1.537 1.34-58.133-33.835-58.966 33.931 48.754-.354-120.436v-.401l.012.394 2.246 94.92 30.837-38.557-30.736 46.734.673 51.999 28.376-50.749-28.271 58.393.374 28.914 41.266-70.692-41.14 80.779zm671.648-282.622H631.186v-4.302h-94.642v4.302H326.962a14.118 14.118 0 00-14.118 14.118v285.804a14.118 14.118 0 0014.118 14.118h512.946a14.118 14.118 0 0014.118-14.118V374.274a14.118 14.118 0 00-14.118-14.118z" fill="#3f3d56"/><path fill="#f2f2f2" d="M331.772 385.107h503.325v283.927H331.772z"/><circle cx="583.005" cy="372.201" r="5.162" fill="#c62828"/><path d="M868.158 663.871h-49.12v-3.539a.702.702 0 00-.703-.701h-16.841a.702.702 0 00-.702.701v3.54h-10.526v-3.54a.702.702 0 00-.702-.701h-16.841a.702.702 0 00-.702.701v3.54h-10.526v-3.54a.702.702 0 00-.702-.701h-16.841a.702.702 0 00-.702.701v3.54h-10.526v-3.54a.702.702 0 00-.702-.701h-16.841a.702.702 0 00-.702.701v3.54h-10.526v-3.54a.702.702 0 00-.702-.701H686.41a.702.702 0 00-.702.701v3.54h-10.526v-3.54a.702.702 0 00-.702-.701h-16.84a.702.702 0 00-.702.701v3.54H646.41v-3.54a.702.702 0 00-.702-.701H513.783a.702.702 0 00-.701.701v3.54h-10.526v-3.54a.702.702 0 00-.702-.701h-16.842a.702.702 0 00-.701.701v3.54h-10.526v-3.54a.702.702 0 00-.702-.701h-16.842a.702.702 0 00-.701.701v3.54h-10.526v-3.54a.702.702 0 00-.702-.701H427.47a.702.702 0 00-.701.701v3.54h-10.526v-3.54a.702.702 0 00-.702-.701h-16.842a.702.702 0 00-.701.701v3.54h-10.526v-3.54a.702.702 0 00-.702-.701h-16.842a.702.702 0 00-.701.701v3.54H358.7v-3.54a.702.702 0 00-.702-.701h-16.842a.702.702 0 00-.701.701v3.54h-32.28a16.842 16.842 0 00-16.842 16.841v7.615a16.842 16.842 0 0016.842 16.842h559.982A16.842 16.842 0 00885 688.328v-7.615a16.842 16.842 0 00-16.842-16.841z" fill="#3f3d56"/><path fill="#e6e6e6" d="M534.788 407.344h141.24v5.248h-141.24zm0 16.619h141.24v5.248h-141.24zm0 16.62h141.24v5.248h-141.24z"/><path fill="#ccc" d="M534.788 407.344h141.24v5.248h-141.24zm0 16.619h141.24v5.248h-141.24zm0 16.62h141.24v5.248h-141.24zM490 410.588h32v32h-32zm44.788 183.756h141.24v5.248h-141.24zm0 16.619h141.24v5.248h-141.24zm0 16.62h141.24v5.248h-141.24zM490 597.588h32v32h-32z"/><path d="M924.272 288.635a53.197 53.197 0 00-31.605-16.678l5.198-4.696-5.75-.29L885 273.4l6.43 7.115 5.75.29-4.308-4.764A49.359 49.359 0 01885 374.129v4a53.364 53.364 0 0039.272-89.494zm-690.544 0a53.197 53.197 0 0131.605-16.678l-5.198-4.696 5.75-.29L273 273.4l-6.43 7.115-5.75.29 4.308-4.764A49.359 49.359 0 00273 374.129v4a53.364 53.364 0 01-39.272-89.494z" fill="#3f3d56"/><path d="M966.532 307.51l31.894-46.306s27.773-22.27 19.813-26.606c-7.96-4.336-28.8 15.993-28.8 15.993s-60.125 46.093-50.21 52.526c9.914 6.433 27.303 4.392 27.303 4.392z" fill="#ffb8b8"/><path d="M971.167 246.7h41.304a144.462 144.462 0 000-49.248h-41.304a88.611 88.611 0 010 49.247z" fill="#c62828"/><path d="M1078.552 249.049c-12.412-20.973-36.969-21.95-36.969-21.95s-23.929-3.06-39.28 28.881c-14.307 29.773-34.053 58.519-3.178 65.488l5.577-17.358 3.454 18.65a120.807 120.807 0 0013.21.226c33.065-1.067 64.554.313 63.54-11.552-1.347-15.773 5.59-42.205-6.354-62.385z" fill="#2f2e41"/><path d="M1012.557 378.329l-15.9 36.57 55.65 8.745s26.235-35.775 28.62-38.16z" fill="#ffb8b8"/><circle cx="1038.792" cy="269.412" r="29.415" fill="#ffb8b8"/><path d="M1031.637 290.878s13.515 30.21 11.925 33.39c-1.59 3.18 28.62-16.695 28.62-16.695s-12.72-21.465-11.925-24.645zm44.521 12.72s23.85-13.515 37.365 23.85c0 0 44.52 52.47 36.57 62.01-7.95 9.54-38.16-23.055-38.16-23.055l-19.08-19.875s-27.03-7.155-24.646-22.26c2.385-15.105 7.95-20.67 7.95-20.67zm-55.651 18.285l-55.65-15.9s-29.416-11.925-28.621-4.77c.795 7.155 54.06 47.7 71.55 45.315 17.49-2.385 12.72-24.645 12.72-24.645z" fill="#ffb8b8"/><path d="M1052.307 316.318s-18.285-2.385-22.26 1.59c-3.975 3.975-11.528.397-11.528.397l-12.72 23.056s-9.142 13.117-1.987 25.838c7.155 12.72-3.18 29.415-3.18 29.415s57.24 0 69.165 6.36c11.926 6.36 26.298-53.068 26.298-53.068s-14.77-18.085-10.795-29.215c3.975-11.13 1.59-19.876 1.59-19.876l-17.49 1.59z" fill="#d0cde1"/><path fill="#ffb8b8" d="M1014.942 716.208l-7.95-53.266-23.056 4.77 6.361 61.216zm102.581-8.26l-24.67-53.751-15.901 12.72 20.696 55.34z"/><path d="M1014.942 695.537a49.65 49.65 0 01-5.565 12.72c-3.975 6.36-13.515 3.18-13.515 3.18s-11.13-8.745-13.516-4.77c-2.385 3.975-15.105 23.85-15.105 23.85s-42.135 34.98-6.36 40.546c35.776 5.565 42.93-20.67 42.93-20.67s27.031-9.54 27.826-19.08c.795-9.54-16.695-35.776-16.695-35.776zm83.476 11.59s-12.72-3.975-11.925 2.385c.795 6.36 5.565 31.8 5.565 31.8s-8.745 35.776 15.9 29.416c24.645-6.36 25.44-40.546 25.44-40.546s12.72-45.315 3.18-46.11c-9.54-.795-32.595-3.18-32.595-3.18s14.31 23.055-5.565 26.235zm-83.117-467.609l-6.932 30.615 17.255-.664 4.82-11.247v11.062l7.962-.307 4.621-17.906 2.889 19.062 28.304-.578-1.155-22.528-24.261-12.708zm45.751 181.742l-66.78-15.106s-33.39 57.24-38.16 104.941c-4.77 47.7-26.236 162.182 7.95 163.772 34.185 1.59 54.06 1.59 55.65-1.59 1.59-3.18-16.695-128.792-16.695-128.792s38.955 154.232 60.42 143.897c21.466-10.335 45.316-23.85 44.52-31.8-.794-7.95-52.47-92.221-52.47-92.221l7.155-73.141s8.745-29.415-6.36-56.446z" fill="#2f2e41"/><path d="M1012.923 401.384h41.304a144.462 144.462 0 000-49.246h-41.304a88.612 88.612 0 010 49.246z" fill="#c62828"/><path d="M1133.398 365.608l-69.96-1.59s-31.006-23.85-31.801-9.54c-.795 14.31 32.595 22.26 32.595 22.26s71.783 25.76 82.797 14.47z" fill="#ffb8b8"/><circle cx="583" cy="517.619" r="56" fill="#c62828"/><path fill="#d0cde1" d="M562.166 529.989l11.742-.015v17.518h18.175V529.95l11.751-.015-20.888-42.188z"/><path fill="#2f2e41" d="M492.274 7.276v238.276H314.931V7.276z"/><path fill="#3f3d56" d="M284.464 0H522.74v94.583H284.464zm0 105.496H522.74v94.583H284.464zm0 105.497H522.74v94.583H284.464z"/><path fill="#00bfa6" d="M284.464 40.103H522.74v14.551H284.464zm0 105.497H522.74v14.551H284.464zm0 105.496H522.74v14.551H284.464z"/><circle cx="476.359" cy="13.642" r="5.457" fill="#00bfa6"/><circle cx="495.457" cy="13.642" r="5.457" fill="#00bfa6"/><circle cx="514.556" cy="13.642" r="5.457" fill="#00bfa6"/><circle cx="476.359" cy="117.319" r="5.457" fill="#00bfa6"/><circle cx="495.457" cy="117.319" r="5.457" fill="#00bfa6"/><circle cx="514.556" cy="117.319" r="5.457" fill="#00bfa6"/><circle cx="476.359" cy="220.997" r="5.457" fill="#00bfa6"/><circle cx="495.457" cy="220.997" r="5.457" fill="#00bfa6"/><circle cx="514.556" cy="220.997" r="5.457" fill="#00bfa6"/><path fill="#2f2e41" d="M840.371 6.96v238.276H663.028V6.96z"/><path fill="#3f3d56" d="M632.561-.315h238.276v94.583H632.561zm0 105.496h238.276v94.583H632.561zm0 105.497h238.276v94.583H632.561z"/><path fill="#00bfa6" d="M632.561 39.788h238.276v14.551H632.561zm0 105.497h238.276v14.551H632.561zm0 105.496h238.276v14.551H632.561z"/><circle cx="824.455" cy="13.327" r="5.457" fill="#00bfa6"/><circle cx="843.554" cy="13.327" r="5.457" fill="#00bfa6"/><circle cx="862.652" cy="13.327" r="5.457" fill="#00bfa6"/><circle cx="824.455" cy="117.004" r="5.457" fill="#00bfa6"/><circle cx="843.554" cy="117.004" r="5.457" fill="#00bfa6"/><circle cx="862.652" cy="117.004" r="5.457" fill="#00bfa6"/><circle cx="824.455" cy="220.682" r="5.457" fill="#00bfa6"/><circle cx="843.554" cy="220.682" r="5.457" fill="#00bfa6"/><circle cx="862.652" cy="220.682" r="5.457" fill="#00bfa6"/></svg>