<?xml version="1.0" encoding="UTF-8" standalone="no"?>
<svg
   xmlns:dc="http://purl.org/dc/elements/1.1/"
   xmlns:cc="http://creativecommons.org/ns#"
   xmlns:rdf="http://www.w3.org/1999/02/22-rdf-syntax-ns#"
   xmlns:svg="http://www.w3.org/2000/svg"
   xmlns="http://www.w3.org/2000/svg"
   xmlns:sodipodi="http://sodipodi.sourceforge.net/DTD/sodipodi-0.dtd"
   xmlns:inkscape="http://www.inkscape.org/namespaces/inkscape"
   id="b788e214-8c62-4533-b5b0-3b3e1bf4c8d8"
   data-name="Layer 1"
   width="1161.5221"
   height="771.83789"
   viewBox="0 0 1161.522 771.83791"
   version="1.1"
   sodipodi:docname="undraw_file_sync.svg"
   inkscape:version="0.92.3 (2405546, 2018-03-11)">
  <metadata
     id="metadata139">
    <rdf:RDF>
      <cc:Work
         rdf:about="">
        <dc:format>image/svg+xml</dc:format>
        <dc:type
           rdf:resource="http://purl.org/dc/dcmitype/StillImage" />
      </cc:Work>
    </rdf:RDF>
  </metadata>
  <defs
     id="defs137" />
  <sodipodi:namedview
     pagecolor="#ffffff"
     bordercolor="#666666"
     borderopacity="1"
     objecttolerance="10"
     gridtolerance="10"
     guidetolerance="10"
     inkscape:pageopacity="0"
     inkscape:pageshadow="2"
     inkscape:window-width="2560"
     inkscape:window-height="1384"
     id="namedview135"
     showgrid="false"
     inkscape:zoom="1.1915426"
     inkscape:cx="469.20753"
     inkscape:cy="420.65589"
     inkscape:window-x="0"
     inkscape:window-y="0"
     inkscape:window-maximized="1"
     inkscape:current-layer="b788e214-8c62-4533-b5b0-3b3e1bf4c8d8" />
  <title
     id="title2">file_sync</title>
  <rect
     y="647.58759"
     width="1161.5221"
     height="2"
     id="rect8"
     x="0"
     style="fill:#3f3d56" />
  <path
     d="m 271.25216,547.83505 c 2.2427,76.79367 -42.62747,104.93685 -98.93825,106.58136 q -1.962,0.0573 -3.90636,0.0702 -3.91709,0.0299 -7.75808,-0.13046 c -50.92746,-2.1142 -91.23951,-29.14763 -93.32521,-100.56557 -2.15845,-73.90872 89.5781,-169.93874 96.46088,-177.04212 0.006,-1.8e-4 0.006,-1.8e-4 0.0123,-0.007 0.26146,-0.27069 0.39536,-0.40611 0.39536,-0.40611 0,0 104.81686,94.71185 107.05939,171.49929 z"
     id="path10"
     inkscape:connector-curvature="0"
     style="fill:#c62828" />
  <path
     d="m 168.25975,642.77824 35.77056,-53.19441 -35.6974,58.91711 0.0746,5.98571 q -3.91709,0.0299 -7.75808,-0.13046 l 1.77414,-76.94233 -0.0486,-0.59358 0.0655,-0.11469 0.16981,-7.27058 -39.173,-56.87462 39.12677,51.433 0.13885,1.53678 1.34,-58.13294 -33.83488,-58.96594 33.93127,48.75366 -0.35417,-120.43645 7.6e-4,-0.40086 0.0115,0.39423 2.246,94.92013 30.83647,-38.55661 -30.73552,46.73377 0.673,51.99856 28.37589,-50.74862 -28.27161,58.3933 0.37465,28.91381 41.26621,-70.69222 -41.14076,80.779 z"
     id="path12"
     inkscape:connector-curvature="0"
     style="fill:#3f3d56" />
  <path
     d="M 839.90771,360.15558 H 631.18639 v -4.30193 h -94.64237 v 4.30193 H 326.96233 A 14.11841,14.11841 0 0 0 312.8439,374.274 v 285.80366 a 14.11846,14.11846 0 0 0 14.11843,14.11848 h 512.94538 a 14.11846,14.11846 0 0 0 14.11843,-14.11848 V 374.274 a 14.11841,14.11841 0 0 0 -14.11843,-14.11842 z"
     id="path34"
     inkscape:connector-curvature="0"
     style="fill:#3f3d56" />
  <rect
     x="331.77237"
     y="385.10675"
     width="503.32529"
     height="283.92709"
     id="rect36"
     style="fill:#f2f2f2" />
  <circle
     cx="583.00482"
     cy="372.20099"
     r="5.1623101"
     id="circle38"
     style="fill:#c62828" />
  <path
     d="m 868.15842,663.8715 h -49.12128 v -3.53915 a 0.70171,0.70171 0 0 0 -0.70173,-0.70174 h -16.84158 a 0.70171,0.70171 0 0 0 -0.70173,0.70174 v 3.53915 h -10.526 v -3.53915 a 0.70171,0.70171 0 0 0 -0.70173,-0.70174 h -16.84158 a 0.70171,0.70171 0 0 0 -0.70173,0.70174 v 3.53915 h -10.526 v -3.53915 a 0.70171,0.70171 0 0 0 -0.70173,-0.70174 h -16.84157 a 0.70171,0.70171 0 0 0 -0.70173,0.70174 v 3.53915 h -10.52601 v -3.53915 a 0.70171,0.70171 0 0 0 -0.70173,-0.70174 h -16.84156 a 0.70171,0.70171 0 0 0 -0.70174,0.70174 v 3.53915 h -10.52597 v -3.53915 a 0.70171,0.70171 0 0 0 -0.70174,-0.70174 h -16.84159 a 0.70171,0.70171 0 0 0 -0.70173,0.70174 v 3.53915 h -10.526 v -3.53915 a 0.70171,0.70171 0 0 0 -0.70173,-0.70174 h -16.84157 a 0.70171,0.70171 0 0 0 -0.70173,0.70174 v 3.53915 h -10.526 v -3.53915 a 0.70171,0.70171 0 0 0 -0.70173,-0.70174 H 513.78349 a 0.70171,0.70171 0 0 0 -0.70173,0.70174 v 3.53915 h -10.526 v -3.53915 a 0.70171,0.70171 0 0 0 -0.70173,-0.70174 h -16.84157 a 0.70171,0.70171 0 0 0 -0.70174,0.70174 v 3.53915 h -10.526 v -3.53915 a 0.70172,0.70172 0 0 0 -0.70174,-0.70174 h -16.84156 a 0.70171,0.70171 0 0 0 -0.70173,0.70174 v 3.53915 h -10.526 v -3.53915 a 0.70171,0.70171 0 0 0 -0.70173,-0.70174 h -16.84157 a 0.70171,0.70171 0 0 0 -0.70173,0.70174 v 3.53915 h -10.526 v -3.53915 a 0.70171,0.70171 0 0 0 -0.70174,-0.70174 h -16.84157 a 0.70171,0.70171 0 0 0 -0.70173,0.70174 v 3.53915 h -10.526 v -3.53915 a 0.70171,0.70171 0 0 0 -0.70173,-0.70174 h -16.84157 a 0.70171,0.70171 0 0 0 -0.70173,0.70174 v 3.53915 h -10.526 v -3.53915 a 0.70171,0.70171 0 0 0 -0.70173,-0.70174 h -16.84157 a 0.70171,0.70171 0 0 0 -0.70174,0.70174 v 3.53915 h -32.27969 a 16.84159,16.84159 0 0 0 -16.84158,16.84158 v 7.61537 a 16.84158,16.84158 0 0 0 16.84158,16.84154 h 559.98256 a 16.84158,16.84158 0 0 0 16.8416,-16.84154 v -7.61537 a 16.84159,16.84159 0 0 0 -16.8416,-16.84158 z"
     id="path40"
     inkscape:connector-curvature="0"
     style="fill:#3f3d56" />
  <rect
     x="534.78845"
     y="407.34409"
     width="141.24028"
     height="5.24823"
     id="rect42"
     style="fill:#e6e6e6" />
  <rect
     x="534.78845"
     y="423.96347"
     width="141.24028"
     height="5.24823"
     id="rect44"
     style="fill:#e6e6e6" />
  <rect
     x="534.78845"
     y="440.58286"
     width="141.24028"
     height="5.24823"
     id="rect46"
     style="fill:#e6e6e6" />
  <rect
     x="534.78845"
     y="407.34409"
     width="141.24028"
     height="5.24823"
     id="rect48"
     style="fill:#cccccc" />
  <rect
     x="534.78845"
     y="423.96347"
     width="141.24028"
     height="5.24823"
     id="rect50"
     style="fill:#cccccc" />
  <rect
     x="534.78845"
     y="440.58286"
     width="141.24028"
     height="5.24823"
     id="rect52"
     style="fill:#cccccc" />
  <rect
     x="490"
     y="410.58759"
     width="32"
     height="32"
     id="rect54"
     style="fill:#cccccc" />
  <rect
     x="534.78845"
     y="594.34406"
     width="141.24028"
     height="5.24823"
     id="rect56"
     style="fill:#cccccc" />
  <rect
     x="534.78845"
     y="610.9635"
     width="141.24028"
     height="5.24823"
     id="rect58"
     style="fill:#cccccc" />
  <rect
     x="534.78845"
     y="627.58289"
     width="141.24028"
     height="5.24823"
     id="rect60"
     style="fill:#cccccc" />
  <rect
     x="490"
     y="597.58759"
     width="32"
     height="32"
     id="rect62"
     style="fill:#cccccc" />
  <path
     d="m 924.27246,288.63494 a 53.19709,53.19709 0 0 0 -31.60589,-16.67841 l 5.1983,-4.6958 -5.75067,-0.2904 -7.11457,6.4306 6.43061,7.11462 5.75067,0.29041 -4.30878,-4.76428 A 49.359,49.359 0 0 1 885,374.12859 v 4 a 53.36418,53.36418 0 0 0 39.27246,-89.49365 z"
     id="path64"
     inkscape:connector-curvature="0"
     style="fill:#3f3d56" />
  <path
     d="m 233.72754,288.63494 a 53.19709,53.19709 0 0 1 31.6059,-16.67841 l -5.19831,-4.6958 5.75067,-0.2904 7.11457,6.4306 -6.43061,7.11462 -5.75067,0.29041 4.30878,-4.76428 A 49.359,49.359 0 0 0 273,374.12859 v 4 a 53.36418,53.36418 0 0 1 -39.27246,-89.49365 z"
     id="path66"
     inkscape:connector-curvature="0"
     style="fill:#3f3d56" />
  <path
     d="m 966.53202,307.50935 31.894,-46.30584 c 0,0 27.77268,-22.26912 19.81268,-26.60525 -7.9601,-4.33613 -28.80018,15.99258 -28.80018,15.99258 0,0 -60.12445,46.09338 -50.20994,52.52635 9.91451,6.43297 27.30344,4.39216 27.30344,4.39216 z"
     id="path84"
     inkscape:connector-curvature="0"
     style="fill:#ffb8b8" />
  <path
     d="m 971.16719,246.6991 h 41.30361 a 144.46152,144.46152 0 0 0 0,-49.24667 h -41.30361 a 88.61132,88.61132 0 0 1 0,49.24667 z"
     id="path86"
     inkscape:connector-curvature="0"
     style="fill:#c62828" />
  <path
     d="m 1078.5523,249.04852 c -12.4123,-20.9729 -36.969,-21.95033 -36.969,-21.95033 0,0 -23.9291,-3.06 -39.2795,28.882 -14.30778,29.77255 -34.05427,58.51855 -3.17898,65.48809 l 5.57698,-17.358 3.4538,18.65031 a 120.80742,120.80742 0 0 0 13.2104,0.22578 c 33.0649,-1.06753 64.5542,0.31233 63.5403,-11.55275 -1.3478,-15.77303 5.589,-42.20499 -6.354,-62.3851 z"
     id="path88"
     inkscape:connector-curvature="0"
     style="fill:#2f2e41" />
  <path
     d="m 1012.5568,378.32862 -15.90018,36.57041 55.65058,8.7451 c 0,0 26.2353,-35.7754 28.6203,-38.16043 z"
     id="path90"
     inkscape:connector-curvature="0"
     style="fill:#ffb8b8" />
  <circle
     cx="1038.7921"
     cy="269.41241"
     r="29.415331"
     id="circle92"
     style="fill:#ffb8b8" />
  <path
     d="m 1031.637,290.87764 c 0,0 13.5152,30.21034 11.9251,33.39037 -1.59,3.18003 28.6204,-16.69518 28.6204,-16.69518 0,0 -12.7202,-21.46524 -11.9252,-24.64528 z"
     id="path94"
     inkscape:connector-curvature="0"
     style="fill:#ffb8b8" />
  <path
     d="m 1076.1575,303.59774 c 0,0 23.8502,-13.51515 37.3654,23.85027 0,0 44.5205,52.47059 36.5704,62.0107 -7.9501,9.54011 -38.1604,-23.05526 -38.1604,-23.05526 l -19.0802,-19.87523 c 0,0 -27.0303,-7.15508 -24.6453,-22.26025 2.385,-15.10517 7.9501,-20.67023 7.9501,-20.67023 z"
     id="path96"
     inkscape:connector-curvature="0"
     style="fill:#ffb8b8" />
  <path
     d="m 1020.5068,321.88299 -55.65057,-15.90018 c 0,0 -29.41533,-11.92513 -28.62032,-4.77 0.79501,7.15513 54.06061,47.70053 71.55079,45.3155 17.4902,-2.38503 12.7201,-24.64532 12.7201,-24.64532 z"
     id="path98"
     inkscape:connector-curvature="0"
     style="fill:#ffb8b8" />
  <path
     d="m 1052.3072,316.31793 c 0,0 -18.2852,-2.385 -22.2602,1.59 -3.9751,3.975 -11.5277,0.39751 -11.5277,0.39751 l -12.7201,23.0553 c 0,0 -9.14258,13.11764 -1.9875,25.83779 7.155,12.72015 -3.18,29.41533 -3.18,29.41533 0,0 57.2406,0 69.1657,6.36007 11.9252,6.36007 26.2978,-53.068 26.2978,-53.068 0,0 -14.7701,-18.08528 -10.7951,-29.21541 3.9751,-11.13013 1.59,-19.87522 1.59,-19.87522 l -17.4902,1.59 z"
     id="path100"
     inkscape:connector-curvature="0"
     style="fill:#d0cde1" />
  <polygon
     points="1014.942,736.62 1006.992,683.354 983.936,688.124 990.297,749.34 "
     id="polygon102"
     style="fill:#ffb8b8"
     transform="translate(0,-20.412418)" />
  <polygon
     points="1117.523,728.36 1092.853,674.609 1076.952,687.329 1097.648,742.67 "
     id="polygon104"
     style="fill:#ffb8b8"
     transform="translate(0,-20.412418)" />
  <path
     d="m 1014.9418,695.53719 a 49.64912,49.64912 0 0 1 -5.5651,12.72014 c -3.975,6.36007 -13.51508,3.18 -13.51508,3.18 0,0 -11.1302,-8.7451 -13.5152,-4.77006 -2.38502,3.97504 -15.10516,23.85027 -15.10516,23.85027 0,0 -42.13547,34.98039 -6.36007,40.54546 35.77543,5.56507 42.93051,-20.67024 42.93051,-20.67024 0,0 27.0303,-9.5401 27.8253,-19.08021 0.795,-9.54011 -16.6952,-35.77536 -16.6952,-35.77536 z"
     id="path106"
     inkscape:connector-curvature="0"
     style="fill:#2f2e41" />
  <path
     d="m 1098.4177,707.1272 c 0,0 -12.7201,-3.975 -11.9251,2.385 0.795,6.36 5.565,31.80036 5.565,31.80036 0,0 -8.745,35.7754 15.9002,29.41533 24.6453,-6.36007 25.4403,-40.54546 25.4403,-40.54546 0,0 12.7201,-45.31551 3.18,-46.11051 -9.5401,-0.795 -32.5953,-3.18 -32.5953,-3.18 0,0 14.3101,23.05525 -5.5651,26.23528 z"
     id="path108"
     inkscape:connector-curvature="0"
     style="fill:#2f2e41" />
  <polygon
     points="1015.301,259.93 1008.369,290.545 1025.624,289.881 1030.444,278.634 1030.444,289.696 1038.406,289.389 1043.027,271.483 1045.916,290.545 1074.22,289.967 1073.065,267.439 1048.804,254.731 "
     id="polygon110"
     style="fill:#2f2e41"
     transform="translate(0,-20.412418)" />
  <path
     d="m 1061.0523,421.2591 -66.78068,-15.10517 c 0,0 -33.39043,57.24065 -38.16048,104.94118 -4.77005,47.70053 -26.2353,162.18183 7.95009,163.77184 34.18539,1.59001 54.06057,1.59 55.65057,-1.59 1.5901,-3.18 -16.6952,-128.79145 -16.6952,-128.79145 0,0 38.9555,154.23173 60.4207,143.89662 21.4653,-10.33511 45.3155,-23.85027 44.5205,-31.80036 -0.795,-7.95009 -52.4706,-92.221 -52.4706,-92.221 l 7.1551,-73.14082 c 0,0 8.7451,-29.41533 -6.3601,-56.44563 z"
     id="path112"
     inkscape:connector-curvature="0"
     style="fill:#2f2e41" />
  <path
     d="m 1012.923,401.38435 h 41.3037 a 144.46158,144.46158 0 0 0 0,-49.24668 h -41.3037 a 88.61154,88.61154 0 0 1 0,49.24668 z"
     id="path114"
     inkscape:connector-curvature="0"
     style="fill:#c62828" />
  <path
     d="m 1133.3981,365.60848 -69.9608,-1.59 c 0,0 -31.0053,-23.85027 -31.8003,-9.54011 -0.795,14.31016 32.5953,22.26025 32.5953,22.26025 0,0 71.7824,25.75844 82.7968,14.46924 z"
     id="path116"
     inkscape:connector-curvature="0"
     style="fill:#ffb8b8" />
  <circle
     cx="583"
     cy="517.61908"
     r="56"
     id="circle130"
     style="fill:#c62828" />
  <polygon
     points="562.166,550.401 573.908,550.386 573.908,567.904 592.083,567.904 592.083,550.362 603.834,550.347 582.946,508.159 "
     id="polygon132"
     style="fill:#d0cde1"
     transform="translate(0,-20.412418)" />
  <rect
     x="7.275631"
     y="-492.27417"
     width="238.27635"
     height="177.34308"
     transform="rotate(90)"
     id="rect6-3"
     style="fill:#2f2e41;stroke-width:0.90945172" />
  <rect
     x="284.46439"
     y="0"
     width="238.27635"
     height="94.58297"
     id="rect8-6"
     style="fill:#3f3d56;stroke-width:0.90945172" />
  <rect
     x="284.46439"
     y="105.49644"
     width="238.27635"
     height="94.58297"
     id="rect10"
     style="fill:#3f3d56;stroke-width:0.90945172" />
  <rect
     x="284.46439"
     y="210.99277"
     width="238.27635"
     height="94.58297"
     id="rect12"
     style="fill:#3f3d56;stroke-width:0.90945172" />
  <rect
     x="284.46439"
     y="40.103439"
     width="238.27635"
     height="14.551228"
     id="rect14"
     style="fill:#00bfa6;stroke-width:0.90945172" />
  <rect
     x="284.46439"
     y="145.59981"
     width="238.27635"
     height="14.551228"
     id="rect16"
     style="fill:#00bfa6;stroke-width:0.90945172" />
  <rect
     x="284.46439"
     y="251.09616"
     width="238.27635"
     height="14.551228"
     id="rect18-7"
     style="fill:#00bfa6;stroke-width:0.90945172" />
  <circle
     cx="476.35873"
     cy="13.641781"
     r="5.4567099"
     id="circle20"
     style="fill:#00bfa6;stroke-width:0.90945172" />
  <circle
     cx="495.45718"
     cy="13.641781"
     r="5.4567099"
     id="circle22"
     style="fill:#00bfa6;stroke-width:0.90945172" />
  <circle
     cx="514.55566"
     cy="13.641781"
     r="5.4567099"
     id="circle24"
     style="fill:#00bfa6;stroke-width:0.90945172" />
  <circle
     cx="476.35873"
     cy="117.31927"
     r="5.4567099"
     id="circle26"
     style="fill:#00bfa6;stroke-width:0.90945172" />
  <circle
     cx="495.45718"
     cy="117.31927"
     r="5.4567099"
     id="circle28"
     style="fill:#00bfa6;stroke-width:0.90945172" />
  <circle
     cx="514.55566"
     cy="117.31927"
     r="5.4567099"
     id="circle30"
     style="fill:#00bfa6;stroke-width:0.90945172" />
  <circle
     cx="476.35873"
     cy="220.99677"
     r="5.4567099"
     id="circle32"
     style="fill:#00bfa6;stroke-width:0.90945172" />
  <circle
     cx="495.45718"
     cy="220.99677"
     r="5.4567099"
     id="circle34"
     style="fill:#00bfa6;stroke-width:0.90945172" />
  <circle
     cx="514.55566"
     cy="220.99677"
     r="5.4567099"
     id="circle36"
     style="fill:#00bfa6;stroke-width:0.90945172" />
  <rect
     x="6.9604759"
     y="-840.37079"
     width="238.27635"
     height="177.34308"
     transform="rotate(90)"
     id="rect6-3-6"
     style="fill:#2f2e41;stroke-width:0.90945172" />
  <rect
     x="632.56097"
     y="-0.31515837"
     width="238.27635"
     height="94.58297"
     id="rect8-6-1"
     style="fill:#3f3d56;stroke-width:0.90945172" />
  <rect
     x="632.56097"
     y="105.18129"
     width="238.27635"
     height="94.58297"
     id="rect10-8"
     style="fill:#3f3d56;stroke-width:0.90945172" />
  <rect
     x="632.56097"
     y="210.67761"
     width="238.27635"
     height="94.58297"
     id="rect12-7"
     style="fill:#3f3d56;stroke-width:0.90945172" />
  <rect
     x="632.56097"
     y="39.78828"
     width="238.27635"
     height="14.551228"
     id="rect14-9"
     style="fill:#00bfa6;stroke-width:0.90945172" />
  <rect
     x="632.56097"
     y="145.28465"
     width="238.27635"
     height="14.551228"
     id="rect16-2"
     style="fill:#00bfa6;stroke-width:0.90945172" />
  <rect
     x="632.56097"
     y="250.78101"
     width="238.27635"
     height="14.551228"
     id="rect18-7-0"
     style="fill:#00bfa6;stroke-width:0.90945172" />
  <circle
     cx="824.45532"
     cy="13.326627"
     r="5.4567099"
     id="circle20-2"
     style="fill:#00bfa6;stroke-width:0.90945172" />
  <circle
     cx="843.55377"
     cy="13.326627"
     r="5.4567099"
     id="circle22-3"
     style="fill:#00bfa6;stroke-width:0.90945172" />
  <circle
     cx="862.65228"
     cy="13.326627"
     r="5.4567099"
     id="circle24-7"
     style="fill:#00bfa6;stroke-width:0.90945172" />
  <circle
     cx="824.45532"
     cy="117.00411"
     r="5.4567099"
     id="circle26-5"
     style="fill:#00bfa6;stroke-width:0.90945172" />
  <circle
     cx="843.55377"
     cy="117.00411"
     r="5.4567099"
     id="circle28-9"
     style="fill:#00bfa6;stroke-width:0.90945172" />
  <circle
     cx="862.65228"
     cy="117.00411"
     r="5.4567099"
     id="circle30-2"
     style="fill:#00bfa6;stroke-width:0.90945172" />
  <circle
     cx="824.45532"
     cy="220.68161"
     r="5.4567099"
     id="circle32-2"
     style="fill:#00bfa6;stroke-width:0.90945172" />
  <circle
     cx="843.55377"
     cy="220.68161"
     r="5.4567099"
     id="circle34-8"
     style="fill:#00bfa6;stroke-width:0.90945172" />
  <circle
     cx="862.65228"
     cy="220.68161"
     r="5.4567099"
     id="circle36-9"
     style="fill:#00bfa6;stroke-width:0.90945172" />
</svg>
