<svg xmlns="http://www.w3.org/2000/svg" xmlns:xlink="http://www.w3.org/1999/xlink" data-name="Layer 1" width="888" height="672.807" viewBox="0 0 888 672.807"><defs><linearGradient gradientTransform="translate(64.655 -103.039) scale(.44787)" id="d" x1="749.12" y1="475.15" x2="749.12" y2="351.15" xlink:href="#a"/><linearGradient id="a" x1="213.62" y1="486" x2="213.62" gradientUnits="userSpaceOnUse"><stop offset="0" stop-color="gray" stop-opacity=".25"/><stop offset=".54" stop-color="gray" stop-opacity=".12"/><stop offset="1" stop-color="gray" stop-opacity=".1"/></linearGradient><linearGradient gradientTransform="translate(133.852 -60.724) scale(.44787)" id="c" x1="595.12" y1="395.68" x2="595.12" y2="241.68" xlink:href="#a"/><linearGradient gradientTransform="translate(139.943 -92.059) scale(.4399)" id="f" x1="790.62" y1="362.68" x2="790.62" y2="344.68" xlink:href="#b"/><linearGradient id="b" x1="213.62" y1="486" x2="213.62" gradientUnits="userSpaceOnUse"><stop offset="0" stop-color="gray" stop-opacity=".25"/><stop offset=".54" stop-color="gray" stop-opacity=".12"/><stop offset="1" stop-color="gray" stop-opacity=".1"/></linearGradient><linearGradient gradientTransform="translate(139.943 -92.059) scale(.4399)" id="e" x1="788.12" y1="472.68" x2="788.12" y2="318.68" xlink:href="#b"/></defs><path d="M444.936 604.807a260.064 260.064 0 11183.893-76.17 258.365 258.365 0 01-183.893 76.17zm0-518.129c-142.297 0-258.065 115.768-258.065 258.065S302.64 602.807 444.936 602.807 703 487.04 703 344.743c0-142.297-115.768-258.065-258.064-258.065z" fill="#ccc"/><path fill="#2f2e41" d="M519.521 417.876v202.938H368.479V417.876z"/><path fill="#3f3d56" d="M342.531 411.679h202.938v80.556H342.531zm0 89.851h202.938v80.556H342.531zm0 89.85h202.938v80.556H342.531z"/><path fill="#00bfa6" d="M342.531 445.835h202.938v12.393H342.531zm0 89.85h202.938v12.393H342.531zm0 89.851h202.938v12.393H342.531z"/><circle cx="505.966" cy="423.298" r="4.647" fill="#00bfa6"/><circle cx="522.232" cy="423.298" r="4.647" fill="#00bfa6"/><circle cx="538.498" cy="423.298" r="4.647" fill="#00bfa6"/><circle cx="505.966" cy="511.599" r="4.647" fill="#00bfa6"/><circle cx="522.232" cy="511.599" r="4.647" fill="#00bfa6"/><circle cx="538.498" cy="511.599" r="4.647" fill="#00bfa6"/><circle cx="505.966" cy="599.9" r="4.647" fill="#00bfa6"/><circle cx="522.232" cy="599.9" r="4.647" fill="#00bfa6"/><circle cx="538.498" cy="599.9" r="4.647" fill="#00bfa6"/><path fill="#3f3d56" d="M0 670.807h888v2H0z"/><path fill="#e6e6e6" d="M321.111.139h245.884v157.475H321.111z"/><path fill="#fff" d="M339.647 44.195h203.861v77.035H339.647z"/><path fill="#c62828" d="M321.006 0H566.89v10.446H321.006z"/><circle cx="328.768" cy="5.341" r="2.097" fill="#fff"/><circle cx="336.117" cy="5.341" r="2.097" fill="#fff"/><circle cx="343.466" cy="5.341" r="2.097" fill="#fff"/><path fill="url(#c)" d="M367.919 47.518h64.941v68.972h-64.941z"/><path fill="#fff" d="M369.262 49.757h62.254v64.494h-62.254z"/><path d="M421.202 63.888a27.768 27.768 0 106.718 18.116 27.696 27.696 0 00-6.718-18.116zm-11.197 34.696a19.259 19.259 0 119.441-16.571 19.173 19.173 0 01-9.427 16.571z" fill="url(#d)"/><path d="M414.072 70.028l6.113-5.263a26.357 26.357 0 00-20.02-9.185v8.061a18.322 18.322 0 0113.907 6.387z" fill="#ff5252"/><path d="M400.165 100.362a18.246 18.246 0 01-7.578-1.643l-3.327 7.35a26.424 26.424 0 0024.404-1.344l-4.12-6.938a18.246 18.246 0 01-9.379 2.575z" fill="#69f0ae"/><path d="M426.59 82a26.312 26.312 0 00-6.405-17.24l-6.113 5.263a18.331 18.331 0 01-4.528 27.769l4.12 6.937A26.424 26.424 0 00426.59 82z" fill="#ff9800"/><path d="M381.803 82a18.363 18.363 0 0118.362-18.363v-8.062a26.424 26.424 0 00-10.905 50.493l3.327-7.35A18.363 18.363 0 01381.803 82z" fill="#c62828"/><path fill="url(#e)" d="M454.75 48.131h63.787v67.746H454.75z"/><path fill="#fff" d="M456.07 50.331h61.147v63.347H456.07z"/><path fill="url(#f)" d="M464.428 59.569h46.63v7.918h-46.63z"/><path fill="#c62828" d="M464.868 60.009h45.75v7.039h-45.75z"/><path fill="#ff5252" d="M464.868 71.886h33.433v7.039h-33.433z"/><path fill="#69f0ae" d="M464.868 83.764h22.875v7.039h-22.875z"/><path fill="#ff9800" d="M464.868 95.641h41.351v7.039h-41.351z"/><path fill="#2f2e41" d="M243.622 289.351v117.876h-85.311V289.351z"/><path fill="#3f3d56" d="M143.655 285.752h114.623v46.791H143.655zm0 52.189h114.623v46.791H143.655zm0 52.19h114.623v46.791H143.655z"/><path fill="#00bfa6" d="M143.655 305.591h114.623v7.199H143.655zm0 52.19h114.623v7.199H143.655zm0 52.189h114.623v7.199H143.655z"/><ellipse cx="235.966" cy="292.5" rx="2.625" ry="2.699" fill="#00bfa6"/><ellipse cx="245.153" cy="292.5" rx="2.625" ry="2.699" fill="#00bfa6"/><ellipse cx="254.341" cy="292.5" rx="2.625" ry="2.699" fill="#00bfa6"/><ellipse cx="235.966" cy="343.79" rx="2.625" ry="2.699" fill="#00bfa6"/><ellipse cx="245.153" cy="343.79" rx="2.625" ry="2.699" fill="#00bfa6"/><ellipse cx="254.341" cy="343.79" rx="2.625" ry="2.699" fill="#00bfa6"/><ellipse cx="235.966" cy="395.08" rx="2.625" ry="2.699" fill="#00bfa6"/><ellipse cx="245.153" cy="395.08" rx="2.625" ry="2.699" fill="#00bfa6"/><ellipse cx="254.341" cy="395.08" rx="2.625" ry="2.699" fill="#00bfa6"/><path fill="#2f2e41" d="M732.126 291.701v117.876h-85.311V291.701z"/><path fill="#3f3d56" d="M632.159 288.101h114.623v46.791H632.159zm0 52.19h114.623v46.791H632.159zm0 52.189h114.623v46.791H632.159z"/><path fill="#00bfa6" d="M632.159 307.941h114.623v7.199H632.159zm0 52.189h114.623v7.199H632.159zm0 52.19h114.623v7.199H632.159z"/><ellipse cx="724.47" cy="294.85" rx="2.625" ry="2.699" fill="#00bfa6"/><ellipse cx="733.657" cy="294.85" rx="2.625" ry="2.699" fill="#00bfa6"/><ellipse cx="742.845" cy="294.85" rx="2.625" ry="2.699" fill="#00bfa6"/><ellipse cx="724.47" cy="346.14" rx="2.625" ry="2.699" fill="#00bfa6"/><ellipse cx="733.657" cy="346.14" rx="2.625" ry="2.699" fill="#00bfa6"/><ellipse cx="742.845" cy="346.14" rx="2.625" ry="2.699" fill="#00bfa6"/><ellipse cx="724.47" cy="397.429" rx="2.625" ry="2.699" fill="#00bfa6"/><ellipse cx="733.657" cy="397.429" rx="2.625" ry="2.699" fill="#00bfa6"/><ellipse cx="742.845" cy="397.429" rx="2.625" ry="2.699" fill="#00bfa6"/></svg>