<svg data-name="Layer 1" xmlns="http://www.w3.org/2000/svg" width="888" height="710.807" viewBox="0 0 888 710.807"><path d="M444.936 604.807a260.064 260.064 0 11183.893-76.17 258.365 258.365 0 01-183.893 76.17zm0-518.129c-142.297 0-258.065 115.768-258.065 258.065S302.64 602.807 444.936 602.807 703 487.04 703 344.743 587.232 86.678 444.936 86.678z" fill="#ccc"/><path fill="#2f2e41" d="M541.5 381.807v262h-195v-262z"/><path fill="#3f3d56" d="M313 373.807h262v104H313zm0 116h262v104H313zm0 116h262v104H313z"/><path fill="#6c63ff" d="M313 417.904h262v16H313zm0 116h262v16H313zm0 116h262v16H313z"/><circle cx="524" cy="388.807" r="6" fill="#6c63ff"/><circle cx="545" cy="388.807" r="6" fill="#6c63ff"/><circle cx="566" cy="388.807" r="6" fill="#6c63ff"/><circle cx="524" cy="502.807" r="6" fill="#6c63ff"/><circle cx="545" cy="502.807" r="6" fill="#6c63ff"/><circle cx="566" cy="502.807" r="6" fill="#6c63ff"/><circle cx="524" cy="616.807" r="6" fill="#6c63ff"/><circle cx="545" cy="616.807" r="6" fill="#6c63ff"/><circle cx="566" cy="616.807" r="6" fill="#6c63ff"/><path fill="#3f3d56" d="M0 708.807h888v2H0z"/><path d="M241.879 271.065v185.991a14.675 14.675 0 01-14.673 14.673h-72.278a14.677 14.677 0 01-14.678-14.673V271.065a14.677 14.677 0 0114.678-14.673h8.768A6.978 6.978 0 00170.15 266h41.208a6.978 6.978 0 006.455-9.607h9.392a14.675 14.675 0 0114.673 14.673z" fill="#e6e6e6"/><path fill="#fff" d="M145.064 291.91h92v128h-92z"/><path fill="#e6e6e6" d="M171.186 379.927h36.72v2.098h-36.72z"/><path fill="#6c63ff" d="M171.149 387.632h56.817v2.098h-56.817z"/><path fill="#e6e6e6" d="M171.149 394.89h44.588v2.098h-44.588zm0 7.259h26.228v2.098h-26.228zm0 7.258h39.343v2.098h-39.343zm-16.616-30.083h4.197v4.197h-4.197z"/><path fill="#6c63ff" d="M154.533 386.582h4.197v4.197h-4.197z"/><path fill="#e6e6e6" d="M154.533 393.841h4.197v4.197h-4.197zm0 7.259h4.197v4.197h-4.197zm0 7.258h4.197v4.197h-4.197zm18.218-100.448h36.998v36.998h-36.998zM321.111.139h245.884v157.475H321.111z"/><path fill="#fff" d="M339.647 44.195h203.861v77.035H339.647z"/><path fill="#e6e6e6" d="M376.789 57.542h48.927v2.796h-48.927z"/><path fill="#6c63ff" d="M376.74 67.807h75.705v2.796H376.74z"/><path fill="#e6e6e6" d="M376.74 77.479h59.411v2.796H376.74zm0 9.672h34.948v2.796H376.74zm0 9.671h52.422v2.796H376.74zm-22.139-40.084h5.592v5.592h-5.592z"/><path fill="#6c63ff" d="M354.601 66.409h5.592v5.592h-5.592z"/><path fill="#e6e6e6" d="M354.601 76.081h5.592v5.592h-5.592zm0 9.672h5.592v5.592h-5.592zm0 9.671h5.592v5.592h-5.592zm128.844-41.577h50.059v50.059h-50.059z"/><path fill="#6c63ff" d="M321.006 0H566.89v10.446H321.006z"/><circle cx="328.768" cy="5.341" r="2.097" fill="#fff"/><circle cx="336.117" cy="5.341" r="2.097" fill="#fff"/><circle cx="343.466" cy="5.341" r="2.097" fill="#fff"/><path fill="#e6e6e6" d="M671.648 294.807h60v31h-60zm0 111h60v31h-60z"/><circle cx="701.648" cy="365.807" r="50" fill="#e6e6e6"/><circle cx="701.648" cy="365.807" r="39" fill="#fff"/><path fill="#e2e2e2" d="M688.877 355.122h30.247v1.728h-30.247z"/><path fill="#6c63ff" d="M688.846 361.468h46.802v1.728h-46.802z"/><path fill="#e2e2e2" d="M688.846 367.447h36.728v1.728h-36.728zm0 5.979h21.605v1.728h-21.605zm0 5.979h32.407v1.728h-32.407zm-13.686-24.78h3.457v3.457h-3.457z"/><path fill="#6c63ff" d="M675.16 360.604h3.457v3.457h-3.457z"/><path fill="#e2e2e2" d="M675.16 366.583h3.457v3.457h-3.457zm0 5.979h3.457v3.457h-3.457zm0 5.979h3.457v3.457h-3.457z"/></svg>