<svg xmlns="http://www.w3.org/2000/svg" xmlns:xlink="http://www.w3.org/1999/xlink" data-name="Layer 1" width="888" height="679.394" viewBox="0 0 888 679.394"><defs><linearGradient gradientTransform="translate(54.684 -108.597) scale(.46216)" id="d" x1="749.12" y1="475.15" x2="749.12" y2="351.15" xlink:href="#a"/><linearGradient id="a" x1="213.62" y1="486" x2="213.62" gradientUnits="userSpaceOnUse"><stop offset="0" stop-color="gray" stop-opacity=".25"/><stop offset=".54" stop-color="gray" stop-opacity=".12"/><stop offset="1" stop-color="gray" stop-opacity=".1"/></linearGradient><linearGradient gradientTransform="translate(126.088 -64.932) scale(.46216)" id="c" x1="595.12" y1="395.68" x2="595.12" y2="241.68" xlink:href="#a"/><linearGradient gradientTransform="translate(130.919 -96.493) scale(.45238)" id="f" x1="790.62" y1="362.68" x2="790.62" y2="344.68" xlink:href="#b"/><linearGradient id="b" x1="213.62" y1="486" x2="213.62" gradientUnits="userSpaceOnUse"><stop offset="0" stop-color="gray" stop-opacity=".25"/><stop offset=".54" stop-color="gray" stop-opacity=".12"/><stop offset="1" stop-color="gray" stop-opacity=".1"/></linearGradient><linearGradient gradientTransform="translate(130.919 -96.493) scale(.45238)" id="e" x1="788.12" y1="472.68" x2="788.12" y2="318.68" xlink:href="#b"/></defs><path d="M445.468 604.807a260.064 260.064 0 11183.894-76.17 258.365 258.365 0 01-183.894 76.17zm0-518.129c-142.297 0-258.064 115.768-258.064 258.065S303.17 602.807 445.468 602.807c142.297 0 258.064-115.767 258.064-258.064 0-142.297-115.767-258.065-258.064-258.065z" fill="#ccc"/><path fill="#2f2e41" d="M523.801 411.725v213.01H365.263v-213.01z"/><path fill="#3f3d56" d="M338.028 405.221h213.01v84.554h-213.01zm0 94.31h213.01v84.554h-213.01zm0 94.309h213.01v84.554h-213.01z"/><path fill="#6c63ff" d="M338.028 441.072h213.01v13.008h-213.01zm0 94.31h213.01v13.008h-213.01zm0 94.309h213.01v13.008h-213.01z"/><circle cx="509.574" cy="417.416" r="4.878" fill="#6c63ff"/><circle cx="526.647" cy="417.416" r="4.878" fill="#6c63ff"/><circle cx="543.72" cy="417.416" r="4.878" fill="#6c63ff"/><circle cx="509.574" cy="510.1" r="4.878" fill="#6c63ff"/><circle cx="526.647" cy="510.1" r="4.878" fill="#6c63ff"/><circle cx="543.72" cy="510.1" r="4.878" fill="#6c63ff"/><circle cx="509.574" cy="602.784" r="4.878" fill="#6c63ff"/><circle cx="526.647" cy="602.784" r="4.878" fill="#6c63ff"/><circle cx="543.72" cy="602.784" r="4.878" fill="#6c63ff"/><path fill="#3f3d56" d="M0 677.394h888v2H0z"/><path fill="#e6e6e6" d="M321.643.139h245.884v157.475H321.643z"/><path fill="#fff" d="M340.179 41.799H544.04v81.561H340.179z"/><path fill="#6c63ff" d="M321.538 0h245.884v10.446H321.538z"/><circle cx="329.301" cy="5.341" r="2.097" fill="#fff"/><circle cx="336.65" cy="5.341" r="2.097" fill="#fff"/><circle cx="343.999" cy="5.341" r="2.097" fill="#fff"/><path fill="#2f2e41" d="M236.236 285.654V399.08h-84.42V285.654z"/><path fill="#3f3d56" d="M137.313 282.19h113.426v45.024H137.313zm0 50.22h113.426v45.024H137.313zm0 50.219h113.426v45.024H137.313z"/><path fill="#6c63ff" d="M137.313 301.281h113.426v6.927H137.313zm0 50.219h113.426v6.927H137.313zm0 50.219h113.426v6.927H137.313z"/><circle cx="228.66" cy="288.684" r="2.598" fill="#6c63ff"/><circle cx="237.752" cy="288.684" r="2.598" fill="#6c63ff"/><circle cx="246.843" cy="288.684" r="2.598" fill="#6c63ff"/><circle cx="228.66" cy="338.038" r="2.598" fill="#6c63ff"/><circle cx="237.752" cy="338.038" r="2.598" fill="#6c63ff"/><circle cx="246.843" cy="338.038" r="2.598" fill="#6c63ff"/><circle cx="228.66" cy="387.391" r="2.598" fill="#6c63ff"/><circle cx="237.752" cy="387.391" r="2.598" fill="#6c63ff"/><circle cx="246.843" cy="387.391" r="2.598" fill="#6c63ff"/><path fill="#2f2e41" d="M740.762 283.212v113.426h-84.42V283.212z"/><path fill="#3f3d56" d="M641.839 279.749h113.426v45.024H641.839zm0 50.219h113.426v45.024H641.839zm0 50.219h113.426v45.024H641.839z"/><path fill="#6c63ff" d="M641.839 298.839h113.426v6.927H641.839zm0 50.219h113.426v6.927H641.839zm0 50.219h113.426v6.927H641.839z"/><circle cx="733.186" cy="286.243" r="2.598" fill="#6c63ff"/><circle cx="742.277" cy="286.243" r="2.598" fill="#6c63ff"/><circle cx="751.368" cy="286.243" r="2.598" fill="#6c63ff"/><circle cx="733.186" cy="335.596" r="2.598" fill="#6c63ff"/><circle cx="742.277" cy="335.596" r="2.598" fill="#6c63ff"/><circle cx="751.368" cy="335.596" r="2.598" fill="#6c63ff"/><circle cx="733.186" cy="384.949" r="2.598" fill="#6c63ff"/><circle cx="742.277" cy="384.949" r="2.598" fill="#6c63ff"/><circle cx="751.368" cy="384.949" r="2.598" fill="#6c63ff"/><path fill="url(#c)" d="M367.623 46.764h67.013v71.173h-67.013z"/><path fill="#fff" d="M369.01 49.074h64.24v66.551h-64.24z"/><path d="M422.607 63.656a28.654 28.654 0 106.932 18.694 28.58 28.58 0 00-6.932-18.694zm-11.554 35.803a19.873 19.873 0 119.742-17.1 19.785 19.785 0 01-9.728 17.1z" fill="url(#d)"/><path d="M415.25 69.992l6.308-5.43a27.198 27.198 0 00-20.659-9.48v8.32a18.907 18.907 0 0114.35 6.59z" fill="#ff5252"/><path d="M400.899 101.294a18.828 18.828 0 01-7.82-1.696l-3.434 7.584a27.268 27.268 0 0025.184-1.386l-4.252-7.16a18.828 18.828 0 01-9.678 2.658z" fill="#69f0ae"/><path d="M428.167 82.345a27.152 27.152 0 00-6.61-17.788l-6.308 5.43a18.916 18.916 0 01-4.672 28.654l4.252 7.16a27.268 27.268 0 0013.338-23.456z" fill="#ff9800"/><path d="M381.95 82.345a18.949 18.949 0 0118.95-18.948v-8.32a27.268 27.268 0 00-11.254 52.105l3.434-7.584a18.949 18.949 0 01-11.129-17.253z" fill="#6c63ff"/><path fill="url(#e)" d="M454.653 47.673h65.596v69.667h-65.596z"/><path fill="#fff" d="M456.01 49.934h62.881v65.143H456.01z"/><path fill="url(#f)" d="M464.606 59.435h47.953v8.143h-47.953z"/><path fill="#6c63ff" d="M465.058 59.887h47.048v7.238h-47.048z"/><path fill="#ff5252" d="M465.058 72.101h34.381v7.238h-34.381z"/><path fill="#69f0ae" d="M465.058 84.316h23.524v7.238h-23.524z"/><path fill="#ff9800" d="M465.058 96.53h42.524v7.238h-42.524z"/></svg>